<svg width="1235.1988" height="141.7322" xmlns="http://www.w3.org/2000/svg">
<polyline points="0.0000,2.6033 28.3464,2.6033 30.9652,2.5435 33.5859,2.4844 36.2086,2.4261 38.8331,2.3686 41.4596,2.3119 44.0879,2.2560 46.7182,2.2008 49.3503,2.1465 51.9843,2.0928 54.6202,2.0400 57.2579,1.9879 59.8975,1.9366 62.5390,1.8860 65.1823,1.8362 67.8274,1.7872 70.4744,1.7389 73.1232,1.6913 75.7738,1.6445 78.4262,1.5984 81.0804,1.5531 83.7364,1.5085 86.3942,1.4647 89.0538,1.4215 91.7151,1.3791 94.3782,1.3374 97.0431,1.2965 99.7097,1.2562 102.3781,1.2167 105.0483,1.1779 107.7201,1.1398 110.3937,1.1024 113.0690,1.0656 115.7461,1.0296 118.4248,0.9943 121.1053,0.9597 123.7874,0.9257 126.4713,0.8925 129.1568,0.8599 131.8440,0.8280 134.5329,0.7967 137.2235,0.7662 139.9157,0.7363 142.6096,0.7070 145.3051,0.6785 148.0023,0.6505 150.7011,0.6232 153.4016,0.5966 156.1037,0.5706 158.8074,0.5453 161.5127,0.5206 164.2197,0.4965 166.9282,0.4730 169.6384,0.4502 172.3502,0.4280 175.0635,0.4064 177.7785,0.3854 180.4950,0.3650 183.2131,0.3452 185.9328,0.3261 188.6541,0.3075 191.3769,0.2895 194.1013,0.2721 196.8272,0.2553 199.5547,0.2391 202.2837,0.2234 205.0143,0.2083 207.7464,0.1938 210.4801,0.1798 213.2153,0.1664 215.9520,0.1536 218.6902,0.1413 221.4299,0.1295 224.1712,0.1183 226.9139,0.1076 229.6582,0.0975 232.4040,0.0879 235.1512,0.0788 237.9000,0.0703 240.6502,0.0622 243.4019,0.0547 246.1551,0.0476 248.9098,0.0411 251.6660,0.0351 254.4236,0.0296 257.1827,0.0245 259.9432,0.0199 262.7052,0.0159 265.4687,0.0123 268.2336,0.0091 271.0000,0.0065 273.7678,0.0043 276.5371,0.0025 279.3078,0.0012 282.0800,0.0004 284.8535,0.0000 287.6286,0.0000 290.4050,0.0005 293.1829,0.0014 295.9622,0.0028 298.7429,0.0045 301.5250,0.0067 304.3086,0.0093 307.0935,0.0123 309.8799,0.0157 312.6677,0.0195 315.4569,0.0237 318.2475,0.0282 321.0395,0.0332 323.8330,0.0385 326.6278,0.0443 329.4240,0.0504 332.2216,0.0568 335.0206,0.0636 337.8210,0.0708 340.6228,0.0783 343.4260,0.0862 346.2305,0.0944 349.0365,0.1029 351.8438,0.1118 354.6525,0.1210 357.4626,0.1306 360.2741,0.1404 363.0870,0.1506 365.9012,0.1611 368.7169,0.1718 371.5339,0.1829 374.3523,0.1943 377.1720,0.2059 379.9932,0.2179 382.8157,0.2301 385.6395,0.2426 388.4648,0.2554 391.2914,0.2684 394.1194,0.2817 396.9488,0.2953 399.7796,0.3091 402.6117,0.3231 405.4452,0.3374 408.2800,0.3520 411.1163,0.3667 413.9539,0.3817 416.7929,0.3969 419.6332,0.4124 422.4749,0.4280 425.3180,0.4439 428.1625,0.4599 431.0084,0.4762 433.8556,0.4926 436.7042,0.5093 439.5542,0.5261 442.4055,0.5431 445.2583,0.5603 448.1124,0.5776 450.9679,0.5951 453.8248,0.6128 456.6830,0.6307 459.5427,0.6486 462.4037,0.6668 465.2661,0.6850 468.1299,0.7034 470.9951,0.7220 473.8617,0.7407 476.7297,0.7594 479.5990,0.7783 482.4698,0.7974 485.3420,0.8165 488.2155,0.8357 491.0905,0.8551 493.9669,0.8745 496.8447,0.8940 499.7239,0.9136 502.6045,0.9333 505.4865,0.9531 508.3699,0.9729 511.2548,0.9928 514.1410,1.0127 517.0287,1.0327 519.9179,1.0528 522.8084,1.0729 525.7004,1.0931 528.5939,1.1133 531.4887,1.1335 534.3850,1.1538 537.2828,1.1741 540.1820,1.1944 543.0826,1.2147 545.9848,1.2350 548.8883,1.2554 551.7934,1.2757 554.6999,1.2960 557.6079,1.3164 560.5173,1.3367 563.4282,1.3570 566.3406,1.3773 569.2545,1.3975 572.1699,1.4178 575.0868,1.4380 578.0052,1.4581 580.9251,1.4782 583.8465,1.4983 586.7694,1.5183 589.6939,1.5383 592.6198,1.5582 595.5473,1.5780 598.4763,1.5978 601.4069,1.6175 604.3390,1.6371 607.2726,1.6566 610.2078,1.6761 613.1446,1.6954 616.0829,1.7147 619.0228,1.7338 621.9643,1.7529 624.9073,1.7719 627.8520,1.7907 630.7982,1.8094 633.7460,1.8280 636.6955,1.8465 639.6465,1.8649 642.5992,1.8831 645.5535,1.9012 648.5094,1.9191 651.4669,1.9369 654.4261,1.9546 657.3870,1.9721 660.3495,1.9894 663.3136,2.0066 666.2795,2.0236 669.2470,2.0404 672.2161,2.0571 675.1870,2.0736 678.1596,2.0899 681.1339,2.1061 684.1099,2.1220 687.0876,2.1378 690.0670,2.1533 693.0482,2.1687 696.0311,2.1838 699.0158,2.1988 702.0022,2.2135 704.9904,2.2280 707.9804,2.2423 710.9721,2.2564 713.9656,2.2702 716.9610,2.2838 719.9581,2.2972 722.9571,2.3104 725.9578,2.3233 728.9604,2.3359 731.9649,2.3483 734.9712,2.3605 737.9793,2.3724 740.9894,2.3841 744.0013,2.3954 747.0150,2.4066 750.0307,2.4174 753.0483,2.4280 756.0678,2.4383 759.0892,2.4483 762.1126,2.4581 765.1379,2.4675 768.1651,2.4767 771.1943,2.4856 774.2255,2.4941 777.2586,2.5024 780.2938,2.5104 783.3309,2.5180 786.3701,2.5254 789.4112,2.5325 792.4544,2.5392 795.4997,2.5456 798.5470,2.5517 801.5964,2.5575 804.6478,2.5629 807.7013,2.5680 810.7569,2.5728 813.8147,2.5773 816.8745,2.5814 819.9365,2.5851 823.0006,2.5885 826.0669,2.5916 829.1353,2.5943 832.2059,2.5967 835.2787,2.5987 838.3537,2.6004 841.4309,2.6017 844.5103,2.6026 847.5919,2.6031 850.6758,2.6033 853.7619,2.6032 856.8504,2.6026 859.9411,2.6017 863.0340,2.6004 866.1293,2.5987 869.2269,2.5966 872.3269,2.5941 875.4292,2.5913 878.5338,2.5880 881.6408,2.5844 884.7502,2.5804 887.8620,2.5759 890.9762,2.5711 894.0928,2.5659 897.2119,2.5602 900.3334,2.5542 903.4573,2.5477 906.5837,2.5409 909.7127,2.5336 912.8441,2.5259 915.9780,2.5178 919.1145,2.5092 922.2535,2.5003 925.3950,2.4909 928.5392,2.4811 931.6859,2.4709 934.8352,2.4603 937.9871,2.4492 941.1417,2.4377 944.2989,2.4257 947.4587,2.4133 950.6212,2.4005 953.7865,2.3873 956.9544,2.3736 960.1250,2.3595 963.2983,2.3449 966.4744,2.3299 969.6533,2.3144 972.8349,2.2985 976.0194,2.2821 979.2066,2.2653 982.3966,2.2481 985.5895,2.2304 988.7853,2.2122 991.9839,2.1936 995.1854,2.1746 998.3897,2.1550 1001.5971,2.1351 1004.8073,2.1146 1008.0205,2.0938 1011.2366,2.0724 1014.4557,2.0506 1017.6779,2.0284 1020.9030,2.0056 1024.1311,1.9824 1027.3623,1.9588 1030.5966,1.9347 1033.8340,1.9101 1037.0744,1.8851 1040.3179,1.8596 1043.5646,1.8336 1046.8144,1.8072 1050.0674,1.7803 1053.3236,1.7530 1056.5829,1.7251 1059.8455,1.6969 1063.1113,1.6681 1066.3803,1.6389 1069.6526,1.6092 1072.9282,1.5791 1076.2071,1.5485 1079.4893,1.5174 1082.7749,1.4859 1086.0638,1.4539 1089.3560,1.4214 1092.6517,1.3885 1095.9507,1.3551 1099.2532,1.3212 1102.5592,1.2869 1105.8685,1.2521 1109.1814,1.2169 1112.4978,1.1812 1115.8177,1.1451 1119.1411,1.1085 1122.4681,1.0714 1125.7986,1.0339 1129.1327,0.9959 1132.4705,0.9575 1135.8118,0.9186 1139.1568,0.8792 1142.5055,0.8394 1145.8579,0.7992 1149.2139,0.7585 1152.5737,0.7174 1155.9373,0.6758 1159.3046,0.6338 1162.6756,0.5913 1166.0505,0.5484 1169.4292,0.5051 1172.8117,0.4613 1176.1981,0.4171 1179.5883,0.3725 1182.9825,0.3274 1186.3806,0.2819 1189.7826,0.2360 1193.1885,0.1896 1196.5985,0.1428 1200.0124,0.0956 1203.4304,0.0480 1206.8524,0.0000 1235.1988,0.0000 1235.1988,141.7322 1206.8524,141.7322 1203.4304,141.6842 1200.0124,141.6366 1196.5985,141.5894 1193.1885,141.5426 1189.7826,141.4962 1186.3806,141.4503 1182.9825,141.4048 1179.5883,141.3597 1176.1981,141.3151 1172.8117,141.2709 1169.4292,141.2271 1166.0505,141.1838 1162.6756,141.1409 1159.3046,141.0984 1155.9373,141.0564 1152.5737,141.0148 1149.2139,140.9737 1145.8579,140.9330 1142.5055,140.8928 1139.1568,140.8530 1135.8118,140.8136 1132.4705,140.7747 1129.1327,140.7363 1125.7986,140.6983 1122.4681,140.6608 1119.1411,140.6237 1115.8177,140.5871 1112.4978,140.5510 1109.1814,140.5153 1105.8685,140.4800 1102.5592,140.4453 1099.2532,140.4110 1095.9507,140.3771 1092.6517,140.3437 1089.3560,140.3108 1086.0638,140.2783 1082.7749,140.2463 1079.4893,140.2148 1076.2071,140.1837 1072.9282,140.1531 1069.6526,140.1230 1066.3803,140.0933 1063.1113,140.0641 1059.8455,140.0353 1056.5829,140.0070 1053.3236,139.9792 1050.0674,139.9519 1046.8144,139.9250 1043.5646,139.8986 1040.3179,139.8726 1037.0744,139.8471 1033.8340,139.8221 1030.5966,139.7975 1027.3623,139.7734 1024.1311,139.7497 1020.9030,139.7266 1017.6779,139.7038 1014.4557,139.6816 1011.2366,139.6598 1008.0205,139.6384 1004.8073,139.6175 1001.5971,139.5971 998.3897,139.5771 995.1854,139.5576 991.9839,139.5386 988.7853,139.5200 985.5895,139.5018 982.3966,139.4841 979.2066,139.4669 976.0194,139.4500 972.8349,139.4337 969.6533,139.4178 966.4744,139.4023 963.2983,139.3873 960.1250,139.3727 956.9544,139.3586 953.7865,139.3449 950.6212,139.3317 947.4587,139.3188 944.2989,139.3065 941.1417,139.2945 937.9871,139.2830 934.8352,139.2719 931.6859,139.2613 928.5392,139.2511 925.3950,139.2413 922.2535,139.2319 919.1145,139.2229 915.9780,139.2144 912.8441,139.2063 909.7127,139.1986 906.5837,139.1913 903.4573,139.1845 900.3334,139.1780 897.2119,139.1720 894.0928,139.1663 890.9762,139.1611 887.8620,139.1563 884.7502,139.1518 881.6408,139.1478 878.5338,139.1442 875.4292,139.1409 872.3269,139.1381 869.2269,139.1356 866.1293,139.1335 863.0340,139.1318 859.9411,139.1305 856.8504,139.1296 853.7619,139.1290 850.6758,139.1289 847.5919,139.1291 844.5103,139.1296 841.4309,139.1305 838.3537,139.1318 835.2787,139.1335 832.2059,139.1355 829.1353,139.1379 826.0669,139.1406 823.0006,139.1437 819.9365,139.1471 816.8745,139.1508 813.8147,139.1549 810.7569,139.1594 807.7013,139.1642 804.6478,139.1693 801.5964,139.1747 798.5470,139.1805 795.4997,139.1866 792.4544,139.1930 789.4112,139.1997 786.3701,139.2068 783.3309,139.2141 780.2938,139.2218 777.2586,139.2298 774.2255,139.2381 771.1943,139.2466 768.1651,139.2555 765.1379,139.2647 762.1126,139.2741 759.0892,139.2839 756.0678,139.2939 753.0483,139.3042 750.0307,139.3148 747.0150,139.3256 744.0013,139.3367 740.9894,139.3481 737.9793,139.3598 734.9712,139.3717 731.9649,139.3838 728.9604,139.3963 725.9578,139.4089 722.9571,139.4218 719.9581,139.4350 716.9610,139.4484 713.9656,139.4620 710.9721,139.4758 707.9804,139.4899 704.9904,139.5042 702.0022,139.5187 699.0158,139.5334 696.0311,139.5484 693.0482,139.5635 690.0670,139.5789 687.0876,139.5944 684.1099,139.6102 681.1339,139.6261 678.1596,139.6423 675.1870,139.6586 672.2161,139.6751 669.2470,139.6918 666.2795,139.7086 663.3136,139.7256 660.3495,139.7428 657.3870,139.7601 654.4261,139.7776 651.4669,139.7953 648.5094,139.8131 645.5535,139.8310 642.5992,139.8491 639.6465,139.8673 636.6955,139.8857 633.7460,139.9042 630.7982,139.9228 627.8520,139.9415 624.9073,139.9603 621.9643,139.9793 619.0228,139.9983 616.0829,140.0175 613.1446,140.0368 610.2078,140.0561 607.2726,140.0756 604.3390,140.0951 601.4069,140.1147 598.4763,140.1344 595.5473,140.1542 592.6198,140.1740 589.6939,140.1939 586.7694,140.2139 583.8465,140.2339 580.9251,140.2540 578.0052,140.2741 575.0868,140.2942 572.1699,140.3144 569.2545,140.3347 566.3406,140.3549 563.4282,140.3752 560.5173,140.3955 557.6079,140.4158 554.6999,140.4362 551.7934,140.4565 548.8883,140.4768 545.9848,140.4972 543.0826,140.5175 540.1820,140.5378 537.2828,140.5581 534.3850,140.5784 531.4887,140.5987 528.5939,140.6189 525.7004,140.6391 522.8084,140.6593 519.9179,140.6794 517.0287,140.6994 514.1410,140.7195 511.2548,140.7394 508.3699,140.7593 505.4865,140.7791 502.6045,140.7989 499.7239,140.8186 496.8447,140.8382 493.9669,140.8577 491.0905,140.8771 488.2155,140.8965 485.3420,140.9157 482.4698,140.9348 479.5990,140.9538 476.7297,140.9728 473.8617,140.9915 470.9951,141.0102 468.1299,141.0288 465.2661,141.0472 462.4037,141.0654 459.5427,141.0836 456.6830,141.1015 453.8248,141.1194 450.9679,141.1370 448.1124,141.1546 445.2583,141.1719 442.4055,141.1891 439.5542,141.2061 436.7042,141.2229 433.8556,141.2396 431.0084,141.2560 428.1625,141.2723 425.3180,141.2883 422.4749,141.3042 419.6332,141.3198 416.7929,141.3353 413.9539,141.3505 411.1163,141.3655 408.2800,141.3802 405.4452,141.3948 402.6117,141.4091 399.7796,141.4231 396.9488,141.4369 394.1194,141.4505 391.2914,141.4638 388.4648,141.4768 385.6395,141.4896 382.8157,141.5021 379.9932,141.5143 377.1720,141.5263 374.3523,141.5379 371.5339,141.5493 368.7169,141.5604 365.9012,141.5711 363.0870,141.5816 360.2741,141.5918 357.4626,141.6016 354.6525,141.6112 351.8438,141.6204 349.0365,141.6292 346.2305,141.6378 343.4260,141.6460 340.6228,141.6539 337.8210,141.6614 335.0206,141.6686 332.2216,141.6754 329.4240,141.6818 326.6278,141.6879 323.8330,141.6936 321.0395,141.6990 318.2475,141.7040 315.4569,141.7085 312.6677,141.7127 309.8799,141.7165 307.0935,141.7199 304.3086,141.7229 301.5250,141.7255 298.7429,141.7277 295.9622,141.7294 293.1829,141.7308 290.4050,141.7317 287.6286,141.7322 284.8535,141.7322 282.0800,141.7318 279.3078,141.7310 276.5371,141.7297 273.7678,141.7279 271.0000,141.7257 268.2336,141.7231 265.4687,141.7199 262.7052,141.7163 259.9432,141.7122 257.1827,141.7077 254.4236,141.7026 251.6660,141.6971 248.9098,141.6911 246.1551,141.6846 243.4019,141.6775 240.6502,141.6700 237.9000,141.6619 235.1512,141.6534 232.4040,141.6443 229.6582,141.6347 226.9139,141.6245 224.1712,141.6139 221.4299,141.6027 218.6902,141.5909 215.9520,141.5786 213.2153,141.5658 210.4801,141.5524 207.7464,141.5384 205.0143,141.5239 202.2837,141.5088 199.5547,141.4931 196.8272,141.4769 194.1013,141.4601 191.3769,141.4427 188.6541,141.4247 185.9328,141.4061 183.2131,141.3870 180.4950,141.3672 177.7785,141.3468 175.0635,141.3258 172.3502,141.3042 169.6384,141.2820 166.9282,141.2592 164.2197,141.2357 161.5127,141.2116 158.8074,141.1869 156.1037,141.1616 153.4016,141.1356 150.7011,141.1089 148.0023,141.0817 145.3051,141.0537 142.6096,141.0252 139.9157,140.9959 137.2235,140.9660 134.5329,140.9354 131.8440,140.9042 129.1568,140.8723 126.4713,140.8397 123.7874,140.8065 121.1053,140.7725 118.4248,140.7379 115.7461,140.7026 113.0690,140.6666 110.3937,140.6298 107.7201,140.5924 105.0483,140.5543 102.3781,140.5155 99.7097,140.4760 97.0431,140.4357 94.3782,140.3948 91.7151,140.3531 89.0538,140.3107 86.3942,140.2675 83.7364,140.2237 81.0804,140.1791 78.4262,140.1338 75.7738,140.0877 73.1232,140.0409 70.4744,139.9933 67.8274,139.9450 65.1823,139.8960 62.5390,139.8462 59.8975,139.7956 57.2579,139.7443 54.6202,139.6922 51.9843,139.6394 49.3503,139.5857 46.7182,139.5314 44.0879,139.4762 41.4596,139.4203 38.8331,139.3635 36.2086,139.3061 33.5859,139.2478 30.9652,139.1887 28.3464,139.1289 0.0000,139.1289 0.0000,2.6033" stroke="black" fill="none"/>
</svg>