<svg width="889.9898" height="141.7322" xmlns="http://www.w3.org/2000/svg">
<polyline points="0.0000,0.0000 28.3464,0.0000 30.3980,0.0000 32.4595,0.0000 34.5310,0.0000 36.6122,0.0000 38.7031,0.0000 40.8034,0.0000 42.9132,0.0000 45.0322,0.0000 47.1603,0.0000 49.2974,0.0000 51.4433,0.0000 53.5979,0.0000 55.7612,0.0000 57.9329,0.0000 60.1129,0.0000 62.3011,0.0000 64.4973,0.0000 66.7014,0.0000 68.9133,0.0000 71.1329,0.0000 73.3600,0.0000 75.5944,0.0000 77.8361,0.0000 80.0848,0.0000 82.3406,0.0000 84.6031,0.0000 86.8724,0.0000 89.1482,0.0000 91.4304,0.0000 93.7188,0.0000 96.0134,0.0000 98.3141,0.0000 100.6205,0.0000 102.9327,0.0000 105.2505,0.0000 107.5737,0.0000 109.9023,0.0000 112.2360,0.0000 114.5747,0.0000 116.9183,0.0000 119.2667,0.0000 121.6197,0.0000 123.9772,0.0000 126.3390,0.0000 128.7050,0.0000 131.0750,0.0000 133.4490,0.0000 135.8268,0.0000 138.2082,0.0000 140.5930,0.0000 142.9813,0.0000 145.3728,0.0000 147.7673,0.0000 150.1648,0.0000 152.5651,0.0000 154.9681,0.0000 157.3736,0.0000 159.7815,0.0000 162.1916,0.0000 164.6038,0.0000 167.0180,0.0000 169.4340,0.0000 171.8517,0.0000 174.2710,0.0000 176.6917,0.0000 179.1136,0.0000 181.5367,0.0000 183.9608,0.0000 186.3857,0.0000 188.8114,0.0000 191.2376,0.0000 193.6643,0.0000 196.0912,0.0000 198.5184,0.0000 200.9455,0.0000 203.3726,0.0000 205.7994,0.0000 208.2258,0.0000 210.6517,0.0000 213.0769,0.0000 215.5013,0.0000 217.9248,0.0000 220.3472,0.0000 222.7684,0.0000 225.1883,0.0000 227.6067,0.0000 230.0235,0.0000 232.4385,0.0000 234.8516,0.0000 237.2627,0.0000 239.6716,0.0000 242.0783,0.0000 244.4825,0.0000 246.8842,0.0000 249.2831,0.0000 251.6793,0.0000 254.0724,0.0000 256.4625,0.0000 258.8493,0.0000 261.2328,0.0000 263.6128,0.0000 265.9892,0.0000 268.3618,0.0000 270.7305,0.0000 273.0952,0.0000 275.4557,0.0000 277.8120,0.0000 280.1638,0.0000 282.5111,0.0000 284.8538,0.0000 287.1917,0.0000 289.5246,0.0000 291.8525,0.0000 294.1752,0.0000 296.4926,0.0000 298.8046,0.0000 301.1110,0.0000 303.4117,0.0000 305.7067,0.0000 307.9957,0.0000 310.2786,0.0000 312.5554,0.0000 314.8259,0.0000 317.0900,0.0000 319.3476,0.0000 321.5985,0.0000 323.8426,0.0000 326.0799,0.0000 328.3101,0.0000 330.5332,0.0000 332.7491,0.0000 334.9576,0.0000 337.1586,0.0000 339.3521,0.0000 341.5379,0.0000 343.7158,0.0000 345.8859,0.0000 348.0479,0.0000 350.2018,0.0000 352.3475,0.0000 354.4848,0.0000 356.6137,0.0000 358.7340,0.0000 360.8456,0.0000 362.9485,0.0000 365.0426,0.0000 367.1277,0.0000 369.2037,0.0000 371.2706,0.0000 373.3282,0.0000 375.3765,0.0000 377.4154,0.0000 379.4448,0.0000 381.4646,0.0000 383.4746,0.0000 385.4750,0.0000 387.4654,0.0000 389.4459,0.0000 391.4164,0.0000 393.3769,0.0000 395.3271,0.0000 397.2672,0.0000 399.1969,0.0000 401.1162,0.0000 403.0251,0.0000 404.9236,0.0000 406.8114,0.0000 408.6887,0.0000 410.5553,0.0000 412.4111,0.0000 414.2562,0.0000 416.0905,0.0000 417.9139,0.0000 419.7265,0.0000 421.5281,0.0000 423.3188,0.0000 425.0984,0.0000 426.8671,0.0000 428.6247,0.0000 430.3713,0.0000 432.1069,0.0000 433.8313,0.0000 435.5448,0.0000 437.2471,0.0000 438.9384,0.0000 440.6187,0.0000 442.2879,0.0000 443.9462,0.0000 445.5934,0.0000 447.2298,0.0000 448.8552,0.0000 450.4698,0.0000 452.0736,0.0000 453.6667,0.0000 455.2490,0.0000 456.8208,0.0000 458.3821,0.0000 459.9330,0.0000 461.4736,0.0000 463.0039,0.0000 464.5243,0.0000 466.0351,0.0000 467.5369,0.0000 469.0300,0.0000 470.5149,0.0000 471.9919,0.0000 473.4615,0.0000 474.9240,0.0000 476.3799,0.0000 477.8295,0.0000 479.2732,0.0000 480.7114,0.0000 482.1444,0.0000 483.5726,0.0000 484.9963,0.0000 486.4158,0.0000 487.8316,0.0000 489.2438,0.0000 490.6529,0.0000 492.0591,0.0000 493.4628,0.0000 494.8641,0.0000 496.2634,0.0000 497.6610,0.0000 499.0570,0.0000 500.4519,0.0000 501.8457,0.0000 503.2389,0.0000 504.6315,0.0000 506.0238,0.0000 507.4160,0.0000 508.8083,0.0000 510.2010,0.0000 511.5941,0.0000 512.9880,0.0000 514.3827,0.0000 515.7785,0.0000 517.1755,0.0000 518.5738,0.0000 519.9737,0.0000 521.3752,0.0000 522.7785,0.0000 524.1838,0.0000 525.5911,0.0000 527.0007,0.0000 528.4125,0.0000 529.8267,0.0000 531.2435,0.0000 532.6629,0.0000 534.0851,0.0000 535.5101,0.0000 536.9380,0.0000 538.3690,0.0000 539.8031,0.0000 541.2403,0.0000 542.6809,0.0000 544.1248,0.0000 545.5722,0.0000 547.0231,0.0000 548.4776,0.0000 549.9358,0.0000 551.3978,0.0000 552.8636,0.0000 554.3332,0.0000 555.8069,0.0000 557.2846,0.0000 558.7664,0.0000 560.2525,0.0000 561.7427,0.0000 563.2374,0.0000 564.7364,0.0000 566.2400,0.0000 567.7481,0.0000 569.2609,0.0000 570.7784,0.0000 572.3007,0.0000 573.8279,0.0000 575.3602,0.0000 576.8975,0.0000 578.4399,0.0000 579.9877,0.0000 581.5408,0.0000 583.0994,0.0000 584.6635,0.0000 586.2333,0.0000 587.8090,0.0000 589.3905,0.0000 590.9780,0.0000 592.5717,0.0000 594.1717,0.0000 595.7781,0.0000 597.3910,0.0000 599.0106,0.0000 600.6371,0.0000 602.2705,0.0000 603.9110,0.0000 605.5588,0.0000 607.2141,0.0000 608.8769,0.0000 610.5476,0.0000 612.2262,0.0000 613.9130,0.0000 615.6081,0.0000 617.3118,0.0000 619.0241,0.0000 620.7454,0.0000 622.4759,0.0000 624.2157,0.0000 625.9650,0.0000 627.7241,0.0000 629.4933,0.0000 631.2727,0.0000 633.0627,0.0000 634.8633,0.0000 636.6750,0.0000 638.4978,0.0000 640.3322,0.0000 642.1784,0.0000 644.0366,0.0000 645.9071,0.0000 647.7902,0.0000 649.6861,0.0000 651.5953,0.0000 653.5178,0.0000 655.4542,0.0000 657.4046,0.0000 659.3693,0.0000 661.3487,0.0000 663.3431,0.0000 665.3528,0.0000 667.3781,0.0000 669.4193,0.0000 671.4768,0.0000 673.5509,0.0000 675.6420,0.0000 677.7504,0.0000 679.8764,0.0000 682.0203,0.0000 684.1826,0.0000 686.3635,0.0000 688.5635,0.0000 690.7828,0.0000 693.0219,0.0000 695.2811,0.0000 697.5608,0.0000 699.8612,0.0000 702.1829,0.0000 704.5262,0.0000 706.8914,0.0000 709.2790,0.0000 711.6892,0.0000 714.1225,0.0000 716.5792,0.0000 719.0598,0.0000 721.5646,0.0000 724.0940,0.0000 726.6483,0.0000 729.2281,0.0000 731.8335,0.0000 734.4651,0.0000 737.1233,0.0000 739.8083,0.0000 742.5207,0.0000 745.2607,0.0000 748.0288,0.0000 750.8254,0.0000 753.6508,0.0000 756.5055,0.0000 759.3899,0.0000 762.3042,0.0000 765.2490,0.0000 768.2246,0.0000 771.2315,0.0000 774.2699,0.0000 777.3403,0.0000 780.4431,0.0000 783.5787,0.0000 786.7474,0.0000 789.9497,0.0000 793.1860,0.0000 796.4566,0.0000 799.7619,0.0000 803.1024,0.0000 806.4783,0.0000 809.8902,0.0000 813.3383,0.0000 816.8232,0.0000 820.3451,0.0000 823.9044,0.0000 827.5016,0.0000 831.1371,0.0000 834.8111,0.0000 838.5242,0.0000 842.2767,0.0000 846.0689,0.0000 849.9013,0.0000 853.7742,0.0000 857.6881,0.0000 861.6433,0.0000 889.9898,0.0000 889.9898,141.7322 861.6433,141.7322 857.6881,141.7322 853.7742,141.7322 849.9013,141.7322 846.0689,141.7322 842.2767,141.7322 838.5242,141.7322 834.8111,141.7322 831.1371,141.7322 827.5016,141.7322 823.9044,141.7322 820.3451,141.7322 816.8232,141.7322 813.3383,141.7322 809.8902,141.7322 806.4783,141.7322 803.1024,141.7322 799.7619,141.7322 796.4566,141.7322 793.1860,141.7322 789.9497,141.7322 786.7474,141.7322 783.5787,141.7322 780.4431,141.7322 777.3403,141.7322 774.2699,141.7322 771.2315,141.7322 768.2246,141.7322 765.2490,141.7322 762.3042,141.7322 759.3899,141.7322 756.5055,141.7322 753.6508,141.7322 750.8254,141.7322 748.0288,141.7322 745.2607,141.7322 742.5207,141.7322 739.8083,141.7322 737.1233,141.7322 734.4651,141.7322 731.8335,141.7322 729.2281,141.7322 726.6483,141.7322 724.0940,141.7322 721.5646,141.7322 719.0598,141.7322 716.5792,141.7322 714.1225,141.7322 711.6892,141.7322 709.2790,141.7322 706.8914,141.7322 704.5262,141.7322 702.1829,141.7322 699.8612,141.7322 697.5608,141.7322 695.2811,141.7322 693.0219,141.7322 690.7828,141.7322 688.5635,141.7322 686.3635,141.7322 684.1826,141.7322 682.0203,141.7322 679.8764,141.7322 677.7504,141.7322 675.6420,141.7322 673.5509,141.7322 671.4768,141.7322 669.4193,141.7322 667.3781,141.7322 665.3528,141.7322 663.3431,141.7322 661.3487,141.7322 659.3693,141.7322 657.4046,141.7322 655.4542,141.7322 653.5178,141.7322 651.5953,141.7322 649.6861,141.7322 647.7902,141.7322 645.9071,141.7322 644.0366,141.7322 642.1784,141.7322 640.3322,141.7322 638.4978,141.7322 636.6750,141.7322 634.8633,141.7322 633.0627,141.7322 631.2727,141.7322 629.4933,141.7322 627.7241,141.7322 625.9650,141.7322 624.2157,141.7322 622.4759,141.7322 620.7454,141.7322 619.0241,141.7322 617.3118,141.7322 615.6081,141.7322 613.9130,141.7322 612.2262,141.7322 610.5476,141.7322 608.8769,141.7322 607.2141,141.7322 605.5588,141.7322 603.9110,141.7322 602.2705,141.7322 600.6371,141.7322 599.0106,141.7322 597.3910,141.7322 595.7781,141.7322 594.1717,141.7322 592.5717,141.7322 590.9780,141.7322 589.3905,141.7322 587.8090,141.7322 586.2333,141.7322 584.6635,141.7322 583.0994,141.7322 581.5408,141.7322 579.9877,141.7322 578.4399,141.7322 576.8975,141.7322 575.3602,141.7322 573.8279,141.7322 572.3007,141.7322 570.7784,141.7322 569.2609,141.7322 567.7481,141.7322 566.2400,141.7322 564.7364,141.7322 563.2374,141.7322 561.7427,141.7322 560.2525,141.7322 558.7664,141.7322 557.2846,141.7322 555.8069,141.7322 554.3332,141.7322 552.8636,141.7322 551.3978,141.7322 549.9358,141.7322 548.4776,141.7322 547.0231,141.7322 545.5722,141.7322 544.1248,141.7322 542.6809,141.7322 541.2403,141.7322 539.8031,141.7322 538.3690,141.7322 536.9380,141.7322 535.5101,141.7322 534.0851,141.7322 532.6629,141.7322 531.2435,141.7322 529.8267,141.7322 528.4125,141.7322 527.0007,141.7322 525.5911,141.7322 524.1838,141.7322 522.7785,141.7322 521.3752,141.7322 519.9737,141.7322 518.5738,141.7322 517.1755,141.7322 515.7785,141.7322 514.3827,141.7322 512.9880,141.7322 511.5941,141.7322 510.2010,141.7322 508.8083,141.7322 507.4160,141.7322 506.0238,141.7322 504.6315,141.7322 503.2389,141.7322 501.8457,141.7322 500.4519,141.7322 499.0570,141.7322 497.6610,141.7322 496.2634,141.7322 494.8641,141.7322 493.4628,141.7322 492.0591,141.7322 490.6529,141.7322 489.2438,141.7322 487.8316,141.7322 486.4158,141.7322 484.9963,141.7322 483.5726,141.7322 482.1444,141.7322 480.7114,141.7322 479.2732,141.7322 477.8295,141.7322 476.3799,141.7322 474.9240,141.7322 473.4615,141.7322 471.9919,141.7322 470.5149,141.7322 469.0300,141.7322 467.5369,141.7322 466.0351,141.7322 464.5243,141.7322 463.0039,141.7322 461.4736,141.7322 459.9330,141.7322 458.3821,141.7322 456.8208,141.7322 455.2490,141.7322 453.6667,141.7322 452.0736,141.7322 450.4698,141.7322 448.8552,141.7322 447.2298,141.7322 445.5934,141.7322 443.9462,141.7322 442.2879,141.7322 440.6187,141.7322 438.9384,141.7322 437.2471,141.7322 435.5448,141.7322 433.8313,141.7322 432.1069,141.7322 430.3713,141.7322 428.6247,141.7322 426.8671,141.7322 425.0984,141.7322 423.3188,141.7322 421.5281,141.7322 419.7265,141.7322 417.9139,141.7322 416.0905,141.7322 414.2562,141.7322 412.4111,141.7322 410.5553,141.7322 408.6887,141.7322 406.8114,141.7322 404.9236,141.7322 403.0251,141.7322 401.1162,141.7322 399.1969,141.7322 397.2672,141.7322 395.3271,141.7322 393.3769,141.7322 391.4164,141.7322 389.4459,141.7322 387.4654,141.7322 385.4750,141.7322 383.4746,141.7322 381.4646,141.7322 379.4448,141.7322 377.4154,141.7322 375.3765,141.7322 373.3282,141.7322 371.2706,141.7322 369.2037,141.7322 367.1277,141.7322 365.0426,141.7322 362.9485,141.7322 360.8456,141.7322 358.7340,141.7322 356.6137,141.7322 354.4848,141.7322 352.3475,141.7322 350.2018,141.7322 348.0479,141.7322 345.8859,141.7322 343.7158,141.7322 341.5379,141.7322 339.3521,141.7322 337.1586,141.7322 334.9576,141.7322 332.7491,141.7322 330.5332,141.7322 328.3101,141.7322 326.0799,141.7322 323.8426,141.7322 321.5985,141.7322 319.3476,141.7322 317.0900,141.7322 314.8259,141.7322 312.5554,141.7322 310.2786,141.7322 307.9957,141.7322 305.7067,141.7322 303.4117,141.7322 301.1110,141.7322 298.8046,141.7322 296.4926,141.7322 294.1752,141.7322 291.8525,141.7322 289.5246,141.7322 287.1917,141.7322 284.8538,141.7322 282.5111,141.7322 280.1638,141.7322 277.8120,141.7322 275.4557,141.7322 273.0952,141.7322 270.7305,141.7322 268.3618,141.7322 265.9892,141.7322 263.6128,141.7322 261.2328,141.7322 258.8493,141.7322 256.4625,141.7322 254.0724,141.7322 251.6793,141.7322 249.2831,141.7322 246.8842,141.7322 244.4825,141.7322 242.0783,141.7322 239.6716,141.7322 237.2627,141.7322 234.8516,141.7322 232.4385,141.7322 230.0235,141.7322 227.6067,141.7322 225.1883,141.7322 222.7684,141.7322 220.3472,141.7322 217.9248,141.7322 215.5013,141.7322 213.0769,141.7322 210.6517,141.7322 208.2258,141.7322 205.7994,141.7322 203.3726,141.7322 200.9455,141.7322 198.5184,141.7322 196.0912,141.7322 193.6643,141.7322 191.2376,141.7322 188.8114,141.7322 186.3857,141.7322 183.9608,141.7322 181.5367,141.7322 179.1136,141.7322 176.6917,141.7322 174.2710,141.7322 171.8517,141.7322 169.4340,141.7322 167.0180,141.7322 164.6038,141.7322 162.1916,141.7322 159.7815,141.7322 157.3736,141.7322 154.9681,141.7322 152.5651,141.7322 150.1648,141.7322 147.7673,141.7322 145.3728,141.7322 142.9813,141.7322 140.5930,141.7322 138.2082,141.7322 135.8268,141.7322 133.4490,141.7322 131.0750,141.7322 128.7050,141.7322 126.3390,141.7322 123.9772,141.7322 121.6197,141.7322 119.2667,141.7322 116.9183,141.7322 114.5747,141.7322 112.2360,141.7322 109.9023,141.7322 107.5737,141.7322 105.2505,141.7322 102.9327,141.7322 100.6205,141.7322 98.3141,141.7322 96.0134,141.7322 93.7188,141.7322 91.4304,141.7322 89.1482,141.7322 86.8724,141.7322 84.6031,141.7322 82.3406,141.7322 80.0848,141.7322 77.8361,141.7322 75.5944,141.7322 73.3600,141.7322 71.1329,141.7322 68.9133,141.7322 66.7014,141.7322 64.4973,141.7322 62.3011,141.7322 60.1129,141.7322 57.9329,141.7322 55.7612,141.7322 53.5979,141.7322 51.4433,141.7322 49.2974,141.7322 47.1603,141.7322 45.0322,141.7322 42.9132,141.7322 40.8034,141.7322 38.7031,141.7322 36.6122,141.7322 34.5310,141.7322 32.4595,141.7322 30.3980,141.7322 28.3464,141.7322 0.0000,141.7322 0.0000,0.0000" stroke="black" fill="none"/>
</svg>