<svg width="897.2578" height="NaN" xmlns="http://www.w3.org/2000/svg">
<polyline points="0.0000,NaN 28.3464,NaN 30.6393,NaN 32.9265,NaN 35.2080,NaN 37.4837,NaN 39.7535,NaN 42.0173,NaN 44.2751,NaN 46.5268,NaN 48.7723,NaN 51.0115,NaN 53.2445,NaN 55.4711,NaN 57.6914,NaN 59.9052,NaN 62.1126,NaN 64.3135,NaN 66.5080,NaN 68.6959,NaN 70.8773,NaN 73.0522,NaN 75.2206,NaN 77.3824,NaN 79.5378,NaN 81.6867,NaN 83.8292,NaN 85.9653,NaN 88.0950,NaN 90.2183,NaN 92.3354,NaN 94.4463,NaN 96.5510,NaN 98.6496,NaN 100.7421,NaN 102.8288,NaN 104.9095,NaN 106.9845,NaN 109.0538,NaN 111.1176,NaN 113.1759,NaN 115.2288,NaN 117.2765,NaN 119.3191,NaN 121.3568,NaN 123.3896,NaN 125.4177,NaN 127.4413,NaN 129.4605,NaN 131.4755,NaN 133.4865,NaN 135.4935,NaN 137.4969,NaN 139.4968,NaN 141.4934,NaN 143.4867,NaN 145.4770,NaN 147.4643,NaN 149.4489,NaN 151.4307,NaN 153.4099,NaN 155.3865,NaN 157.3607,NaN 159.3324,NaN 161.3018,NaN 163.2688,NaN 165.2335,NaN 167.1959,NaN 169.1560,NaN 171.1139,NaN 173.0694,NaN 175.0226,NaN 176.9734,NaN 178.9219,NaN 180.8679,NaN 182.8114,NaN 184.7523,NaN 186.6907,NaN 188.6263,NaN 190.5593,NaN 192.4893,NaN 194.4165,NaN 196.3407,NaN 198.2617,NaN 200.1796,NaN 202.0943,NaN 204.0055,NaN 205.9134,NaN 207.8177,NaN 209.7184,NaN 211.6154,NaN 213.5087,NaN 215.3981,NaN 217.2836,NaN 219.1653,NaN 221.0429,NaN 222.9166,NaN 224.7863,NaN 226.6519,NaN 228.5136,NaN 230.3714,NaN 232.2253,NaN 234.0755,NaN 235.9219,NaN 237.7649,NaN 239.6046,NaN 241.4413,NaN 243.2752,NaN 245.1066,NaN 246.9359,NaN 248.7635,NaN 250.5898,NaN 252.4152,NaN 254.2402,NaN 256.0653,NaN 257.8910,NaN 259.7180,NaN 261.5466,NaN 263.3775,NaN 265.2114,NaN 267.0487,NaN 268.8902,NaN 270.7364,NaN 272.5879,NaN 274.4455,NaN 276.3095,NaN 278.1808,NaN 280.0599,NaN 281.9473,NaN 283.8436,NaN 285.7495,NaN 287.6653,NaN 289.5917,NaN 291.5292,NaN 293.4781,NaN 295.4389,NaN 297.4120,NaN 299.3979,NaN 301.3967,NaN 303.4089,NaN 305.4347,NaN 307.4744,NaN 309.5281,NaN 311.5959,NaN 313.6781,NaN 315.7747,NaN 317.8857,NaN 320.0112,NaN 322.1511,NaN 324.3052,NaN 326.4736,NaN 328.6560,NaN 330.8523,NaN 333.0622,NaN 335.2855,NaN 337.5219,NaN 339.7711,NaN 342.0330,NaN 344.3072,NaN 346.5934,NaN 348.8913,NaN 351.2006,NaN 353.5211,NaN 355.8523,NaN 358.1940,NaN 360.5459,NaN 362.9075,NaN 365.2786,NaN 367.6589,NaN 370.0481,NaN 372.4457,NaN 374.8515,NaN 377.2652,NaN 379.6863,NaN 382.1147,NaN 384.5500,NaN 386.9918,NaN 389.4398,NaN 391.8939,NaN 394.3535,NaN 396.8185,NaN 399.2885,NaN 401.7633,NaN 404.2425,NaN 406.7259,NaN 409.2133,NaN 411.7043,NaN 414.1987,NaN 416.6962,NaN 419.1966,NaN 421.6997,NaN 424.2052,NaN 426.7129,NaN 429.2226,NaN 431.7341,NaN 434.2472,NaN 436.7617,NaN 439.2774,NaN 441.7942,NaN 444.3119,NaN 446.8303,NaN 449.3493,NaN 451.8688,NaN 454.3886,NaN 456.9086,NaN 459.4287,NaN 461.9486,NaN 464.4683,NaN 466.9874,NaN 469.5059,NaN 472.0236,NaN 474.5402,NaN 477.0556,NaN 479.5696,NaN 482.0819,NaN 484.5923,NaN 487.1005,NaN 489.6065,NaN 492.1098,NaN 494.6103,NaN 497.1077,NaN 499.6017,NaN 502.0922,NaN 504.5788,NaN 507.0612,NaN 509.5392,NaN 512.0125,NaN 514.4809,NaN 516.9440,NaN 519.4015,NaN 521.8532,NaN 524.2988,NaN 526.7379,NaN 529.1704,NaN 531.5958,NaN 534.0139,NaN 536.4244,NaN 538.8270,NaN 541.2214,NaN 543.6073,NaN 545.9845,NaN 548.3526,NaN 550.7113,NaN 553.0605,NaN 555.3997,NaN 557.7288,NaN 560.0475,NaN 562.3555,NaN 564.6527,NaN 566.9387,NaN 569.2134,NaN 571.4765,NaN 573.7279,NaN 575.9674,NaN 578.1950,NaN 580.4104,NaN 582.6138,NaN 584.8051,NaN 586.9843,NaN 589.1515,NaN 591.3068,NaN 593.4503,NaN 595.5823,NaN 597.7028,NaN 599.8122,NaN 601.9106,NaN 603.9985,NaN 606.0760,NaN 608.1435,NaN 610.2014,NaN 612.2501,NaN 614.2899,NaN 616.3213,NaN 618.3447,NaN 620.3606,NaN 622.3693,NaN 624.3714,NaN 626.3673,NaN 628.3576,NaN 630.3426,NaN 632.3228,NaN 634.2987,NaN 636.2708,NaN 638.2395,NaN 640.2053,NaN 642.1685,NaN 644.1296,NaN 646.0890,NaN 648.0470,NaN 650.0040,NaN 651.9603,NaN 653.9163,NaN 655.8721,NaN 657.8280,NaN 659.7842,NaN 661.7409,NaN 663.6983,NaN 665.6564,NaN 667.6153,NaN 669.5751,NaN 671.5356,NaN 673.4970,NaN 675.4590,NaN 677.4217,NaN 679.3849,NaN 681.3485,NaN 683.3123,NaN 685.2763,NaN 687.2403,NaN 689.2042,NaN 691.1679,NaN 693.1311,NaN 695.0938,NaN 697.0558,NaN 699.0169,NaN 700.9771,NaN 702.9363,NaN 704.8941,NaN 706.8506,NaN 708.8057,NaN 710.7591,NaN 712.7109,NaN 714.6609,NaN 716.6089,NaN 718.5550,NaN 720.4991,NaN 722.4411,NaN 724.3809,NaN 726.3185,NaN 728.2538,NaN 730.1870,NaN 732.1178,NaN 734.0464,NaN 735.9727,NaN 737.8969,NaN 739.8188,NaN 741.7387,NaN 743.6565,NaN 745.5723,NaN 747.4862,NaN 749.3984,NaN 751.3090,NaN 753.2181,NaN 755.1258,NaN 757.0323,NaN 758.9379,NaN 760.8427,NaN 762.7469,NaN 764.6508,NaN 766.5546,NaN 768.4586,NaN 770.3630,NaN 772.2682,NaN 774.1744,NaN 776.0820,NaN 777.9910,NaN 779.9019,NaN 781.8149,NaN 783.7303,NaN 785.6482,NaN 787.5690,NaN 789.4928,NaN 791.4198,NaN 793.3505,NaN 795.2848,NaN 797.2231,NaN 799.1655,NaN 801.1123,NaN 803.0636,NaN 805.0197,NaN 806.9808,NaN 808.9470,NaN 810.9185,NaN 812.8955,NaN 814.8782,NaN 816.8667,NaN 818.8612,NaN 820.8619,NaN 822.8690,NaN 824.8825,NaN 826.9027,NaN 828.9297,NaN 830.9636,NaN 833.0047,NaN 835.0529,NaN 837.1085,NaN 839.1717,NaN 841.2424,NaN 843.3210,NaN 845.4074,NaN 847.5018,NaN 849.6043,NaN 851.7151,NaN 853.8343,NaN 855.9619,NaN 858.0981,NaN 860.2429,NaN 862.3966,NaN 864.5592,NaN 866.7307,NaN 868.9113,NaN 897.2578,NaN 897.2578,NaN 868.9113,NaN 866.7307,NaN 864.5592,NaN 862.3966,NaN 860.2429,NaN 858.0981,NaN 855.9619,NaN 853.8343,NaN 851.7151,NaN 849.6043,NaN 847.5018,NaN 845.4074,NaN 843.3210,NaN 841.2424,NaN 839.1717,NaN 837.1085,NaN 835.0529,NaN 833.0047,NaN 830.9636,NaN 828.9297,NaN 826.9027,NaN 824.8825,NaN 822.8690,NaN 820.8619,NaN 818.8612,NaN 816.8667,NaN 814.8782,NaN 812.8955,NaN 810.9185,NaN 808.9470,NaN 806.9808,NaN 805.0197,NaN 803.0636,NaN 801.1123,NaN 799.1655,NaN 797.2231,NaN 795.2848,NaN 793.3505,NaN 791.4198,NaN 789.4928,NaN 787.5690,NaN 785.6482,NaN 783.7303,NaN 781.8149,NaN 779.9019,NaN 777.9910,NaN 776.0820,NaN 774.1744,NaN 772.2682,NaN 770.3630,NaN 768.4586,NaN 766.5546,NaN 764.6508,NaN 762.7469,NaN 760.8427,NaN 758.9379,NaN 757.0323,NaN 755.1258,NaN 753.2181,NaN 751.3090,NaN 749.3984,NaN 747.4862,NaN 745.5723,NaN 743.6565,NaN 741.7387,NaN 739.8188,NaN 737.8969,NaN 735.9727,NaN 734.0464,NaN 732.1178,NaN 730.1870,NaN 728.2538,NaN 726.3185,NaN 724.3809,NaN 722.4411,NaN 720.4991,NaN 718.5550,NaN 716.6089,NaN 714.6609,NaN 712.7109,NaN 710.7591,NaN 708.8057,NaN 706.8506,NaN 704.8941,NaN 702.9363,NaN 700.9771,NaN 699.0169,NaN 697.0558,NaN 695.0938,NaN 693.1311,NaN 691.1679,NaN 689.2042,NaN 687.2403,NaN 685.2763,NaN 683.3123,NaN 681.3485,NaN 679.3849,NaN 677.4217,NaN 675.4590,NaN 673.4970,NaN 671.5356,NaN 669.5751,NaN 667.6153,NaN 665.6564,NaN 663.6983,NaN 661.7409,NaN 659.7842,NaN 657.8280,NaN 655.8721,NaN 653.9163,NaN 651.9603,NaN 650.0040,NaN 648.0470,NaN 646.0890,NaN 644.1296,NaN 642.1685,NaN 640.2053,NaN 638.2395,NaN 636.2708,NaN 634.2987,NaN 632.3228,NaN 630.3426,NaN 628.3576,NaN 626.3673,NaN 624.3714,NaN 622.3693,NaN 620.3606,NaN 618.3447,NaN 616.3213,NaN 614.2899,NaN 612.2501,NaN 610.2014,NaN 608.1435,NaN 606.0760,NaN 603.9985,NaN 601.9106,NaN 599.8122,NaN 597.7028,NaN 595.5823,NaN 593.4503,NaN 591.3068,NaN 589.1515,NaN 586.9843,NaN 584.8051,NaN 582.6138,NaN 580.4104,NaN 578.1950,NaN 575.9674,NaN 573.7279,NaN 571.4765,NaN 569.2134,NaN 566.9387,NaN 564.6527,NaN 562.3555,NaN 560.0475,NaN 557.7288,NaN 555.3997,NaN 553.0605,NaN 550.7113,NaN 548.3526,NaN 545.9845,NaN 543.6073,NaN 541.2214,NaN 538.8270,NaN 536.4244,NaN 534.0139,NaN 531.5958,NaN 529.1704,NaN 526.7379,NaN 524.2988,NaN 521.8532,NaN 519.4015,NaN 516.9440,NaN 514.4809,NaN 512.0125,NaN 509.5392,NaN 507.0612,NaN 504.5788,NaN 502.0922,NaN 499.6017,NaN 497.1077,NaN 494.6103,NaN 492.1098,NaN 489.6065,NaN 487.1005,NaN 484.5923,NaN 482.0819,NaN 479.5696,NaN 477.0556,NaN 474.5402,NaN 472.0236,NaN 469.5059,NaN 466.9874,NaN 464.4683,NaN 461.9486,NaN 459.4287,NaN 456.9086,NaN 454.3886,NaN 451.8688,NaN 449.3493,NaN 446.8303,NaN 444.3119,NaN 441.7942,NaN 439.2774,NaN 436.7617,NaN 434.2472,NaN 431.7341,NaN 429.2226,NaN 426.7129,NaN 424.2052,NaN 421.6997,NaN 419.1966,NaN 416.6962,NaN 414.1987,NaN 411.7043,NaN 409.2133,NaN 406.7259,NaN 404.2425,NaN 401.7633,NaN 399.2885,NaN 396.8185,NaN 394.3535,NaN 391.8939,NaN 389.4398,NaN 386.9918,NaN 384.5500,NaN 382.1147,NaN 379.6863,NaN 377.2652,NaN 374.8515,NaN 372.4457,NaN 370.0481,NaN 367.6589,NaN 365.2786,NaN 362.9075,NaN 360.5459,NaN 358.1940,NaN 355.8523,NaN 353.5211,NaN 351.2006,NaN 348.8913,NaN 346.5934,NaN 344.3072,NaN 342.0330,NaN 339.7711,NaN 337.5219,NaN 335.2855,NaN 333.0622,NaN 330.8523,NaN 328.6560,NaN 326.4736,NaN 324.3052,NaN 322.1511,NaN 320.0112,NaN 317.8857,NaN 315.7747,NaN 313.6781,NaN 311.5959,NaN 309.5281,NaN 307.4744,NaN 305.4347,NaN 303.4089,NaN 301.3967,NaN 299.3979,NaN 297.4120,NaN 295.4389,NaN 293.4781,NaN 291.5292,NaN 289.5917,NaN 287.6653,NaN 285.7495,NaN 283.8436,NaN 281.9473,NaN 280.0599,NaN 278.1808,NaN 276.3095,NaN 274.4455,NaN 272.5879,NaN 270.7364,NaN 268.8902,NaN 267.0487,NaN 265.2114,NaN 263.3775,NaN 261.5466,NaN 259.7180,NaN 257.8910,NaN 256.0653,NaN 254.2402,NaN 252.4152,NaN 250.5898,NaN 248.7635,NaN 246.9359,NaN 245.1066,NaN 243.2752,NaN 241.4413,NaN 239.6046,NaN 237.7649,NaN 235.9219,NaN 234.0755,NaN 232.2253,NaN 230.3714,NaN 228.5136,NaN 226.6519,NaN 224.7863,NaN 222.9166,NaN 221.0429,NaN 219.1653,NaN 217.2836,NaN 215.3981,NaN 213.5087,NaN 211.6154,NaN 209.7184,NaN 207.8177,NaN 205.9134,NaN 204.0055,NaN 202.0943,NaN 200.1796,NaN 198.2617,NaN 196.3407,NaN 194.4165,NaN 192.4893,NaN 190.5593,NaN 188.6263,NaN 186.6907,NaN 184.7523,NaN 182.8114,NaN 180.8679,NaN 178.9219,NaN 176.9734,NaN 175.0226,NaN 173.0694,NaN 171.1139,NaN 169.1560,NaN 167.1959,NaN 165.2335,NaN 163.2688,NaN 161.3018,NaN 159.3324,NaN 157.3607,NaN 155.3865,NaN 153.4099,NaN 151.4307,NaN 149.4489,NaN 147.4643,NaN 145.4770,NaN 143.4867,NaN 141.4934,NaN 139.4968,NaN 137.4969,NaN 135.4935,NaN 133.4865,NaN 131.4755,NaN 129.4605,NaN 127.4413,NaN 125.4177,NaN 123.3896,NaN 121.3568,NaN 119.3191,NaN 117.2765,NaN 115.2288,NaN 113.1759,NaN 111.1176,NaN 109.0538,NaN 106.9845,NaN 104.9095,NaN 102.8288,NaN 100.7421,NaN 98.6496,NaN 96.5510,NaN 94.4463,NaN 92.3354,NaN 90.2183,NaN 88.0950,NaN 85.9653,NaN 83.8292,NaN 81.6867,NaN 79.5378,NaN 77.3824,NaN 75.2206,NaN 73.0522,NaN 70.8773,NaN 68.6959,NaN 66.5080,NaN 64.3135,NaN 62.1126,NaN 59.9052,NaN 57.6914,NaN 55.4711,NaN 53.2445,NaN 51.0115,NaN 48.7723,NaN 46.5268,NaN 44.2751,NaN 42.0173,NaN 39.7535,NaN 37.4837,NaN 35.2080,NaN 32.9265,NaN 30.6393,NaN 28.3464,NaN 0.0000,NaN 0.0000,NaN" stroke="black" fill="none"/>
</svg>