<svg width="3605.5826" height="141.7322" xmlns="http://www.w3.org/2000/svg">
<polyline points="0.0000,64.3431 28.3464,64.3431 32.2128,64.1719 36.1207,64.0024 40.0699,63.8347 44.0600,63.6692 48.0905,63.5059 52.1614,63.3451 56.2720,63.1869 60.4222,63.0316 64.6116,62.8794 68.8399,62.7303 73.1066,62.5846 77.4116,62.4423 81.7544,62.3037 86.1347,62.1688 90.5521,62.0377 95.0064,61.9106 99.4972,61.7875 104.0242,61.6687 108.5871,61.5540 113.1855,61.4436 117.8191,61.3376 122.4877,61.2360 127.1908,61.1388 131.9282,61.0462 136.6997,60.9580 141.5048,60.8745 146.3433,60.7955 151.2150,60.7211 156.1194,60.6512 161.0564,60.5860 166.0257,60.5253 171.0270,60.4692 176.0600,60.4176 181.1245,60.3706 186.2202,60.3280 191.3469,60.2899 196.5043,60.2563 201.6922,60.2270 206.9104,60.2021 212.1587,60.1814 217.4367,60.1650 222.7444,60.1528 228.0815,60.1447 233.4478,60.1407 238.8431,60.1407 244.2673,60.1447 249.7202,60.1526 255.2015,60.1643 260.7112,60.1798 266.2491,60.1990 271.8151,60.2218 277.4090,60.2482 283.0306,60.2782 288.6800,60.3115 294.3568,60.3483 300.0612,60.3884 305.7929,60.4317 311.5519,60.4783 317.3381,60.5279 323.1514,60.5807 328.9919,60.6364 334.8593,60.6951 340.7538,60.7567 346.6752,60.8212 352.6235,60.8884 358.5988,60.9584 364.6011,61.0311 370.6302,61.1064 376.6864,61.1843 382.7695,61.2648 388.8797,61.3479 395.0170,61.4334 401.1815,61.5213 407.3731,61.6117 413.5921,61.7045 419.8385,61.7997 426.1123,61.8973 432.4138,61.9972 438.7431,62.0994 445.1002,62.2039 451.4854,62.3108 457.8987,62.4200 464.3404,62.5315 470.8107,62.6453 477.3097,62.7614 483.8376,62.8799 490.3947,63.0008 496.9812,63.1240 503.5973,63.2497 510.2433,63.3778 516.9194,63.5085 523.6259,63.6416 530.3632,63.7773 537.1314,63.9157 543.9309,64.0567 550.7620,64.2005 557.6251,64.3471 564.5204,64.4966 571.4484,64.6491 578.4095,64.7393 585.4040,64.6329 592.4329,64.5236 599.4968,64.4117 606.5965,64.2971 613.7326,64.1800 620.9058,64.0605 628.1164,63.9387 635.3651,63.8146 642.6522,63.6884 649.9782,63.5602 657.3433,63.4300 664.7481,63.2979 672.1926,63.1641 679.6772,63.0286 687.2021,62.8915 694.7675,62.7528 702.3735,62.6127 710.0202,62.4713 717.7079,62.3286 725.4366,62.1846 733.2064,62.0395 741.0173,61.8932 748.8694,61.7460 756.7628,61.5977 764.6974,61.4485 772.6733,61.2984 780.6906,61.1475 788.7491,60.9957 796.8490,60.8431 804.9902,60.6898 813.1728,60.5357 821.3968,60.3809 829.6621,60.2253 837.9687,60.0691 846.3168,59.9120 854.7064,59.7543 863.1374,59.5958 871.6099,59.4365 880.1240,59.2764 888.6798,59.1155 897.2774,58.9536 905.9168,58.7909 914.5981,58.6271 923.3216,58.4623 932.0874,58.2964 940.8956,58.1293 949.7465,57.9609 958.6402,57.7912 967.5770,57.6200 976.5572,57.4472 985.5811,57.2728 994.6489,57.0965 1003.7611,56.9184 1012.9179,56.7382 1022.1199,56.5558 1031.3673,56.3712 1040.6607,56.1840 1050.0006,55.9942 1059.3874,55.8016 1068.8218,55.6060 1078.3043,55.4073 1087.8355,55.2052 1097.4161,54.9996 1107.0467,54.7903 1116.7281,54.5770 1126.4610,54.3595 1136.2463,54.1377 1146.0846,53.9113 1155.9770,53.6800 1165.9242,53.4436 1175.9273,53.2019 1185.9871,52.9546 1196.1048,52.7015 1206.2813,52.4422 1216.5176,52.1765 1226.8151,51.9041 1237.1747,51.6247 1247.5976,51.3381 1258.0852,51.0439 1268.6387,50.7417 1279.2593,50.4314 1289.9484,50.1125 1300.7074,49.7848 1311.5377,49.4478 1322.4408,49.1013 1333.4180,48.7449 1344.4710,48.3782 1355.6013,48.0010 1366.8104,47.6127 1378.1001,47.2131 1389.4719,46.8017 1400.9275,46.3782 1412.4686,45.9423 1424.0971,45.4934 1435.8146,45.0312 1447.6230,44.5553 1459.5242,44.0653 1471.5199,43.5608 1483.6121,43.0413 1495.8026,42.1728 1508.0915,40.9514 1520.4770,39.7109 1532.9571,38.4532 1545.5299,37.1798 1558.1934,35.8927 1570.9455,34.5939 1583.7841,33.2853 1596.7071,31.9692 1609.7124,30.6477 1622.7979,29.3232 1635.9612,27.9980 1649.2001,26.6744 1662.5125,25.3551 1675.8959,24.0424 1689.3482,22.7390 1702.8669,21.4475 1716.4498,20.1705 1730.0945,18.9107 1743.7986,17.6706 1757.5596,16.4530 1771.3753,15.2604 1785.2431,14.0956 1799.1606,12.9611 1813.1253,11.8595 1827.1349,10.7933 1841.1868,9.7650 1855.2786,8.7770 1869.4077,7.8316 1883.5716,6.9311 1897.7679,6.0775 1911.9939,5.2731 1926.2473,4.5198 1940.5254,3.8193 1954.8258,3.1735 1969.1458,2.5839 1983.4830,2.0519 1997.8347,1.5790 2012.1985,1.1662 2026.5718,0.8147 2040.9520,0.5252 2055.3366,0.2986 2069.7230,0.1352 2084.1086,0.0356 2098.4910,0.0000 2112.8674,0.0284 2127.2355,0.1207 2141.5926,0.2767 2155.9362,0.4958 2170.2637,0.7777 2184.5727,1.1213 2198.8604,1.5260 2213.1245,1.9905 2227.3624,2.5137 2241.5715,3.0943 2255.7494,3.7307 2269.8936,4.4214 2284.0014,5.1646 2298.0706,5.9584 2312.0984,6.8009 2326.0826,7.6899 2340.0206,8.6235 2353.9100,9.5992 2367.7484,10.6148 2381.5332,11.6678 2395.2622,12.7559 2408.9329,13.8764 2422.5429,15.0270 2436.0899,16.2049 2449.5716,17.4076 2462.9856,18.6325 2476.3296,19.8769 2489.6013,21.1383 2502.7985,22.4139 2515.9190,23.7013 2528.9605,24.9978 2541.9210,26.3010 2554.7981,27.6083 2567.5899,28.9172 2580.2943,30.2255 2592.9092,31.5308 2605.4325,32.8308 2617.8624,34.1233 2630.1970,35.4062 2642.4343,36.6775 2654.5725,37.9353 2666.6098,39.1777 2678.5446,40.4029 2690.3752,41.6094 2702.1000,42.7954 2713.7174,43.9596 2725.2259,45.1006 2736.6243,46.2172 2747.9111,47.3081 2759.0852,48.3724 2770.1455,49.4091 2781.0908,50.4174 2791.9203,51.3966 2802.6331,52.3459 2813.2285,53.2650 2823.7063,53.8322 2834.0684,54.2711 2844.3182,54.6910 2854.4590,55.0923 2864.4939,55.4758 2874.4261,55.8422 2884.2588,56.1919 2893.9950,56.5258 2903.6378,56.8443 2913.1901,57.1482 2922.6550,57.4379 2932.0353,57.7140 2941.3337,57.9772 2950.5531,58.2279 2959.6962,58.4668 2968.7656,58.6943 2977.7639,58.9109 2986.6935,59.1172 2995.5569,59.3136 3004.3564,59.5006 3013.0944,59.6788 3021.7730,59.8485 3030.3943,60.0101 3038.9604,60.1643 3047.4733,60.3112 3055.9348,60.4515 3064.3468,60.5854 3072.7109,60.7134 3081.0288,60.8358 3089.3022,60.9531 3097.5323,61.0655 3105.7207,61.1735 3113.8686,61.2773 3121.9774,61.3774 3130.0480,61.4740 3138.0816,61.5675 3146.0792,61.6581 3154.0417,61.7462 3161.9699,61.8320 3169.8646,61.9159 3177.7263,61.9980 3185.5558,62.0787 3193.3535,62.1583 3201.1200,62.2368 3208.8555,62.3147 3216.5604,62.3921 3224.2349,62.4692 3231.8792,62.5462 3239.4935,62.6233 3247.0777,62.7008 3254.6319,62.7787 3262.1559,62.8572 3269.6497,62.9366 3277.1131,63.0169 3284.5458,63.0982 3291.9476,63.1808 3299.3181,63.2647 3306.6569,63.3499 3313.9637,63.4367 3321.2378,63.5250 3328.4789,63.6150 3335.6863,63.7067 3342.8595,63.8001 3349.9979,63.8953 3357.1008,63.9923 3364.1674,64.0911 3371.1972,64.1917 3378.1893,64.2941 3385.1430,64.3982 3392.0575,64.5042 3398.9319,64.6118 3405.7656,64.7211 3412.5576,64.8320 3419.3071,64.9444 3426.0132,65.0582 3432.6750,65.1733 3439.2918,65.2897 3445.8626,65.4072 3452.3865,65.5257 3458.8628,65.6451 3465.2905,65.7653 3471.6688,65.8860 3477.9968,66.0072 3484.2738,66.1287 3490.4990,66.2504 3496.6716,66.3720 3502.7908,66.4934 3508.8560,66.6145 3514.8665,66.7350 3520.8217,66.8548 3526.7210,66.9738 3532.5638,67.0916 3538.3498,67.2082 3544.0786,67.3233 3549.7497,67.4368 3555.3631,67.5485 3560.9184,67.6582 3566.4156,67.7658 3571.8549,67.8710 3577.2362,67.9738 3605.5826,67.9738 3605.5826,73.7584 3577.2362,73.7584 3571.8549,73.8612 3566.4156,73.9664 3560.9184,74.0740 3555.3631,74.1837 3549.7497,74.2954 3544.0786,74.4089 3538.3498,74.5240 3532.5638,74.6406 3526.7210,74.7584 3520.8217,74.8774 3514.8665,74.9972 3508.8560,75.1177 3502.7908,75.2388 3496.6716,75.3602 3490.4990,75.4818 3484.2738,75.6035 3477.9968,75.7250 3471.6688,75.8462 3465.2905,75.9669 3458.8628,76.0871 3452.3865,76.2065 3445.8626,76.3250 3439.2918,76.4425 3432.6750,76.5589 3426.0132,76.6740 3419.3071,76.7878 3412.5576,76.9002 3405.7656,77.0111 3398.9319,77.1204 3392.0575,77.2280 3385.1430,77.3339 3378.1893,77.4381 3371.1972,77.5405 3364.1674,77.6411 3357.1008,77.7399 3349.9979,77.8369 3342.8595,77.9321 3335.6863,78.0255 3328.4789,78.1172 3321.2378,78.2072 3313.9637,78.2955 3306.6569,78.3823 3299.3181,78.4675 3291.9476,78.5514 3284.5458,78.6340 3277.1131,78.7153 3269.6497,78.7956 3262.1559,78.8750 3254.6319,78.9535 3247.0777,79.0314 3239.4935,79.1089 3231.8792,79.1860 3224.2349,79.2630 3216.5604,79.3401 3208.8555,79.4175 3201.1200,79.4953 3193.3535,79.5739 3185.5558,79.6535 3177.7263,79.7342 3169.8646,79.8163 3161.9699,79.9002 3154.0417,79.9860 3146.0792,80.0741 3138.0816,80.1647 3130.0480,80.2582 3121.9774,80.3548 3113.8686,80.4549 3105.7207,80.5587 3097.5323,80.6667 3089.3022,80.7791 3081.0288,80.8964 3072.7109,81.0188 3064.3468,81.1468 3055.9348,81.2807 3047.4733,81.4210 3038.9604,81.5679 3030.3943,81.7220 3021.7730,81.8837 3013.0944,82.0534 3004.3564,82.2316 2995.5569,82.4186 2986.6935,82.6150 2977.7639,82.8213 2968.7656,83.0379 2959.6962,83.2654 2950.5531,83.5043 2941.3337,83.7550 2932.0353,84.0182 2922.6550,84.2943 2913.1901,84.5840 2903.6378,84.8878 2893.9950,85.2064 2884.2588,85.5402 2874.4261,85.8900 2864.4939,86.2564 2854.4590,86.6399 2844.3182,87.0412 2834.0684,87.4611 2823.7063,87.9000 2813.2285,88.4672 2802.6331,89.3863 2791.9203,90.3356 2781.0908,91.3148 2770.1455,92.3231 2759.0852,93.3598 2747.9111,94.4241 2736.6243,95.5150 2725.2259,96.6316 2713.7174,97.7726 2702.1000,98.9368 2690.3752,100.1228 2678.5446,101.3292 2666.6098,102.5545 2654.5725,103.7969 2642.4343,105.0546 2630.1970,106.3260 2617.8624,107.6089 2605.4325,108.9014 2592.9092,110.2014 2580.2943,111.5067 2567.5899,112.8149 2554.7981,114.1239 2541.9210,115.4312 2528.9605,116.7344 2515.9190,118.0309 2502.7985,119.3183 2489.6013,120.5939 2476.3296,121.8553 2462.9856,123.0997 2449.5716,124.3246 2436.0899,125.5273 2422.5429,126.7052 2408.9329,127.8558 2395.2622,128.9763 2381.5332,130.0644 2367.7484,131.1174 2353.9100,132.1330 2340.0206,133.1087 2326.0826,134.0423 2312.0984,134.9313 2298.0706,135.7738 2284.0014,136.5676 2269.8936,137.3108 2255.7494,138.0015 2241.5715,138.6379 2227.3624,139.2185 2213.1245,139.7417 2198.8604,140.2062 2184.5727,140.6109 2170.2637,140.9545 2155.9362,141.2363 2141.5926,141.4555 2127.2355,141.6115 2112.8674,141.7038 2098.4910,141.7322 2084.1086,141.6966 2069.7230,141.5970 2055.3366,141.4336 2040.9520,141.2070 2026.5718,140.9175 2012.1985,140.5660 1997.8347,140.1532 1983.4830,139.6803 1969.1458,139.1483 1954.8258,138.5587 1940.5254,137.9129 1926.2473,137.2124 1911.9939,136.4591 1897.7679,135.6547 1883.5716,134.8011 1869.4077,133.9006 1855.2786,132.9552 1841.1868,131.9672 1827.1349,130.9389 1813.1253,129.8727 1799.1606,128.7711 1785.2431,127.6366 1771.3753,126.4718 1757.5596,125.2792 1743.7986,124.0616 1730.0945,122.8215 1716.4498,121.5617 1702.8669,120.2846 1689.3482,118.9931 1675.8959,117.6898 1662.5125,116.3771 1649.2001,115.0578 1635.9612,113.7342 1622.7979,112.4090 1609.7124,111.0845 1596.7071,109.7630 1583.7841,108.4469 1570.9455,107.1383 1558.1934,105.8395 1545.5299,104.5524 1532.9571,103.2790 1520.4770,102.0212 1508.0915,100.7808 1495.8026,99.5594 1483.6121,98.6909 1471.5199,98.1714 1459.5242,97.6669 1447.6230,97.1769 1435.8146,96.7010 1424.0971,96.2388 1412.4686,95.7899 1400.9275,95.3540 1389.4719,94.9305 1378.1001,94.5191 1366.8104,94.1195 1355.6013,93.7312 1344.4710,93.3540 1333.4180,92.9873 1322.4408,92.6309 1311.5377,92.2844 1300.7074,91.9474 1289.9484,91.6197 1279.2593,91.3008 1268.6387,90.9905 1258.0852,90.6883 1247.5976,90.3941 1237.1747,90.1075 1226.8151,89.8281 1216.5176,89.5557 1206.2813,89.2900 1196.1048,89.0307 1185.9871,88.7776 1175.9273,88.5303 1165.9242,88.2886 1155.9770,88.0522 1146.0846,87.8209 1136.2463,87.5945 1126.4610,87.3727 1116.7281,87.1552 1107.0467,86.9419 1097.4161,86.7326 1087.8355,86.5270 1078.3043,86.3249 1068.8218,86.1262 1059.3874,85.9306 1050.0006,85.7380 1040.6607,85.5482 1031.3673,85.3610 1022.1199,85.1763 1012.9179,84.9940 1003.7611,84.8138 994.6489,84.6357 985.5811,84.4594 976.5572,84.2850 967.5770,84.1122 958.6402,83.9410 949.7465,83.7713 940.8956,83.6029 932.0874,83.4358 923.3216,83.2699 914.5981,83.1051 905.9168,82.9413 897.2774,82.7785 888.6798,82.6167 880.1240,82.4558 871.6099,82.2957 863.1374,82.1364 854.7064,81.9779 846.3168,81.8201 837.9687,81.6631 829.6621,81.5069 821.3968,81.3513 813.1728,81.1965 804.9902,81.0424 796.8490,80.8891 788.7491,80.7365 780.6906,80.5847 772.6733,80.4338 764.6974,80.2837 756.7628,80.1345 748.8694,79.9862 741.0173,79.8390 733.2064,79.6927 725.4366,79.5476 717.7079,79.4036 710.0202,79.2609 702.3735,79.1194 694.7675,78.9794 687.2021,78.8407 679.6772,78.7036 672.1926,78.5681 664.7481,78.4343 657.3433,78.3022 649.9782,78.1720 642.6522,78.0438 635.3651,77.9176 628.1164,77.7935 620.9058,77.6717 613.7326,77.5522 606.5965,77.4351 599.4968,77.3205 592.4329,77.2086 585.4040,77.0993 578.4095,76.9929 571.4484,77.0831 564.5204,77.2356 557.6251,77.3851 550.7620,77.5317 543.9309,77.6755 537.1314,77.8165 530.3632,77.9549 523.6259,78.0906 516.9194,78.2237 510.2433,78.3543 503.5973,78.4825 496.9812,78.6081 490.3947,78.7314 483.8376,78.8523 477.3097,78.9708 470.8107,79.0869 464.3404,79.2007 457.8987,79.3122 451.4854,79.4214 445.1002,79.5283 438.7431,79.6328 432.4138,79.7350 426.1123,79.8349 419.8385,79.9325 413.5921,80.0276 407.3731,80.1205 401.1815,80.2109 395.0170,80.2988 388.8797,80.3843 382.7695,80.4674 376.6864,80.5479 370.6302,80.6258 364.6011,80.7011 358.5988,80.7738 352.6235,80.8438 346.6752,80.9110 340.7538,80.9755 334.8593,81.0371 328.9919,81.0958 323.1514,81.1515 317.3381,81.2043 311.5519,81.2539 305.7929,81.3005 300.0612,81.3438 294.3568,81.3839 288.6800,81.4207 283.0306,81.4540 277.4090,81.4840 271.8151,81.5104 266.2491,81.5332 260.7112,81.5524 255.2015,81.5679 249.7202,81.5796 244.2673,81.5875 238.8431,81.5915 233.4478,81.5915 228.0815,81.5875 222.7444,81.5794 217.4367,81.5672 212.1587,81.5508 206.9104,81.5301 201.6922,81.5052 196.5043,81.4759 191.3469,81.4422 186.2202,81.4042 181.1245,81.3616 176.0600,81.3146 171.0270,81.2630 166.0257,81.2069 161.0564,81.1462 156.1194,81.0810 151.2150,81.0111 146.3433,80.9367 141.5048,80.8577 136.6997,80.7742 131.9282,80.6860 127.1908,80.5934 122.4877,80.4962 117.8191,80.3946 113.1855,80.2886 108.5871,80.1782 104.0242,80.0635 99.4972,79.9446 95.0064,79.8216 90.5521,79.6945 86.1347,79.5634 81.7544,79.4285 77.4116,79.2899 73.1066,79.1476 68.8399,79.0019 64.6116,78.8528 60.4222,78.7006 56.2720,78.5453 52.1614,78.3871 48.0905,78.2263 44.0600,78.0630 40.0699,77.8975 36.1207,77.7298 32.2128,77.5602 28.3464,77.3890 0.0000,77.3890 0.0000,64.3431" stroke="black" fill="none"/>
</svg>