<svg width="4205.9778" height="141.7322" xmlns="http://www.w3.org/2000/svg">
<polyline points="0.0000,68.0538 28.3464,68.0538 33.8123,68.3789 39.0416,68.6705 44.0419,68.9309 48.8216,69.1619 53.3899,69.3656 57.7566,69.5439 61.9328,69.6988 65.9304,69.8320 69.7628,69.9453 73.4443,70.0404 76.9907,70.1187 80.4190,70.1817 83.7476,70.2305 86.9958,70.2662 90.1840,70.2896 93.3330,70.3012 96.4639,70.3016 99.5976,70.2907 102.7543,70.2687 105.9532,70.2352 109.2124,70.1899 112.5483,70.1322 115.9756,70.0615 119.5078,69.9769 123.1563,69.8777 126.9313,69.7631 130.8414,69.6321 134.8941,69.4839 139.0958,69.3176 143.4515,69.1323 147.9657,68.9273 152.6420,68.7018 157.4834,68.4550 162.4920,68.1863 167.6698,67.8949 173.0180,67.5804 178.5376,67.2423 184.2292,66.8800 190.0931,66.4931 196.1293,66.0814 202.3377,65.6445 208.7178,65.1823 215.2690,64.6946 221.9907,64.1812 228.8819,63.6422 235.9416,63.0776 243.1687,62.4875 250.5619,61.8720 258.1200,61.2313 265.8415,60.5657 273.7250,59.8756 281.7690,59.1612 289.9718,58.4230 298.3318,57.6615 306.8473,56.8772 315.5165,56.0707 324.3377,55.2426 333.3091,54.3935 342.4288,53.5242 351.6948,52.6355 361.1054,51.7280 370.6586,50.8026 380.3523,49.8603 390.1847,48.9018 400.1537,47.9282 410.2572,46.9403 420.4934,45.9392 430.8600,44.9258 441.3550,43.9013 451.9764,42.8667 462.7219,41.8230 473.5897,40.7715 484.5774,39.7131 495.6830,38.6490 506.9043,37.5805 518.2392,36.5086 529.6855,35.4345 541.2411,34.3594 552.9038,33.2845 564.6713,32.2110 576.5416,31.1401 588.5124,30.0729 600.5815,29.0108 612.7468,27.9547 625.0059,26.9061 637.3568,25.8659 649.7971,24.8355 662.3247,23.8159 674.9374,22.8084 687.6328,21.8140 700.4088,20.8339 713.2632,19.8692 726.1937,18.9210 739.1980,17.9903 752.2739,17.0783 765.4193,16.1859 778.6317,15.3142 791.9091,14.4642 805.2490,13.6368 818.6493,12.8329 832.1078,12.0535 845.6221,11.2994 859.1900,10.5715 872.8093,9.8707 886.4777,9.1976 900.1929,8.5531 913.9526,7.9378 927.7547,7.3525 941.5968,6.7978 955.4767,6.2743 969.3921,5.7827 983.3408,5.3233 997.3204,4.8969 1011.3288,4.5037 1025.3636,4.1442 1039.4226,3.8189 1053.5035,3.5280 1067.6041,3.2719 1081.7221,3.0509 1095.8553,2.8650 1110.0013,2.7147 1124.1579,2.5999 1138.3228,2.5208 1152.4938,2.4774 1166.6687,2.4698 1180.8451,2.4980 1195.0208,2.5618 1209.1936,2.6611 1223.3611,2.7959 1237.5212,2.9659 1251.6716,3.1709 1265.8099,3.4107 1279.9341,3.6849 1294.0419,2.9502 1308.1321,2.3139 1322.2034,1.7681 1336.2546,1.3063 1350.2846,0.9225 1364.2921,0.6114 1378.2760,0.3684 1392.2351,0.1894 1406.1681,0.0705 1420.0740,0.0084 1433.9515,0.0000 1447.7995,0.0425 1461.6167,0.1332 1475.4020,0.2699 1489.1542,0.4502 1502.8722,0.6722 1516.5547,0.9340 1530.2007,1.2337 1543.8089,1.5696 1557.3782,1.9402 1570.9074,2.3440 1584.3954,2.7794 1597.8410,3.2452 1611.2431,3.7401 1624.6004,4.2626 1637.9120,4.8118 1651.1766,5.3863 1664.3930,5.9851 1677.5603,6.6070 1690.6771,7.2510 1703.7425,7.9160 1716.7552,8.6011 1729.7142,9.3052 1742.6184,10.0274 1755.4666,10.7666 1768.2577,11.5221 1780.9906,12.2928 1793.6643,13.0778 1806.2777,13.8764 1818.8296,14.6875 1831.3190,15.5104 1843.7449,16.3442 1856.1061,17.1881 1868.4016,18.0412 1880.6303,18.9028 1892.7912,19.7720 1904.8833,20.6480 1916.9056,21.5301 1928.8569,22.4175 1940.7364,23.3094 1952.5429,24.2051 1964.2756,25.1038 1975.9333,26.0049 1987.5152,26.9076 1999.0203,27.8112 2010.4476,28.7149 2021.7962,29.6182 2033.0651,30.5203 2044.2534,31.4206 2055.3603,32.3184 2066.3848,33.2131 2077.3261,34.1040 2088.1832,34.9906 2098.9554,35.8722 2109.6418,36.7482 2120.2417,37.6181 2130.7541,38.4813 2141.1784,39.3373 2151.5137,40.1854 2161.7594,41.0252 2171.9148,41.8563 2181.9790,42.6780 2191.9516,43.4899 2201.8318,44.2915 2211.6190,45.0825 2221.3127,45.8623 2230.9123,46.6306 2240.4173,47.3869 2249.8272,48.1309 2259.1415,48.8623 2268.3598,49.5806 2277.4818,50.2855 2286.5071,50.9768 2295.4354,51.6541 2304.2665,52.3172 2313.0002,52.9658 2321.6363,53.5997 2330.1748,54.2186 2338.6156,54.8224 2346.9588,55.4109 2355.2044,55.9839 2363.3526,56.5413 2371.4037,57.0829 2379.3579,57.6087 2387.2156,58.1185 2394.9774,58.6124 2402.6438,59.0902 2410.2154,59.5519 2417.6931,59.9975 2425.0776,60.4271 2432.3699,60.8405 2439.5713,61.2379 2446.6828,61.6193 2453.7058,61.9848 2460.6419,62.3345 2467.4926,62.6684 2474.2597,62.9867 2480.9453,63.2894 2487.5513,63.5767 2494.0801,63.8488 2500.5341,64.1057 2506.9159,64.3476 2513.2285,64.5747 2519.4748,64.7870 2525.6580,64.9848 2531.7816,65.1682 2537.8493,65.3373 2543.8649,65.4923 2549.8324,65.6332 2555.7561,65.7602 2561.6406,65.8733 2567.4906,65.9727 2573.3108,66.0584 2579.1064,66.1303 2584.8828,66.1886 2590.6453,66.2331 2596.3995,66.2638 2602.1512,66.2807 2607.9064,66.2835 2613.6709,66.2720 2619.4510,66.2462 2625.2527,66.2056 2631.0824,66.1501 2636.9461,66.0215 2642.8492,65.8779 2648.7966,65.7190 2654.7932,65.5446 2660.8435,65.3542 2666.9519,65.1477 2673.1224,64.9246 2679.3589,64.6846 2685.6650,64.4275 2692.0442,64.1529 2698.4997,63.8605 2705.0346,63.5500 2711.6516,63.2212 2718.3533,62.8736 2725.1422,62.5072 2732.0205,62.1215 2738.9903,61.7165 2746.0535,61.2919 2753.2119,60.8476 2760.4671,60.3834 2767.8206,59.8992 2775.2736,59.3949 2782.8274,58.8705 2790.4831,58.3260 2798.2417,57.7613 2806.1040,57.1766 2814.0707,56.5718 2822.1426,55.9472 2830.3203,55.3030 2838.6041,54.6392 2846.9945,53.9561 2855.4919,53.2541 2864.0965,52.5334 2872.8085,51.7944 2881.6281,51.0375 2890.5552,50.2631 2899.5900,49.4716 2908.7323,48.6637 2917.9821,47.8397 2927.3392,47.0004 2936.8035,46.1462 2946.3747,45.2779 2956.0525,44.3962 2965.8367,43.5017 2975.7269,42.5951 2985.7227,41.6773 2995.8238,40.7491 3006.0296,39.8112 3016.3397,38.8645 3026.7537,37.9099 3037.2710,36.9484 3047.8910,35.9807 3058.6132,35.0079 3069.4370,34.0308 3080.3618,33.0506 3091.3870,32.0680 3102.5119,31.0842 3113.7358,30.1002 3125.0581,29.1168 3136.4782,28.1353 3147.9952,27.1565 3159.6084,26.1815 3171.3172,25.2113 3183.1208,24.2469 3195.0184,23.2894 3207.0092,22.3397 3219.0925,21.3989 3231.2674,20.4680 3243.5332,19.5478 3255.8891,18.6395 3268.3343,17.7439 3280.8678,16.8620 3293.4890,15.9947 3306.1969,15.1429 3318.9907,14.3074 3331.8696,13.4892 3344.8327,12.6891 3357.8791,11.9078 3371.0080,11.1462 3384.2184,10.4050 3397.5097,9.6850 3410.8807,8.9867 3424.3307,8.3110 3437.8588,7.6584 3451.4641,7.0296 3465.1457,6.4251 3478.9027,5.8454 3492.7341,5.2911 3506.6392,4.7626 3520.6170,4.2604 3534.6665,3.7849 3548.7870,3.3364 3562.9774,2.9153 3577.2370,2.5218 3591.5647,2.1563 3605.9596,1.8190 3620.4209,1.5101 3634.9477,1.2296 3649.5390,0.9779 3664.1939,0.7549 3678.9116,0.5607 3693.6910,0.3953 3708.5314,0.2588 3723.4318,0.1511 3738.3912,0.0721 3753.4089,0.0218 3768.4838,0.0000 3783.6151,0.0065 3798.8019,0.0413 3814.0433,0.1039 3829.3384,0.1944 3844.6862,0.3122 3860.0860,0.4573 3875.5368,0.6292 3891.0377,0.8277 3906.5878,1.0523 3922.1863,1.3027 3937.8323,1.5786 3953.5249,1.8794 3969.2632,2.2048 3985.0463,2.5542 4000.8735,2.9273 4016.7438,3.3236 4032.6563,3.7425 4048.6103,4.1836 4064.6048,4.6463 4080.6390,5.1300 4096.7121,5.6343 4112.8232,6.1587 4128.9715,6.7024 4145.1562,7.2650 4161.3765,7.8459 4177.6314,8.4445 4205.9778,8.4445 4205.9778,133.2877 4177.6314,133.2877 4161.3765,133.8863 4145.1562,134.4672 4128.9715,135.0298 4112.8232,135.5735 4096.7121,136.0978 4080.6390,136.6022 4064.6048,137.0859 4048.6103,137.5486 4032.6563,137.9897 4016.7438,138.4086 4000.8735,138.8048 3985.0463,139.1780 3969.2632,139.5274 3953.5249,139.8528 3937.8323,140.1536 3922.1863,140.4295 3906.5878,140.6799 3891.0377,140.9045 3875.5368,141.1030 3860.0860,141.2749 3844.6862,141.4200 3829.3384,141.5378 3814.0433,141.6283 3798.8019,141.6909 3783.6151,141.7257 3768.4838,141.7322 3753.4089,141.7104 3738.3912,141.6600 3723.4318,141.5811 3708.5314,141.4734 3693.6910,141.3369 3678.9116,141.1715 3664.1939,140.9773 3649.5390,140.7543 3634.9477,140.5025 3620.4209,140.2221 3605.9596,139.9132 3591.5647,139.5759 3577.2370,139.2104 3562.9774,138.8169 3548.7870,138.3958 3534.6665,137.9473 3520.6170,137.4718 3506.6392,136.9696 3492.7341,136.4411 3478.9027,135.8868 3465.1457,135.3071 3451.4641,134.7026 3437.8588,134.0738 3424.3307,133.4212 3410.8807,132.7455 3397.5097,132.0472 3384.2184,131.3272 3371.0080,130.5860 3357.8791,129.8244 3344.8327,129.0431 3331.8696,128.2430 3318.9907,127.4248 3306.1969,126.5893 3293.4890,125.7375 3280.8678,124.8702 3268.3343,123.9883 3255.8891,123.0927 3243.5332,122.1844 3231.2674,121.2642 3219.0925,120.3333 3207.0092,119.3925 3195.0184,118.4428 3183.1208,117.4853 3171.3172,116.5209 3159.6084,115.5507 3147.9952,114.5757 3136.4782,113.5969 3125.0581,112.6154 3113.7358,111.6320 3102.5119,110.6480 3091.3870,109.6642 3080.3618,108.6816 3069.4370,107.7014 3058.6132,106.7243 3047.8910,105.7515 3037.2710,104.7838 3026.7537,103.8223 3016.3397,102.8677 3006.0296,101.9210 2995.8238,100.9831 2985.7227,100.0549 2975.7269,99.1371 2965.8367,98.2305 2956.0525,97.3360 2946.3747,96.4542 2936.8035,95.5860 2927.3392,94.7318 2917.9821,93.8925 2908.7323,93.0685 2899.5900,92.2606 2890.5552,91.4691 2881.6281,90.6947 2872.8085,89.9378 2864.0965,89.1988 2855.4919,88.4781 2846.9945,87.7761 2838.6041,87.0930 2830.3203,86.4292 2822.1426,85.7850 2814.0707,85.1604 2806.1040,84.5556 2798.2417,83.9709 2790.4831,83.4062 2782.8274,82.8617 2775.2736,82.3373 2767.8206,81.8330 2760.4671,81.3488 2753.2119,80.8846 2746.0535,80.4403 2738.9903,80.0157 2732.0205,79.6107 2725.1422,79.2250 2718.3533,78.8586 2711.6516,78.5110 2705.0346,78.1822 2698.4997,77.8717 2692.0442,77.5793 2685.6650,77.3047 2679.3589,77.0476 2673.1224,76.8076 2666.9519,76.5845 2660.8435,76.3780 2654.7932,76.1876 2648.7966,76.0132 2642.8492,75.8543 2636.9461,75.7107 2631.0824,75.5821 2625.2527,75.5266 2619.4510,75.4860 2613.6709,75.4602 2607.9064,75.4487 2602.1512,75.4515 2596.3995,75.4683 2590.6453,75.4991 2584.8828,75.5436 2579.1064,75.6019 2573.3108,75.6738 2567.4906,75.7595 2561.6406,75.8589 2555.7561,75.9720 2549.8324,76.0990 2543.8649,76.2399 2537.8493,76.3949 2531.7816,76.5640 2525.6580,76.7474 2519.4748,76.9452 2513.2285,77.1575 2506.9159,77.3846 2500.5341,77.6265 2494.0801,77.8834 2487.5513,78.1555 2480.9453,78.4428 2474.2597,78.7455 2467.4926,79.0638 2460.6419,79.3977 2453.7058,79.7473 2446.6828,80.1129 2439.5713,80.4943 2432.3699,80.8917 2425.0776,81.3051 2417.6931,81.7347 2410.2154,82.1803 2402.6438,82.6420 2394.9774,83.1198 2387.2156,83.6136 2379.3579,84.1235 2371.4037,84.6493 2363.3526,85.1909 2355.2044,85.7483 2346.9588,86.3213 2338.6156,86.9098 2330.1748,87.5136 2321.6363,88.1325 2313.0002,88.7664 2304.2665,89.4150 2295.4354,90.0781 2286.5071,90.7554 2277.4818,91.4467 2268.3598,92.1516 2259.1415,92.8699 2249.8272,93.6013 2240.4173,94.3453 2230.9123,95.1016 2221.3127,95.8699 2211.6190,96.6497 2201.8318,97.4407 2191.9516,98.2423 2181.9790,99.0542 2171.9148,99.8759 2161.7594,100.7069 2151.5137,101.5468 2141.1784,102.3949 2130.7541,103.2509 2120.2417,104.1141 2109.6418,104.9840 2098.9554,105.8600 2088.1832,106.7416 2077.3261,107.6282 2066.3848,108.5191 2055.3603,109.4138 2044.2534,110.3116 2033.0651,111.2119 2021.7962,112.1140 2010.4476,113.0173 1999.0203,113.9210 1987.5152,114.8246 1975.9333,115.7273 1964.2756,116.6283 1952.5429,117.5271 1940.7364,118.4228 1928.8569,119.3147 1916.9056,120.2021 1904.8833,121.0842 1892.7912,121.9602 1880.6303,122.8294 1868.4016,123.6910 1856.1061,124.5441 1843.7449,125.3880 1831.3190,126.2218 1818.8296,127.0447 1806.2777,127.8558 1793.6643,128.6544 1780.9906,129.4394 1768.2577,130.2101 1755.4666,130.9656 1742.6184,131.7048 1729.7142,132.4270 1716.7552,133.1311 1703.7425,133.8161 1690.6771,134.4812 1677.5603,135.1252 1664.3930,135.7471 1651.1766,136.3459 1637.9120,136.9204 1624.6004,137.4695 1611.2431,137.9921 1597.8410,138.4870 1584.3954,138.9528 1570.9074,139.3882 1557.3782,139.7920 1543.8089,140.1626 1530.2007,140.4985 1516.5547,140.7982 1502.8722,141.0600 1489.1542,141.2820 1475.4020,141.4623 1461.6167,141.5990 1447.7995,141.6897 1433.9515,141.7322 1420.0740,141.7238 1406.1681,141.6617 1392.2351,141.5428 1378.2760,141.3638 1364.2921,141.1208 1350.2846,140.8097 1336.2546,140.4259 1322.2034,139.9640 1308.1321,139.4183 1294.0419,138.7820 1279.9341,138.0473 1265.8099,138.3215 1251.6716,138.5613 1237.5212,138.7663 1223.3611,138.9363 1209.1936,139.0711 1195.0208,139.1704 1180.8451,139.2342 1166.6687,139.2624 1152.4938,139.2548 1138.3228,139.2114 1124.1579,139.1323 1110.0013,139.0175 1095.8553,138.8671 1081.7221,138.6813 1067.6041,138.4603 1053.5035,138.2042 1039.4226,137.9133 1025.3636,137.5880 1011.3288,137.2285 997.3204,136.8353 983.3408,136.4089 969.3921,135.9495 955.4767,135.4579 941.5968,134.9344 927.7547,134.3797 913.9526,133.7944 900.1929,133.1791 886.4777,132.5346 872.8093,131.8615 859.1900,131.1607 845.6221,130.4328 832.1078,129.6787 818.6493,128.8993 805.2490,128.0954 791.9091,127.2680 778.6317,126.4180 765.4193,125.5463 752.2739,124.6539 739.1980,123.7419 726.1937,122.8112 713.2632,121.8630 700.4088,120.8983 687.6328,119.9182 674.9374,118.9238 662.3247,117.9163 649.7971,116.8967 637.3568,115.8663 625.0059,114.8261 612.7468,113.7775 600.5815,112.7214 588.5124,111.6593 576.5416,110.5921 564.6713,109.5212 552.9038,108.4477 541.2411,107.3728 529.6855,106.2977 518.2392,105.2236 506.9043,104.1517 495.6830,103.0832 484.5774,102.0191 473.5897,100.9607 462.7219,99.9092 451.9764,98.8655 441.3550,97.8309 430.8600,96.8064 420.4934,95.7930 410.2572,94.7919 400.1537,93.8040 390.1847,92.8304 380.3523,91.8719 370.6586,90.9296 361.1054,90.0042 351.6948,89.0967 342.4288,88.2079 333.3091,87.3387 324.3377,86.4896 315.5165,85.6615 306.8473,84.8550 298.3318,84.0707 289.9718,83.3092 281.7690,82.5710 273.7250,81.8566 265.8415,81.1665 258.1200,80.5009 250.5619,79.8602 243.1687,79.2447 235.9416,78.6546 228.8819,78.0900 221.9907,77.5510 215.2690,77.0376 208.7178,76.5499 202.3377,76.0877 196.1293,75.6508 190.0931,75.2391 184.2292,74.8522 178.5376,74.4899 173.0180,74.1518 167.6698,73.8373 162.4920,73.5459 157.4834,73.2772 152.6420,73.0304 147.9657,72.8049 143.4515,72.5999 139.0958,72.4146 134.8941,72.2483 130.8414,72.1001 126.9313,71.9691 123.1563,71.8545 119.5078,71.7553 115.9756,71.6707 112.5483,71.6000 109.2124,71.5423 105.9532,71.4970 102.7543,71.4635 99.5976,71.4414 96.4639,71.4306 93.3330,71.4310 90.1840,71.4426 86.9958,71.4660 83.7476,71.5017 80.4190,71.5505 76.9907,71.6135 73.4443,71.6918 69.7628,71.7869 65.9304,71.9002 61.9328,72.0334 57.7566,72.1883 53.3899,72.3666 48.8216,72.5703 44.0419,72.8013 39.0416,73.0617 33.8123,73.3533 28.3464,73.6783 0.0000,73.6783 0.0000,68.0538" stroke="black" fill="none"/>
</svg>