<svg width="897.2578" height="141.7322" xmlns="http://www.w3.org/2000/svg">
<polyline points="0.0000,3.3847 28.3464,3.3847 30.6393,2.8367 32.9265,2.3386 35.2080,1.8903 37.4837,1.4914 39.7535,1.1416 42.0173,0.8403 44.2751,0.5867 46.5268,0.3800 48.7723,0.2191 51.0115,0.1030 53.2445,0.0304 55.4711,0.0000 57.6914,0.0103 59.9052,0.0599 62.1126,0.1470 64.3135,0.2701 66.5080,0.4275 68.6959,0.6174 70.8773,0.8380 73.0522,1.0874 75.2206,1.3640 77.3824,1.6657 79.5378,1.9907 81.6867,2.3373 83.8292,2.7036 85.9653,3.0876 88.0950,3.4878 90.2183,3.9022 92.3354,4.3292 94.4463,4.7671 96.5510,5.2141 98.6496,5.6686 100.7421,6.1292 102.8288,6.5942 104.9095,7.0622 106.9845,7.5317 109.0538,8.0013 111.1176,8.4697 113.1759,8.9355 115.2288,9.3977 117.2765,9.8548 119.3191,10.3058 121.3568,10.7496 123.3896,11.1851 125.4177,11.6112 127.4413,12.0270 129.4605,12.4315 131.4755,12.8238 133.4865,13.2031 135.4935,13.5691 137.4969,13.9744 139.4968,14.4504 141.4934,14.9939 143.4867,15.6013 145.4770,16.2685 147.4643,16.9913 149.4489,17.7651 151.4307,18.5851 153.4099,19.4465 155.3865,20.3446 157.3607,21.2746 159.3324,22.2317 161.3018,23.2116 163.2688,24.2099 165.2335,25.2226 167.1959,26.2456 169.1560,27.2755 171.1139,28.3090 173.0694,29.3429 175.0226,30.3746 176.9734,31.4014 178.9219,32.4211 180.8679,33.4317 182.8114,34.4314 184.7523,35.4186 186.6907,36.3919 188.6263,37.3502 190.5593,38.2924 192.4893,39.2176 194.4165,40.1252 196.3407,41.0145 198.2617,41.8850 200.1796,42.7364 202.0943,43.5682 204.0055,44.3803 205.9134,45.1725 207.8177,45.9447 209.7184,46.6967 211.6154,47.4287 213.5087,48.1405 215.3981,48.8321 217.2836,49.5038 219.1653,50.1554 221.0429,50.7871 222.9166,51.3989 224.7863,51.9910 226.6519,52.5635 228.5136,53.1164 230.3714,53.6499 232.2253,54.1632 234.0755,54.6380 235.9219,55.0700 237.7649,55.4626 239.6046,55.8187 241.4413,56.1407 243.2752,56.4307 245.1066,56.6903 246.9359,56.9212 248.7635,57.1245 250.5898,57.3013 252.4152,57.4525 254.2402,57.5789 256.0653,57.6810 257.8910,57.7594 259.7180,57.8144 261.5466,57.8464 263.3775,57.8554 265.2114,57.8418 267.0487,57.8054 268.8902,57.7462 270.7364,57.6642 272.5879,57.5592 274.4455,57.4309 276.3095,57.2791 278.1808,57.1033 280.0599,56.9033 281.9473,56.6784 283.8436,56.4282 285.7495,56.1521 287.6653,55.8494 289.5917,55.5193 291.5292,55.1611 293.4781,54.7739 295.4389,54.3568 297.4120,53.9087 299.3979,53.4285 301.3967,52.9150 303.4089,52.3669 305.4347,51.7826 307.4744,51.1608 309.5281,50.4996 311.5959,49.7972 313.6781,49.0514 315.7747,48.2601 317.8857,47.4206 320.0112,46.5303 322.1511,45.5858 324.3052,44.5839 326.4736,43.5204 328.6560,42.3937 330.8523,41.2300 333.0622,40.0379 335.2855,38.8185 337.5219,37.5735 339.7711,36.3043 342.0330,35.0128 344.3072,33.7009 346.5934,32.3708 348.8913,31.0249 351.2006,29.6656 353.5211,28.2958 355.8523,26.9183 358.1940,25.5362 360.5459,24.1528 362.9075,22.7715 365.2786,21.3960 367.6589,20.0299 370.0481,18.6772 372.4457,17.3419 374.8515,16.0280 377.2652,14.7396 379.6863,13.4811 382.1147,12.2565 384.5500,11.0700 386.9918,9.9259 389.4398,8.8280 391.8939,7.7803 394.3535,6.7867 396.8185,5.8506 399.2885,4.9753 401.7633,4.1640 404.2425,3.4194 406.7259,2.7441 409.2133,2.1400 411.7043,1.6090 414.1987,1.1524 416.6962,0.7711 419.1966,0.4658 421.6997,0.2364 424.2052,0.0829 426.7129,0.0044 429.2226,0.0000 431.7341,0.0681 434.2472,0.2070 436.7617,0.4146 439.2774,0.6883 441.7942,1.0255 444.3119,1.4233 446.8303,1.8783 449.3493,2.3837 451.8688,2.9151 454.3886,3.4689 456.9086,4.0453 459.4287,4.6444 461.9486,5.2663 464.4683,5.9109 466.9874,6.5781 469.5059,7.2677 472.0236,7.9795 474.5402,8.7132 477.0556,9.4683 479.5696,10.2444 482.0819,11.0410 484.5923,11.8576 487.1005,12.6933 489.6065,13.5476 492.1098,14.4198 494.6103,15.3088 497.1077,16.2140 499.6017,17.1343 502.0922,18.0689 504.5788,19.0166 507.0612,19.9766 509.5392,20.9476 512.0125,21.9285 514.4809,22.9183 516.9440,23.9158 519.4015,24.9199 521.8532,25.9292 524.2988,26.9426 526.7379,27.9590 529.1704,28.9770 531.5958,29.9956 534.0139,31.0134 536.4244,32.0292 538.8270,33.0420 541.2214,34.0505 543.6073,35.0536 545.9845,36.0501 548.3526,37.0389 550.7113,38.0189 553.0605,38.9891 555.3997,39.9485 557.7288,40.8961 560.0475,41.8309 562.3555,42.7521 564.6527,43.6586 566.9387,44.5498 569.2134,45.4248 571.4765,46.2776 573.7279,47.0889 575.9674,47.8591 578.1950,48.5900 580.4104,49.2835 582.6138,49.9413 584.8051,50.5649 586.9843,51.1557 589.1515,51.7149 591.3068,52.2438 593.4503,52.7434 595.5823,53.2148 597.7028,53.6589 599.8122,54.0766 601.9106,54.4688 603.9985,54.8361 606.0760,55.1794 608.1435,55.4994 610.2014,55.7966 612.2501,56.0716 614.2899,56.3251 616.3213,56.5576 618.3447,56.7696 620.3606,56.9615 622.3693,57.1337 624.3714,57.2867 626.3673,57.4208 628.3576,57.5364 630.3426,57.6338 632.3228,57.7132 634.2987,57.7748 636.2708,57.8190 638.2395,57.8458 640.2053,57.8554 642.1685,57.8480 644.1296,57.8235 646.0890,57.7819 648.0470,57.7234 650.0040,57.6478 651.9603,57.5550 653.9163,57.4447 655.8721,57.3169 657.8280,57.1712 659.7842,57.0072 661.7409,56.8244 663.6983,56.6223 665.6564,56.4002 667.6153,56.1572 669.5751,55.8924 671.5356,55.6047 673.4970,55.2990 675.4590,54.9900 677.4217,54.6790 679.3849,54.3662 681.3485,54.0522 683.3123,53.7371 685.2763,53.4213 687.2403,53.1052 689.2042,52.7890 691.1679,52.4730 693.1311,52.1574 695.0938,51.8423 697.0558,51.5280 699.0169,51.2146 700.9771,50.9022 702.9363,50.5908 704.8941,50.2805 706.8506,49.9712 708.8057,49.6629 710.7591,49.3555 712.7109,49.0489 714.6609,48.7428 716.6089,48.4370 718.5550,48.1312 720.4991,47.8252 722.4411,47.5184 724.3809,47.2105 726.3185,46.9010 728.2538,46.5893 730.1870,46.2748 732.1178,45.9568 734.0464,45.6346 735.9727,45.3074 737.8969,44.9743 739.8188,44.6343 741.7387,44.2865 743.6565,43.9296 745.5723,43.5625 747.4862,43.1839 749.3984,42.7924 751.3090,42.3863 753.2181,41.9642 755.1258,41.5242 757.0323,41.0644 758.9379,40.5828 760.8427,40.0770 762.7469,39.5447 764.6508,38.9831 766.5546,38.3894 768.4586,37.7605 770.3630,37.0972 772.2682,36.4050 774.1744,35.6841 776.0820,34.9345 777.9910,34.1563 779.9019,33.3500 781.8149,32.5162 783.7303,31.6554 785.6482,30.7689 787.5690,29.8576 789.4928,28.9233 791.4198,27.9677 793.3505,26.9930 795.2848,26.0019 797.2231,24.9973 799.1655,23.9827 801.1123,22.9620 803.0636,21.9396 805.0197,20.9205 806.9808,19.9099 808.9470,18.9139 810.9185,17.9388 812.8955,16.9915 814.8782,16.0792 816.8667,15.2094 818.8612,14.3899 820.8619,13.6288 822.8690,12.9339 824.8825,12.3132 826.9027,11.7741 828.9297,11.3240 830.9636,10.9694 833.0047,10.7163 835.0529,10.5696 837.1085,10.5334 839.1717,10.6105 841.2424,10.8026 843.3210,11.1102 845.4074,11.5325 847.5018,12.0672 849.6043,12.7111 851.7151,13.4596 853.8343,14.3073 855.9619,15.2477 858.0981,16.2738 860.2429,17.3776 862.3966,18.5512 864.5592,19.7860 866.7307,21.0736 868.9113,22.4056 897.2578,22.4056 897.2578,119.3266 868.9113,119.3266 866.7307,120.6586 864.5592,121.9462 862.3966,123.1810 860.2429,124.3546 858.0981,125.4584 855.9619,126.4845 853.8343,127.4249 851.7151,128.2726 849.6043,129.0211 847.5018,129.6650 845.4074,130.1997 843.3210,130.6219 841.2424,130.9296 839.1717,131.1217 837.1085,131.1988 835.0529,131.1626 833.0047,131.0159 830.9636,130.7628 828.9297,130.4082 826.9027,129.9581 824.8825,129.4190 822.8690,128.7983 820.8619,128.1034 818.8612,127.3423 816.8667,126.5228 814.8782,125.6530 812.8955,124.7407 810.9185,123.7934 808.9470,122.8183 806.9808,121.8223 805.0197,120.8117 803.0636,119.7926 801.1123,118.7702 799.1655,117.7495 797.2231,116.7349 795.2848,115.7303 793.3505,114.7392 791.4198,113.7645 789.4928,112.8089 787.5690,111.8746 785.6482,110.9633 783.7303,110.0767 781.8149,109.2160 779.9019,108.3822 777.9910,107.5759 776.0820,106.7977 774.1744,106.0481 772.2682,105.3271 770.3630,104.6350 768.4586,103.9717 766.5546,103.3428 764.6508,102.7491 762.7469,102.1875 760.8427,101.6552 758.9379,101.1494 757.0323,100.6677 755.1258,100.2080 753.2181,99.7680 751.3090,99.3459 749.3984,98.9398 747.4862,98.5483 745.5723,98.1697 743.6565,97.8026 741.7387,97.4457 739.8188,97.0978 737.8969,96.7579 735.9727,96.4248 734.0464,96.0976 732.1178,95.7754 730.1870,95.4574 728.2538,95.1429 726.3185,94.8312 724.3809,94.5217 722.4411,94.2138 720.4991,93.9070 718.5550,93.6010 716.6089,93.2952 714.6609,92.9894 712.7109,92.6833 710.7591,92.3767 708.8057,92.0693 706.8506,91.7610 704.8941,91.4517 702.9363,91.1414 700.9771,90.8300 699.0169,90.5176 697.0558,90.2042 695.0938,89.8899 693.1311,89.5748 691.1679,89.2592 689.2042,88.9432 687.2403,88.6270 685.2763,88.3109 683.3123,87.9951 681.3485,87.6800 679.3849,87.3660 677.4217,87.0532 675.4590,86.7422 673.4970,86.4332 671.5356,86.1275 669.5751,85.8397 667.6153,85.5750 665.6564,85.3320 663.6983,85.1099 661.7409,84.9078 659.7842,84.7250 657.8280,84.5610 655.8721,84.4153 653.9163,84.2874 651.9603,84.1772 650.0040,84.0844 648.0470,84.0088 646.0890,83.9503 644.1296,83.9087 642.1685,83.8842 640.2053,83.8768 638.2395,83.8864 636.2708,83.9132 634.2987,83.9574 632.3228,84.0190 630.3426,84.0984 628.3576,84.1958 626.3673,84.3114 624.3714,84.4455 622.3693,84.5985 620.3606,84.7707 618.3447,84.9626 616.3213,85.1746 614.2899,85.4070 612.2501,85.6606 610.2014,85.9356 608.1435,86.2328 606.0760,86.5528 603.9985,86.8961 601.9106,87.2634 599.8122,87.6556 597.7028,88.0733 595.5823,88.5174 593.4503,88.9888 591.3068,89.4884 589.1515,90.0173 586.9843,90.5765 584.8051,91.1673 582.6138,91.7909 580.4104,92.4487 578.1950,93.1422 575.9674,93.8731 573.7279,94.6433 571.4765,95.4546 569.2134,96.3074 566.9387,97.1824 564.6527,98.0736 562.3555,98.9801 560.0475,99.9013 557.7288,100.8361 555.3997,101.7837 553.0605,102.7431 550.7113,103.7133 548.3526,104.6933 545.9845,105.6821 543.6073,106.6786 541.2214,107.6817 538.8270,108.6902 536.4244,109.7030 534.0139,110.7188 531.5958,111.7366 529.1704,112.7552 526.7379,113.7732 524.2988,114.7896 521.8532,115.8030 519.4015,116.8123 516.9440,117.8163 514.4809,118.8138 512.0125,119.8037 509.5392,120.7846 507.0612,121.7556 504.5788,122.7156 502.0922,123.6633 499.6017,124.5979 497.1077,125.5182 494.6103,126.4234 492.1098,127.3124 489.6065,128.1845 487.1005,129.0389 484.5923,129.8746 482.0819,130.6912 479.5696,131.4878 477.0556,132.2639 474.5402,133.0190 472.0236,133.7527 469.5059,134.4645 466.9874,135.1541 464.4683,135.8213 461.9486,136.4659 459.4287,137.0877 456.9086,137.6869 454.3886,138.2633 451.8688,138.8171 449.3493,139.3485 446.8303,139.8539 444.3119,140.3089 441.7942,140.7067 439.2774,141.0439 436.7617,141.3176 434.2472,141.5252 431.7341,141.6641 429.2226,141.7322 426.7129,141.7278 424.2052,141.6493 421.6997,141.4958 419.1966,141.2664 416.6962,140.9611 414.1987,140.5798 411.7043,140.1232 409.2133,139.5922 406.7259,138.9881 404.2425,138.3127 401.7633,137.5682 399.2885,136.7569 396.8185,135.8816 394.3535,134.9455 391.8939,133.9519 389.4398,132.9042 386.9918,131.8063 384.5500,130.6622 382.1147,129.4757 379.6863,128.2511 377.2652,126.9926 374.8515,125.7042 372.4457,124.3903 370.0481,123.0550 367.6589,121.7023 365.2786,120.3362 362.9075,118.9607 360.5459,117.5794 358.1940,116.1960 355.8523,114.8139 353.5211,113.4364 351.2006,112.0666 348.8913,110.7073 346.5934,109.3614 344.3072,108.0313 342.0330,106.7194 339.7711,105.4279 337.5219,104.1587 335.2855,102.9137 333.0622,101.6943 330.8523,100.5022 328.6560,99.3385 326.4736,98.2118 324.3052,97.1483 322.1511,96.1463 320.0112,95.2019 317.8857,94.3116 315.7747,93.4721 313.6781,92.6808 311.5959,91.9350 309.5281,91.2326 307.4744,90.5714 305.4347,89.9495 303.4089,89.3653 301.3967,88.8172 299.3979,88.3037 297.4120,87.8235 295.4389,87.3754 293.4781,86.9583 291.5292,86.5711 289.5917,86.2129 287.6653,85.8828 285.7495,85.5801 283.8436,85.3040 281.9473,85.0538 280.0599,84.8289 278.1808,84.6288 276.3095,84.4531 274.4455,84.3013 272.5879,84.1730 270.7364,84.0680 268.8902,83.9860 267.0487,83.9268 265.2114,83.8904 263.3775,83.8768 261.5466,83.8858 259.7180,83.9178 257.8910,83.9728 256.0653,84.0512 254.2402,84.1533 252.4152,84.2797 250.5898,84.4309 248.7635,84.6077 246.9359,84.8110 245.1066,85.0419 243.2752,85.3015 241.4413,85.5915 239.6046,85.9135 237.7649,86.2696 235.9219,86.6622 234.0755,87.0942 232.2253,87.5690 230.3714,88.0823 228.5136,88.6158 226.6519,89.1687 224.7863,89.7411 222.9166,90.3333 221.0429,90.9451 219.1653,91.5768 217.2836,92.2284 215.3981,92.9000 213.5087,93.5917 211.6154,94.3035 209.7184,95.0354 207.8177,95.7875 205.9134,96.5597 204.0055,97.3519 202.0943,98.1640 200.1796,98.9958 198.2617,99.8472 196.3407,100.7177 194.4165,101.6070 192.4893,102.5146 190.5593,103.4398 188.6263,104.3820 186.6907,105.3403 184.7523,106.3136 182.8114,107.3008 180.8679,108.3005 178.9219,109.3111 176.9734,110.3308 175.0226,111.3576 173.0694,112.3893 171.1139,113.4232 169.1560,114.4567 167.1959,115.4866 165.2335,116.5096 163.2688,117.5222 161.3018,118.5206 159.3324,119.5005 157.3607,120.4576 155.3865,121.3876 153.4099,122.2857 151.4307,123.1471 149.4489,123.9671 147.4643,124.7409 145.4770,125.4637 143.4867,126.1309 141.4934,126.7383 139.4968,127.2818 137.4969,127.7578 135.4935,128.1631 133.4865,128.5291 131.4755,128.9084 129.4605,129.3007 127.4413,129.7052 125.4177,130.1210 123.3896,130.5471 121.3568,130.9826 119.3191,131.4264 117.2765,131.8774 115.2288,132.3345 113.1759,132.7966 111.1176,133.2625 109.0538,133.7309 106.9845,134.2005 104.9095,134.6700 102.8288,135.1380 100.7421,135.6030 98.6496,136.0635 96.5510,136.5181 94.4463,136.9651 92.3354,137.4030 90.2183,137.8300 88.0950,138.2444 85.9653,138.6445 83.8292,139.0286 81.6867,139.3949 79.5378,139.7414 77.3824,140.0665 75.2206,140.3682 73.0522,140.6447 70.8773,140.8942 68.6959,141.1148 66.5080,141.3047 64.3135,141.4621 62.1126,141.5852 59.9052,141.6723 57.6914,141.7219 55.4711,141.7322 53.2445,141.7018 51.0115,141.6292 48.7723,141.5131 46.5268,141.3522 44.2751,141.1455 42.0173,140.8919 39.7535,140.5906 37.4837,140.2408 35.2080,139.8419 32.9265,139.3936 30.6393,138.8955 28.3464,138.3475 0.0000,138.3475 0.0000,3.3847" stroke="black" fill="none"/>
</svg>