<svg width="1305.4824" height="141.7322" xmlns="http://www.w3.org/2000/svg">
<polyline points="0.0000,18.7612 28.3464,18.7612 31.5246,17.8231 34.7213,16.9010 37.9360,15.9958 41.1682,15.1084 44.4176,14.2397 47.6836,13.3904 50.9658,12.5614 54.2636,11.7534 57.5766,10.9674 60.9044,10.2039 64.2464,9.4637 67.6022,8.7475 70.9713,8.0560 74.3532,7.3897 77.7475,6.7493 81.1537,6.1354 84.5714,5.5484 87.9999,4.9889 91.4390,4.4574 94.8881,3.9542 98.3468,3.4799 101.8145,3.0348 105.2909,2.6192 108.7754,2.2334 112.2675,1.8778 115.7669,1.5525 119.2731,1.2578 122.7856,0.9939 126.3038,0.7609 129.8275,0.5588 133.3561,0.3879 136.8891,0.2481 140.4261,0.1395 143.9666,0.0619 147.5103,0.0155 151.0565,0.0000 154.6050,0.0154 158.1551,0.0614 161.7065,0.1380 165.2588,0.2449 168.8114,0.3819 172.3640,0.5486 175.9160,0.7448 179.4671,0.9702 183.0168,1.2243 186.5647,1.5068 190.1103,1.8173 193.6532,2.1552 197.1929,2.5202 200.7291,2.9118 204.2613,3.3293 207.7891,3.7723 211.3120,4.2402 214.8296,4.7324 218.3416,5.2482 221.8474,5.7871 225.3468,6.3484 228.8392,6.9314 232.3243,7.5354 235.8016,8.1597 239.2708,8.8035 242.7315,9.4662 246.1832,10.1470 249.6256,10.8450 253.0583,11.5595 256.4809,12.2898 259.8930,13.0349 263.2943,13.7942 266.6843,14.5667 270.0628,15.3516 273.4293,16.1482 276.7835,16.9555 280.1251,17.7726 283.4536,18.5989 286.7688,19.4333 290.0704,20.2751 293.3579,21.1234 296.6311,21.9773 299.8896,22.8360 303.1332,23.6986 306.3616,24.5643 309.5743,25.4323 312.7713,26.3017 315.9521,27.1718 319.1166,28.0416 322.2643,28.9104 325.3952,29.7773 328.5090,30.6417 331.6053,31.5027 334.6841,32.3596 337.7450,33.2115 340.7879,34.0579 343.8126,34.8979 346.8189,35.7310 349.8067,36.5562 352.7758,37.3732 355.7260,38.1810 358.6573,38.9793 361.5695,39.7673 364.4625,40.5444 367.3363,41.3101 370.1908,42.0638 373.0260,42.8051 375.8418,43.5334 378.6383,44.2482 381.4155,44.9491 384.1733,45.6356 386.9119,46.3073 389.6314,46.9639 392.3319,47.6050 395.0134,48.2302 397.6763,48.8392 400.3205,49.4318 402.9465,50.0076 405.5544,50.5663 408.1444,51.1079 410.7170,51.6319 413.2724,52.1384 415.8111,52.6270 418.3333,53.0977 420.8397,53.5502 423.3306,53.9846 425.8065,54.4006 428.2681,54.7982 430.7159,55.1773 433.1506,55.5379 435.5728,55.8799 437.9832,56.2033 440.3827,56.5080 442.7720,56.7940 445.1520,57.0613 447.5235,57.3098 449.8875,57.5396 452.2450,57.5125 454.5969,57.4708 456.9443,57.4148 459.2881,57.3444 461.6293,57.2598 463.9687,57.1610 466.3074,57.0482 468.6460,56.9215 470.9856,56.7809 473.3269,56.6266 475.6706,56.4588 478.0176,56.2774 480.3686,56.0828 482.7244,55.8749 485.0855,55.6540 487.4526,55.4201 489.8264,55.1736 492.2074,54.9145 494.5962,54.6431 496.9934,54.3595 499.3995,54.0640 501.8149,53.7568 504.2401,53.4382 506.6755,53.1085 509.1216,52.7679 511.5787,52.4167 514.0471,52.0554 516.5273,51.6841 519.0194,51.3034 521.5238,50.9135 524.0407,50.5149 526.5704,50.1080 529.1131,49.6933 531.6690,49.2712 534.2382,48.8422 536.8209,48.4069 539.4172,47.9658 542.0273,47.5193 544.6512,47.0682 547.2890,46.6129 549.9409,46.1541 552.6067,45.6925 555.2866,45.2286 557.9806,44.7632 560.6887,44.2969 563.4109,43.8304 566.1470,43.3644 568.8972,42.8997 571.6613,42.4370 574.4393,41.9770 577.2312,41.5204 580.0367,41.0682 582.8558,40.6210 585.6885,40.1796 588.5345,39.7448 591.3939,39.3174 594.2663,38.8982 597.1518,38.4880 600.0500,38.0875 602.9609,37.6976 605.8843,37.3190 608.8201,36.9525 611.7679,36.5989 614.7277,36.2589 617.6993,35.9333 620.6823,35.6228 623.6767,35.3280 626.6822,35.0498 629.6985,34.7888 632.7255,34.5457 635.7630,34.3210 638.8106,34.1154 641.8681,33.9294 644.9353,33.7637 648.0119,33.6188 651.0977,33.4951 654.1924,33.3931 657.2957,33.3132 660.4074,33.2559 663.5272,33.2215 666.6548,33.2103 669.7900,33.2226 672.9324,33.2586 676.0818,33.3185 679.2379,33.4025 682.4004,33.5107 685.5689,33.6432 688.7433,33.7999 691.9232,33.9810 695.1083,34.1862 698.2982,34.4155 701.4928,34.6687 704.6916,34.9457 707.8945,35.2462 711.1010,35.5699 714.3108,35.9164 717.5237,36.2854 720.7393,36.6765 723.9573,37.0891 727.1775,37.5229 730.3993,37.9772 733.6227,38.4514 736.8472,38.9450 740.0725,39.4573 743.2983,39.9875 746.5242,40.5350 749.7500,41.0990 752.9754,41.6786 756.1999,42.2732 759.4233,42.8817 762.6453,43.5035 765.8655,44.1375 769.0836,44.7829 772.2993,45.4387 775.5123,46.1041 778.7222,46.7780 781.9287,47.4595 785.1314,48.1477 788.3302,48.8415 791.5246,49.5399 794.7143,50.2421 797.8991,50.9470 801.0785,51.6537 804.2523,52.3612 807.4201,53.0685 810.5817,53.7748 813.7367,54.4790 816.8848,55.1803 820.0258,55.8778 823.1592,56.5706 826.2848,57.2578 829.4022,57.9387 832.5113,58.6124 835.6116,58.7061 838.7035,58.7975 841.7869,58.8871 844.8622,58.9750 847.9293,59.0614 850.9884,59.1465 854.0397,59.2305 857.0831,59.3135 860.1189,59.3957 863.1470,59.4771 866.1675,59.5581 869.1805,59.6386 872.1859,59.7188 875.1839,59.7987 878.1743,59.8785 881.1573,59.9583 884.1328,60.0381 887.1008,60.1179 890.0612,60.1978 893.0142,60.2779 895.9597,60.3581 898.8975,60.4385 901.8278,60.5191 904.7505,60.5999 907.6656,60.6809 910.5729,60.7620 913.4726,60.8432 916.3646,60.9245 919.2489,61.0059 922.1254,61.0872 924.9941,61.1684 927.8551,61.2494 930.7084,61.3302 933.5539,61.4107 936.3918,61.4906 939.2220,61.5701 942.0445,61.6488 944.8595,61.7268 947.6669,61.8038 950.4670,61.8798 953.2598,61.9545 956.0454,62.0279 958.8239,62.0998 961.5956,62.1699 964.3605,62.2382 967.1189,62.3045 969.8711,62.3686 972.6172,62.4302 975.3575,62.4892 978.0923,62.5454 980.8220,62.5985 983.5468,62.6484 986.2672,62.6948 988.9836,62.7375 991.6964,62.7763 994.4061,62.8108 997.1132,62.8409 999.8182,62.8663 1002.5217,62.8867 1005.2243,62.9018 1007.9267,62.9114 1010.6295,62.9152 1013.3335,62.9127 1016.0393,62.9038 1018.7478,62.8881 1021.4599,62.8652 1024.1763,62.8348 1026.8981,62.7965 1029.6260,62.7500 1032.3612,62.6947 1035.1045,62.6304 1037.8572,62.5565 1040.6201,62.4727 1043.3946,62.3783 1046.1816,62.2730 1048.9825,62.1562 1051.7984,62.0274 1054.6305,61.8859 1057.4802,61.7312 1060.3487,61.5627 1063.2374,61.3796 1066.1476,61.1814 1069.0806,60.9673 1072.0380,60.7366 1075.0210,60.4884 1078.0312,60.2219 1081.0699,59.9364 1084.1386,59.6309 1087.2389,59.3044 1090.3721,58.9560 1093.5398,58.5848 1096.7434,58.1896 1099.9845,57.7693 1103.2645,57.3229 1106.5851,56.8491 1109.9476,56.3468 1113.3536,55.8146 1116.8046,55.2513 1120.3020,54.6555 1123.8475,54.0259 1127.4425,53.3609 1131.0885,52.6592 1134.7870,51.9191 1138.5394,51.1391 1142.3472,50.3176 1146.2119,49.4530 1150.1350,48.5434 1154.1178,47.5873 1158.1619,46.5828 1162.2686,45.5281 1166.4393,44.4213 1170.6755,43.2605 1174.9786,42.0438 1179.3499,40.7692 1183.7909,39.4347 1188.3028,38.0383 1192.8870,36.5778 1197.5449,35.0513 1202.2778,33.4565 1207.0871,31.7914 1211.9740,30.0537 1216.9398,28.2413 1221.9858,26.3519 1227.1134,24.3834 1232.3237,22.3335 1237.6181,20.1999 1242.9977,17.9805 1248.4640,15.6729 1254.0179,13.2751 1259.6609,10.7846 1265.3941,8.1993 1271.2187,5.5171 1277.1360,2.7357 1305.4824,2.7357 1305.4824,138.9965 1277.1360,138.9965 1271.2187,136.2151 1265.3941,133.5328 1259.6609,130.9476 1254.0179,128.4571 1248.4640,126.0593 1242.9977,123.7517 1237.6181,121.5323 1232.3237,119.3987 1227.1134,117.3488 1221.9858,115.3803 1216.9398,113.4909 1211.9740,111.6785 1207.0871,109.9408 1202.2778,108.2757 1197.5449,106.6809 1192.8870,105.1544 1188.3028,103.6939 1183.7909,102.2975 1179.3499,100.9630 1174.9786,99.6884 1170.6755,98.4717 1166.4393,97.3109 1162.2686,96.2041 1158.1619,95.1494 1154.1178,94.1449 1150.1350,93.1887 1146.2119,92.2792 1142.3472,91.4146 1138.5394,90.5931 1134.7870,89.8131 1131.0885,89.0730 1127.4425,88.3713 1123.8475,87.7063 1120.3020,87.0766 1116.8046,86.4809 1113.3536,85.9176 1109.9476,85.3854 1106.5851,84.8831 1103.2645,84.4093 1099.9845,83.9629 1096.7434,83.5426 1093.5398,83.1474 1090.3721,82.7762 1087.2389,82.4278 1084.1386,82.1013 1081.0699,81.7958 1078.0312,81.5103 1075.0210,81.2438 1072.0380,80.9956 1069.0806,80.7649 1066.1476,80.5508 1063.2374,80.3526 1060.3487,80.1695 1057.4802,80.0010 1054.6305,79.8463 1051.7984,79.7048 1048.9825,79.5760 1046.1816,79.4592 1043.3946,79.3539 1040.6201,79.2595 1037.8572,79.1757 1035.1045,79.1018 1032.3612,79.0374 1029.6260,78.9822 1026.8981,78.9357 1024.1763,78.8974 1021.4599,78.8670 1018.7478,78.8441 1016.0393,78.8284 1013.3335,78.8195 1010.6295,78.8170 1007.9267,78.8208 1005.2243,78.8304 1002.5217,78.8455 999.8182,78.8659 997.1132,78.8913 994.4061,78.9214 991.6964,78.9559 988.9836,78.9947 986.2672,79.0374 983.5468,79.0838 980.8220,79.1337 978.0923,79.1868 975.3575,79.2430 972.6172,79.3020 969.8711,79.3636 967.1189,79.4277 964.3605,79.4940 961.5956,79.5623 958.8239,79.6324 956.0454,79.7043 953.2598,79.7777 950.4670,79.8524 947.6669,79.9284 944.8595,80.0054 942.0445,80.0834 939.2220,80.1621 936.3918,80.2416 933.5539,80.3215 930.7084,80.4020 927.8551,80.4828 924.9941,80.5638 922.1254,80.6450 919.2489,80.7263 916.3646,80.8077 913.4726,80.8890 910.5729,80.9702 907.6656,81.0513 904.7505,81.1323 901.8278,81.2131 898.8975,81.2937 895.9597,81.3741 893.0142,81.4543 890.0612,81.5344 887.1008,81.6143 884.1328,81.6941 881.1573,81.7739 878.1743,81.8537 875.1839,81.9335 872.1859,82.0134 869.1805,82.0936 866.1675,82.1741 863.1470,82.2550 860.1189,82.3365 857.0831,82.4187 854.0397,82.5017 850.9884,82.5857 847.9293,82.6708 844.8622,82.7572 841.7869,82.8451 838.7035,82.9347 835.6116,83.0261 832.5113,83.1197 829.4022,83.7935 826.2848,84.4744 823.1592,85.1616 820.0258,85.8544 816.8848,86.5519 813.7367,87.2532 810.5817,87.9574 807.4201,88.6637 804.2523,89.3710 801.0785,90.0785 797.8991,90.7852 794.7143,91.4901 791.5246,92.1923 788.3302,92.8907 785.1314,93.5845 781.9287,94.2727 778.7222,94.9542 775.5123,95.6281 772.2993,96.2935 769.0836,96.9493 765.8655,97.5947 762.6453,98.2287 759.4233,98.8505 756.1999,99.4590 752.9754,100.0536 749.7500,100.6332 746.5242,101.1972 743.2983,101.7447 740.0725,102.2749 736.8472,102.7872 733.6227,103.2807 730.3993,103.7550 727.1775,104.2093 723.9573,104.6431 720.7393,105.0557 717.5237,105.4468 714.3108,105.8158 711.1010,106.1623 707.8945,106.4860 704.6916,106.7865 701.4928,107.0635 698.2982,107.3167 695.1083,107.5460 691.9232,107.7512 688.7433,107.9323 685.5689,108.0890 682.4004,108.2215 679.2379,108.3297 676.0818,108.4137 672.9324,108.4736 669.7900,108.5096 666.6548,108.5219 663.5272,108.5107 660.4074,108.4763 657.2957,108.4190 654.1924,108.3391 651.0977,108.2371 648.0119,108.1134 644.9353,107.9685 641.8681,107.8028 638.8106,107.6168 635.7630,107.4112 632.7255,107.1865 629.6985,106.9434 626.6822,106.6823 623.6767,106.4041 620.6823,106.1094 617.6993,105.7989 614.7277,105.4733 611.7679,105.1333 608.8201,104.7797 605.8843,104.4132 602.9609,104.0346 600.0500,103.6447 597.1518,103.2442 594.2663,102.8340 591.3939,102.4148 588.5345,101.9874 585.6885,101.5526 582.8558,101.1112 580.0367,100.6640 577.2312,100.2117 574.4393,99.7552 571.6613,99.2952 568.8972,98.8325 566.1470,98.3678 563.4109,97.9018 560.6887,97.4353 557.9806,96.9690 555.2866,96.5036 552.6067,96.0397 549.9409,95.5780 547.2890,95.1193 544.6512,94.6640 542.0273,94.2129 539.4172,93.7664 536.8209,93.3253 534.2382,92.8900 531.6690,92.4610 529.1131,92.0389 526.5704,91.6242 524.0407,91.2173 521.5238,90.8187 519.0194,90.4288 516.5273,90.0481 514.0471,89.6768 511.5787,89.3155 509.1216,88.9643 506.6755,88.6237 504.2401,88.2940 501.8149,87.9754 499.3995,87.6682 496.9934,87.3727 494.5962,87.0891 492.2074,86.8177 489.8264,86.5586 487.4526,86.3121 485.0855,86.0782 482.7244,85.8573 480.3686,85.6494 478.0176,85.4548 475.6706,85.2734 473.3269,85.1056 470.9856,84.9513 468.6460,84.8107 466.3074,84.6840 463.9687,84.5712 461.6293,84.4724 459.2881,84.3878 456.9443,84.3174 454.5969,84.2614 452.2450,84.2197 449.8875,84.1926 447.5235,84.4224 445.1520,84.6709 442.7720,84.9382 440.3827,85.2242 437.9832,85.5289 435.5728,85.8523 433.1506,86.1943 430.7159,86.5549 428.2681,86.9340 425.8065,87.3316 423.3306,87.7476 420.8397,88.1820 418.3333,88.6345 415.8111,89.1052 413.2724,89.5938 410.7170,90.1002 408.1444,90.6243 405.5544,91.1659 402.9465,91.7246 400.3205,92.3004 397.6763,92.8929 395.0134,93.5020 392.3319,94.1272 389.6314,94.7682 386.9119,95.4248 384.1733,96.0966 381.4155,96.7831 378.6383,97.4840 375.8418,98.1988 373.0260,98.9271 370.1908,99.6684 367.3363,100.4221 364.4625,101.1878 361.5695,101.9649 358.6573,102.7529 355.7260,103.5511 352.7758,104.3590 349.8067,105.1760 346.8189,106.0012 343.8126,106.8342 340.7879,107.6743 337.7450,108.5207 334.6841,109.3726 331.6053,110.2295 328.5090,111.0905 325.3952,111.9549 322.2643,112.8218 319.1166,113.6906 315.9521,114.5604 312.7713,115.4305 309.5743,116.2999 306.3616,117.1679 303.1332,118.0336 299.8896,118.8962 296.6311,119.7549 293.3579,120.6088 290.0704,121.4571 286.7688,122.2989 283.4536,123.1333 280.1251,123.9596 276.7835,124.7767 273.4293,125.5840 270.0628,126.3806 266.6843,127.1655 263.2943,127.9380 259.8930,128.6972 256.4809,129.4424 253.0583,130.1727 249.6256,130.8872 246.1832,131.5852 242.7315,132.2660 239.2708,132.9287 235.8016,133.5725 232.3243,134.1968 228.8392,134.8008 225.3468,135.3838 221.8474,135.9451 218.3416,136.4840 214.8296,136.9998 211.3120,137.4920 207.7891,137.9599 204.2613,138.4029 200.7291,138.8204 197.1929,139.2120 193.6532,139.5770 190.1103,139.9149 186.5647,140.2254 183.0168,140.5079 179.4671,140.7620 175.9160,140.9874 172.3640,141.1836 168.8114,141.3503 165.2588,141.4873 161.7065,141.5942 158.1551,141.6707 154.6050,141.7168 151.0565,141.7322 147.5103,141.7167 143.9666,141.6702 140.4261,141.5927 136.8891,141.4841 133.3561,141.3443 129.8275,141.1734 126.3038,140.9713 122.7856,140.7383 119.2731,140.4744 115.7669,140.1797 112.2675,139.8544 108.7754,139.4988 105.2909,139.1130 101.8145,138.6974 98.3468,138.2523 94.8881,137.7780 91.4390,137.2748 87.9999,136.7433 84.5714,136.1838 81.1537,135.5968 77.7475,134.9829 74.3532,134.3425 70.9713,133.6762 67.6022,132.9847 64.2464,132.2685 60.9044,131.5283 57.5766,130.7648 54.2636,129.9787 50.9658,129.1708 47.6836,128.3418 44.4176,127.4925 41.1682,126.6238 37.9360,125.7363 34.7213,124.8312 31.5246,123.9091 28.3464,122.9710 0.0000,122.9710 0.0000,18.7612" stroke="black" fill="none"/>
</svg>