<svg version="1.1" xmlns="http://www.w3.org/2000/svg" x="0px" y="0px" viewBox="-14.1732194 -70.8660971 868.9113114 141.7321942" style="enable-background:new -14.1732194 -70.8660971 868.9113114 141.7321942;" xml:space="preserve">
<style type="text/css">
	.st0{fill:#00A651;stroke:#000000;stroke-miterlimitstroke-miterlimit:10;}
</style>
	<path class="st0" d="M0.0000000,NaNL0.0000000,NaNL2.2928294,NaNL4.5800430,NaNL6.8615438,NaNL9.1372407,NaNL11.4070475,NaNL13.6708839,NaNL15.9286749,NaNL18.1803510,NaNL20.4258481,NaNL22.6651077,NaNL24.8980769,NaNL27.1247083,NaNL29.3449599,NaNL31.5587955,NaNL33.7661844,NaNL35.9671015,NaNL38.1615273,NaNL40.3494480,NaNL42.5308554,NaNL44.7057471,NaNL46.8741261,NaNL49.0360015,NaNL51.1913878,NaNL53.3403053,NaNL55.4827803,NaNL57.6188445,NaNL59.7485357,NaNL61.8718973,NaNL63.9889786,NaNL66.0998349,NaNL68.2045270,NaNL70.3031220,NaNL72.3956925,NaNL74.4823174,NaNL76.5630811,NaNL78.6380744,NaNL80.7073937,NaNL82.6785121,NaNL80.7073937,NaNL78.6380744,NaNL76.5630811,NaNL74.4823174,NaNL72.3956925,NaNL70.3031220,NaNL68.2045270,NaNL66.0998349,NaNL63.9889786,NaNL61.8718973,NaNL59.7485357,NaNL57.6188445,NaNL55.4827803,NaNL53.3403053,NaNL51.1913878,NaNL49.0360015,NaNL46.8741261,NaNL44.7057471,NaNL42.5308554,NaNL40.3494480,NaNL38.1615273,NaNL35.9671015,NaNL33.7661844,NaNL31.5587955,NaNL29.3449599,NaNL27.1247083,NaNL24.8980769,NaNL22.6651077,NaNL20.4258481,NaNL18.1803510,NaNL15.9286749,NaNL13.6708839,NaNL11.4070475,NaNL9.1372407,NaNL6.8615438,NaNL4.5800430,NaNL2.2928294,NaNL0.0000000,NaNz M0.0000000,NaNL0.0000000,NaNL2.2928294,NaNL4.5800430,NaNL6.8615438,NaNL9.1372407,NaNL11.4070475,NaNL13.6708839,NaNL15.9286749,NaNL18.1803510,NaNL20.4258481,NaNL22.6651077,NaNL24.8980769,NaNL27.1247083,NaNL29.3449599,NaNL31.5587955,NaNL33.7661844,NaNL35.9671015,NaNL38.1615273,NaNL40.3494480,NaNL42.5308554,NaNL44.7057471,NaNL46.8741261,NaNL49.0360015,NaNL51.1913878,NaNL53.3403053,NaNL55.4827803,NaNL57.6188445,NaNL59.7485357,NaNL61.8718973,NaNL63.9889786,NaNL66.0998349,NaNL68.2045270,NaNL70.3031220,NaNL72.3956925,NaNL74.4823174,NaNL76.5630811,NaNL78.6380744,NaNL80.7073937,NaNL82.6785121,NaNL80.7073937,NaNL78.6380744,NaNL76.5630811,NaNL74.4823174,NaNL72.3956925,NaNL70.3031220,NaNL68.2045270,NaNL66.0998349,NaNL63.9889786,NaNL61.8718973,NaNL59.7485357,NaNL57.6188445,NaNL55.4827803,NaNL53.3403053,NaNL51.1913878,NaNL49.0360015,NaNL46.8741261,NaNL44.7057471,NaNL42.5308554,NaNL40.3494480,NaNL38.1615273,NaNL35.9671015,NaNL33.7661844,NaNL31.5587955,NaNL29.3449599,NaNL27.1247083,NaNL24.8980769,NaNL22.6651077,NaNL20.4258481,NaNL18.1803510,NaNL15.9286749,NaNL13.6708839,NaNL11.4070475,NaNL9.1372407,NaNL6.8615438,NaNL4.5800430,NaNL2.2928294,NaNL0.0000000,NaNz M0.0000000,NaNL0.0000000,NaNL2.2928294,NaNL4.5800430,NaNL6.8615438,NaNL9.1372407,NaNL11.4070475,NaNL13.6708839,NaNL15.9286749,NaNL18.1803510,NaNL20.4258481,NaNL22.6651077,NaNL24.8980769,NaNL27.1247083,NaNL29.3449599,NaNL31.5587955,NaNL33.7661844,NaNL35.9671015,NaNL38.1615273,NaNL40.3494480,NaNL42.5308554,NaNL44.7057471,NaNL46.8741261,NaNL49.0360015,NaNL51.1913878,NaNL53.3403053,NaNL55.4827803,NaNL57.6188445,NaNL59.7485357,NaNL61.8718973,NaNL63.9889786,NaNL66.0998349,NaNL68.2045270,NaNL70.3031220,NaNL72.3956925,NaNL74.4823174,NaNL76.5630811,NaNL78.6380744,NaNL80.7073937,NaNL82.6785121,NaNL80.7073937,NaNL78.6380744,NaNL76.5630811,NaNL74.4823174,NaNL72.3956925,NaNL70.3031220,NaNL68.2045270,NaNL66.0998349,NaNL63.9889786,NaNL61.8718973,NaNL59.7485357,NaNL57.6188445,NaNL55.4827803,NaNL53.3403053,NaNL51.1913878,NaNL49.0360015,NaNL46.8741261,NaNL44.7057471,NaNL42.5308554,NaNL40.3494480,NaNL38.1615273,NaNL35.9671015,NaNL33.7661844,NaNL31.5587955,NaNL29.3449599,NaNL27.1247083,NaNL24.8980769,NaNL22.6651077,NaNL20.4258481,NaNL18.1803510,NaNL15.9286749,NaNL13.6708839,NaNL11.4070475,NaNL9.1372407,NaNL6.8615438,NaNL4.5800430,NaNL2.2928294,NaNL0.0000000,NaNz M96.4582641,NaNL97.0712543,NaNL99.0948455,NaNL101.1140600,NaNL103.1290611,NaNL105.1400182,NaNL107.1471067,NaNL109.1505073,NaNL111.1503955,NaNL113.1469347,NaNL115.1402757,NaNL117.1305569,NaNL119.1179048,NaNL121.1024336,NaNL123.0842456,NaNL125.0634316,NaNL127.0400710,NaNL129.0142319,NaNL130.9859714,NaNL132.9553359,NaNL134.9223612,NaNL136.8870730,NaNL138.8494869,NaNL140.8096089,NaNL142.7674359,NaNL144.7229554,NaNL146.6761465,NaNL148.6269802,NaNL150.5754192,NaNL152.5214193,NaNL154.4649289,NaNL156.4058902,NaNL158.3442393,NaNL160.2799069,NaNL162.2128188,NaNL164.1428967,NaNL166.0700586,NaNL167.9942196,NaNL169.9152927,NaNL171.8331894,NaNL173.7478208,NaNL175.6590983,NaNL177.5669343,NaNL179.4712437,NaNL181.3719446,NaNL183.2689595,NaNL185.1622162,NaNL187.0516496,NaNL188.9372024,NaNL190.8188271,NaNL192.6964867,NaNL194.5701568,NaNL196.4398272,NaNL198.3055033,NaNL200.1672080,NaNL202.0249836,NaNL203.8788938,NaNL205.7290271,NaNL207.5755068,NaNL209.4184957,NaNL211.2581956,NaNL213.0948468,NaNL214.9287268,NaNL216.7601495,NaNL218.5894636,NaNL220.4170515,NaNL222.2433273,NaNL224.0687352,NaNL225.8937476,NaNL227.7188628,NaNL229.5446028,NaNL231.3715112,NaNL233.2001502,NaNL235.0310983,NaNL236.8649474,NaNL238.7023003,NaNL240.5437675,NaNL242.3899646,NaNL244.2415091,NaNL246.0990179,NaNL247.9631039,NaNL248.0355362,NaNL247.9631039,NaNL246.0990179,NaNL244.2415091,NaNL242.3899646,NaNL240.5437675,NaNL238.7023003,NaNL236.8649474,NaNL235.0310983,NaNL233.2001502,NaNL231.3715112,NaNL229.5446028,NaNL227.7188628,NaNL225.8937476,NaNL224.0687352,NaNL222.2433273,NaNL220.4170515,NaNL218.5894636,NaNL216.7601495,NaNL214.9287268,NaNL213.0948468,NaNL211.2581956,NaNL209.4184957,NaNL207.5755068,NaNL205.7290271,NaNL203.8788938,NaNL202.0249836,NaNL200.1672080,NaNL198.3055033,NaNL196.4398272,NaNL194.5701568,NaNL192.6964867,NaNL190.8188271,NaNL188.9372024,NaNL187.0516496,NaNL185.1622162,NaNL183.2689595,NaNL181.3719446,NaNL179.4712437,NaNL177.5669343,NaNL175.6590983,NaNL173.7478208,NaNL171.8331894,NaNL169.9152927,NaNL167.9942196,NaNL166.0700586,NaNL164.1428967,NaNL162.2128188,NaNL160.2799069,NaNL158.3442393,NaNL156.4058902,NaNL154.4649289,NaNL152.5214193,NaNL150.5754192,NaNL148.6269802,NaNL146.6761465,NaNL144.7229554,NaNL142.7674359,NaNL140.8096089,NaNL138.8494869,NaNL136.8870730,NaNL134.9223612,NaNL132.9553359,NaNL130.9859714,NaNL129.0142319,NaNL127.0400710,NaNL125.0634316,NaNL123.0842456,NaNL121.1024336,NaNL119.1179048,NaNL117.1305569,NaNL115.1402757,NaNL113.1469347,NaNL111.1503955,NaNL109.1505073,NaNL107.1471067,NaNL105.1400182,NaNL103.1290611,NaNL101.1140600,NaNL99.0948455,NaNL97.0712543,NaNz M96.4582641,NaNL97.0712543,NaNL99.0948455,NaNL101.1140600,NaNL103.1290611,NaNL105.1400182,NaNL107.1471067,NaNL109.1505073,NaNL111.1503955,NaNL113.1469347,NaNL115.1402757,NaNL117.1305569,NaNL119.1179048,NaNL121.1024336,NaNL123.0842456,NaNL125.0634316,NaNL127.0400710,NaNL129.0142319,NaNL130.9859714,NaNL132.9553359,NaNL134.9223612,NaNL136.8870730,NaNL138.8494869,NaNL140.8096089,NaNL142.7674359,NaNL144.7229554,NaNL146.6761465,NaNL148.6269802,NaNL150.5754192,NaNL152.5214193,NaNL154.4649289,NaNL156.4058902,NaNL158.3442393,NaNL160.2799069,NaNL162.2128188,NaNL164.1428967,NaNL166.0700586,NaNL167.9942196,NaNL169.9152927,NaNL171.8331894,NaNL173.7478208,NaNL175.6590983,NaNL177.5669343,NaNL179.4712437,NaNL181.3719446,NaNL183.2689595,NaNL185.1622162,NaNL187.0516496,NaNL188.9372024,NaNL190.8188271,NaNL192.6964867,NaNL194.5701568,NaNL196.4398272,NaNL198.3055033,NaNL200.1672080,NaNL202.0249836,NaNL203.8788938,NaNL205.7290271,NaNL207.5755068,NaNL209.4184957,NaNL211.2581956,NaNL213.0948468,NaNL214.9287268,NaNL216.7601495,NaNL218.5894636,NaNL220.4170515,NaNL222.2433273,NaNL224.0687352,NaNL225.8937476,NaNL227.7188628,NaNL229.5446028,NaNL231.3715112,NaNL233.2001502,NaNL235.0310983,NaNL236.8649474,NaNL238.7023003,NaNL240.5437675,NaNL242.3899646,NaNL244.2415091,NaNL246.0990179,NaNL247.9631039,NaNL248.0355362,NaNL247.9631039,NaNL246.0990179,NaNL244.2415091,NaNL242.3899646,NaNL240.5437675,NaNL238.7023003,NaNL236.8649474,NaNL235.0310983,NaNL233.2001502,NaNL231.3715112,NaNL229.5446028,NaNL227.7188628,NaNL225.8937476,NaNL224.0687352,NaNL222.2433273,NaNL220.4170515,NaNL218.5894636,NaNL216.7601495,NaNL214.9287268,NaNL213.0948468,NaNL211.2581956,NaNL209.4184957,NaNL207.5755068,NaNL205.7290271,NaNL203.8788938,NaNL202.0249836,NaNL200.1672080,NaNL198.3055033,NaNL196.4398272,NaNL194.5701568,NaNL192.6964867,NaNL190.8188271,NaNL188.9372024,NaNL187.0516496,NaNL185.1622162,NaNL183.2689595,NaNL181.3719446,NaNL179.4712437,NaNL177.5669343,NaNL175.6590983,NaNL173.7478208,NaNL171.8331894,NaNL169.9152927,NaNL167.9942196,NaNL166.0700586,NaNL164.1428967,NaNL162.2128188,NaNL160.2799069,NaNL158.3442393,NaNL156.4058902,NaNL154.4649289,NaNL152.5214193,NaNL150.5754192,NaNL148.6269802,NaNL146.6761465,NaNL144.7229554,NaNL142.7674359,NaNL140.8096089,NaNL138.8494869,NaNL136.8870730,NaNL134.9223612,NaNL132.9553359,NaNL130.9859714,NaNL129.0142319,NaNL127.0400710,NaNL125.0634316,NaNL123.0842456,NaNL121.1024336,NaNL119.1179048,NaNL117.1305569,NaNL115.1402757,NaNL113.1469347,NaNL111.1503955,NaNL109.1505073,NaNL107.1471067,NaNL105.1400182,NaNL103.1290611,NaNL101.1140600,NaNL99.0948455,NaNL97.0712543,NaNz M96.4582641,NaNL97.0712543,NaNL99.0948455,NaNL101.1140600,NaNL103.1290611,NaNL105.1400182,NaNL107.1471067,NaNL109.1505073,NaNL111.1503955,NaNL113.1469347,NaNL115.1402757,NaNL117.1305569,NaNL119.1179048,NaNL121.1024336,NaNL123.0842456,NaNL125.0634316,NaNL127.0400710,NaNL129.0142319,NaNL130.9859714,NaNL132.9553359,NaNL134.9223612,NaNL136.8870730,NaNL138.8494869,NaNL140.8096089,NaNL142.7674359,NaNL144.7229554,NaNL146.6761465,NaNL148.6269802,NaNL150.5754192,NaNL152.5214193,NaNL154.4649289,NaNL156.4058902,NaNL158.3442393,NaNL160.2799069,NaNL162.2128188,NaNL164.1428967,NaNL166.0700586,NaNL167.9942196,NaNL169.9152927,NaNL171.8331894,NaNL173.7478208,NaNL175.6590983,NaNL177.5669343,NaNL179.4712437,NaNL181.3719446,NaNL183.2689595,NaNL185.1622162,NaNL187.0516496,NaNL188.9372024,NaNL190.8188271,NaNL192.6964867,NaNL194.5701568,NaNL196.4398272,NaNL198.3055033,NaNL200.1672080,NaNL202.0249836,NaNL203.8788938,NaNL205.7290271,NaNL207.5755068,NaNL209.4184957,NaNL211.2581956,NaNL213.0948468,NaNL214.9287268,NaNL216.7601495,NaNL218.5894636,NaNL220.4170515,NaNL222.2433273,NaNL224.0687352,NaNL225.8937476,NaNL227.7188628,NaNL229.5446028,NaNL231.3715112,NaNL233.2001502,NaNL235.0310983,NaNL236.8649474,NaNL238.7023003,NaNL240.5437675,NaNL242.3899646,NaNL244.2415091,NaNL246.0990179,NaNL247.9631039,NaNL248.0355362,NaNL247.9631039,NaNL246.0990179,NaNL244.2415091,NaNL242.3899646,NaNL240.5437675,NaNL238.7023003,NaNL236.8649474,NaNL235.0310983,NaNL233.2001502,NaNL231.3715112,NaNL229.5446028,NaNL227.7188628,NaNL225.8937476,NaNL224.0687352,NaNL222.2433273,NaNL220.4170515,NaNL218.5894636,NaNL216.7601495,NaNL214.9287268,NaNL213.0948468,NaNL211.2581956,NaNL209.4184957,NaNL207.5755068,NaNL205.7290271,NaNL203.8788938,NaNL202.0249836,NaNL200.1672080,NaNL198.3055033,NaNL196.4398272,NaNL194.5701568,NaNL192.6964867,NaNL190.8188271,NaNL188.9372024,NaNL187.0516496,NaNL185.1622162,NaNL183.2689595,NaNL181.3719446,NaNL179.4712437,NaNL177.5669343,NaNL175.6590983,NaNL173.7478208,NaNL171.8331894,NaNL169.9152927,NaNL167.9942196,NaNL166.0700586,NaNL164.1428967,NaNL162.2128188,NaNL160.2799069,NaNL158.3442393,NaNL156.4058902,NaNL154.4649289,NaNL152.5214193,NaNL150.5754192,NaNL148.6269802,NaNL146.6761465,NaNL144.7229554,NaNL142.7674359,NaNL140.8096089,NaNL138.8494869,NaNL136.8870730,NaNL134.9223612,NaNL132.9553359,NaNL130.9859714,NaNL129.0142319,NaNL127.0400710,NaNL125.0634316,NaNL123.0842456,NaNL121.1024336,NaNL119.1179048,NaNL117.1305569,NaNL115.1402757,NaNL113.1469347,NaNL111.1503955,NaNL109.1505073,NaNL107.1471067,NaNL105.1400182,NaNL103.1290611,NaNL101.1140600,NaNL99.0948455,NaNL97.0712543,NaNz M261.8152882,NaNL263.1827215,NaNL265.1316255,NaNL267.0924457,NaNL269.0655857,NaNL271.0514175,NaNL273.0502805,NaNL275.0624800,NaNL277.0882859,NaNL279.1279320,NaNL281.1816148,NaNL283.2494927,NaNL285.3316856,NaNL287.4282743,NaNL289.5392999,NaNL291.6647634,NaNL293.8046257,NaNL295.9588073,NaNL298.1271881,NaNL300.3096076,NaNL302.5058680,NaNL304.7157489,NaNL306.9390139,NaNL309.1754129,NaNL311.4246835,NaNL313.6865517,NaNL315.9607341,NaNL318.2469383,NaNL320.5448642,NaNL322.8542055,NaNL325.1746498,NaNL327.5058804,NaNL329.8475764,NaNL332.1994141,NaNL334.5610673,NaNL336.9322082,NaNL339.3125082,NaNL341.7016383,NaNL344.0992696,NaNL346.5050744,NaNL348.9187258,NaNL351.3398993,NaNL353.7682723,NaNL356.2035252,NaNL358.6453413,NaNL361.0934077,NaNL363.5474153,NaNL366.0070593,NaNL368.4720398,NaNL370.9420616,NaNL373.4168347,NaNL375.8960752,NaNL378.3795044,NaNL380.8668505,NaNL383.3578475,NaNL385.8522366,NaNL388.3497656,NaNL390.8501898,NaNL393.3532718,NaNL395.8587819,NaNL398.3664985,NaNL400.8762080,NaNL403.3877052,NaNL405.9007936,NaNL408.4152856,NaNL410.9310025,NaNL413.3925603,NaNL410.9310025,NaNL408.4152856,NaNL405.9007936,NaNL403.3877052,NaNL400.8762080,NaNL398.3664985,NaNL395.8587819,NaNL393.3532718,NaNL390.8501898,NaNL388.3497656,NaNL385.8522366,NaNL383.3578475,NaNL380.8668505,NaNL378.3795044,NaNL375.8960752,NaNL373.4168347,NaNL370.9420616,NaNL368.4720398,NaNL366.0070593,NaNL363.5474153,NaNL361.0934077,NaNL358.6453413,NaNL356.2035252,NaNL353.7682723,NaNL351.3398993,NaNL348.9187258,NaNL346.5050744,NaNL344.0992696,NaNL341.7016383,NaNL339.3125082,NaNL336.9322082,NaNL334.5610673,NaNL332.1994141,NaNL329.8475764,NaNL327.5058804,NaNL325.1746498,NaNL322.8542055,NaNL320.5448642,NaNL318.2469383,NaNL315.9607341,NaNL313.6865517,NaNL311.4246835,NaNL309.1754129,NaNL306.9390139,NaNL304.7157489,NaNL302.5058680,NaNL300.3096076,NaNL298.1271881,NaNL295.9588073,NaNL293.8046257,NaNL291.6647634,NaNL289.5392999,NaNL287.4282743,NaNL285.3316856,NaNL283.2494927,NaNL281.1816148,NaNL279.1279320,NaNL277.0882859,NaNL275.0624800,NaNL273.0502805,NaNL271.0514175,NaNL269.0655857,NaNL267.0924457,NaNL265.1316255,NaNL263.1827215,NaNz M261.8152882,NaNL263.1827215,NaNL265.1316255,NaNL267.0924457,NaNL269.0655857,NaNL271.0514175,NaNL273.0502805,NaNL275.0624800,NaNL277.0882859,NaNL279.1279320,NaNL281.1816148,NaNL283.2494927,NaNL285.3316856,NaNL287.4282743,NaNL289.5392999,NaNL291.6647634,NaNL293.8046257,NaNL295.9588073,NaNL298.1271881,NaNL300.3096076,NaNL302.5058680,NaNL304.7157489,NaNL306.9390139,NaNL309.1754129,NaNL311.4246835,NaNL313.6865517,NaNL315.9607341,NaNL318.2469383,NaNL320.5448642,NaNL322.8542055,NaNL325.1746498,NaNL327.5058804,NaNL329.8475764,NaNL332.1994141,NaNL334.5610673,NaNL336.9322082,NaNL339.3125082,NaNL341.7016383,NaNL344.0992696,NaNL346.5050744,NaNL348.9187258,NaNL351.3398993,NaNL353.7682723,NaNL356.2035252,NaNL358.6453413,NaNL361.0934077,NaNL363.5474153,NaNL366.0070593,NaNL368.4720398,NaNL370.9420616,NaNL373.4168347,NaNL375.8960752,NaNL378.3795044,NaNL380.8668505,NaNL383.3578475,NaNL385.8522366,NaNL388.3497656,NaNL390.8501898,NaNL393.3532718,NaNL395.8587819,NaNL398.3664985,NaNL400.8762080,NaNL403.3877052,NaNL405.9007936,NaNL408.4152856,NaNL410.9310025,NaNL413.3925603,NaNL410.9310025,NaNL408.4152856,NaNL405.9007936,NaNL403.3877052,NaNL400.8762080,NaNL398.3664985,NaNL395.8587819,NaNL393.3532718,NaNL390.8501898,NaNL388.3497656,NaNL385.8522366,NaNL383.3578475,NaNL380.8668505,NaNL378.3795044,NaNL375.8960752,NaNL373.4168347,NaNL370.9420616,NaNL368.4720398,NaNL366.0070593,NaNL363.5474153,NaNL361.0934077,NaNL358.6453413,NaNL356.2035252,NaNL353.7682723,NaNL351.3398993,NaNL348.9187258,NaNL346.5050744,NaNL344.0992696,NaNL341.7016383,NaNL339.3125082,NaNL336.9322082,NaNL334.5610673,NaNL332.1994141,NaNL329.8475764,NaNL327.5058804,NaNL325.1746498,NaNL322.8542055,NaNL320.5448642,NaNL318.2469383,NaNL315.9607341,NaNL313.6865517,NaNL311.4246835,NaNL309.1754129,NaNL306.9390139,NaNL304.7157489,NaNL302.5058680,NaNL300.3096076,NaNL298.1271881,NaNL295.9588073,NaNL293.8046257,NaNL291.6647634,NaNL289.5392999,NaNL287.4282743,NaNL285.3316856,NaNL283.2494927,NaNL281.1816148,NaNL279.1279320,NaNL277.0882859,NaNL275.0624800,NaNL273.0502805,NaNL271.0514175,NaNL269.0655857,NaNL267.0924457,NaNL265.1316255,NaNL263.1827215,NaNz M261.8152882,NaNL263.1827215,NaNL265.1316255,NaNL267.0924457,NaNL269.0655857,NaNL271.0514175,NaNL273.0502805,NaNL275.0624800,NaNL277.0882859,NaNL279.1279320,NaNL281.1816148,NaNL283.2494927,NaNL285.3316856,NaNL287.4282743,NaNL289.5392999,NaNL291.6647634,NaNL293.8046257,NaNL295.9588073,NaNL298.1271881,NaNL300.3096076,NaNL302.5058680,NaNL304.7157489,NaNL306.9390139,NaNL309.1754129,NaNL311.4246835,NaNL313.6865517,NaNL315.9607341,NaNL318.2469383,NaNL320.5448642,NaNL322.8542055,NaNL325.1746498,NaNL327.5058804,NaNL329.8475764,NaNL332.1994141,NaNL334.5610673,NaNL336.9322082,NaNL339.3125082,NaNL341.7016383,NaNL344.0992696,NaNL346.5050744,NaNL348.9187258,NaNL351.3398993,NaNL353.7682723,NaNL356.2035252,NaNL358.6453413,NaNL361.0934077,NaNL363.5474153,NaNL366.0070593,NaNL368.4720398,NaNL370.9420616,NaNL373.4168347,NaNL375.8960752,NaNL378.3795044,NaNL380.8668505,NaNL383.3578475,NaNL385.8522366,NaNL388.3497656,NaNL390.8501898,NaNL393.3532718,NaNL395.8587819,NaNL398.3664985,NaNL400.8762080,NaNL403.3877052,NaNL405.9007936,NaNL408.4152856,NaNL410.9310025,NaNL413.3925603,NaNL410.9310025,NaNL408.4152856,NaNL405.9007936,NaNL403.3877052,NaNL400.8762080,NaNL398.3664985,NaNL395.8587819,NaNL393.3532718,NaNL390.8501898,NaNL388.3497656,NaNL385.8522366,NaNL383.3578475,NaNL380.8668505,NaNL378.3795044,NaNL375.8960752,NaNL373.4168347,NaNL370.9420616,NaNL368.4720398,NaNL366.0070593,NaNL363.5474153,NaNL361.0934077,NaNL358.6453413,NaNL356.2035252,NaNL353.7682723,NaNL351.3398993,NaNL348.9187258,NaNL346.5050744,NaNL344.0992696,NaNL341.7016383,NaNL339.3125082,NaNL336.9322082,NaNL334.5610673,NaNL332.1994141,NaNL329.8475764,NaNL327.5058804,NaNL325.1746498,NaNL322.8542055,NaNL320.5448642,NaNL318.2469383,NaNL315.9607341,NaNL313.6865517,NaNL311.4246835,NaNL309.1754129,NaNL306.9390139,NaNL304.7157489,NaNL302.5058680,NaNL300.3096076,NaNL298.1271881,NaNL295.9588073,NaNL293.8046257,NaNL291.6647634,NaNL289.5392999,NaNL287.4282743,NaNL285.3316856,NaNL283.2494927,NaNL281.1816148,NaNL279.1279320,NaNL277.0882859,NaNL275.0624800,NaNL273.0502805,NaNL271.0514175,NaNL269.0655857,NaNL267.0924457,NaNL265.1316255,NaNL263.1827215,NaNz M427.1723123,NaNL428.5622092,NaNL431.0822594,NaNL433.6021846,NaNL436.1218168,NaNL438.6409806,NaNL441.1594937,NaNL443.6771663,NaNL446.1938023,NaNL448.7091983,NaNL451.2231445,NaNL453.7354247,NaNL456.2458164,NaNL458.7540909,NaNL461.2600136,NaNL463.7633441,NaNL466.2638367,NaNL468.7612400,NaNL471.2552978,NaNL473.7457488,NaNL476.2323274,NaNL478.7147634,NaNL481.1927825,NaNL483.6661068,NaNL486.1344548,NaNL488.5975419,NaNL491.0550808,NaNL493.5067815,NaNL495.9523522,NaNL498.3914993,NaNL500.8239282,NaNL503.2493434,NaNL505.6674492,NaNL508.0779500,NaNL510.4805513,NaNL512.8749596,NaNL515.2608838,NaNL517.6380351,NaNL520.0061281,NaNL522.3648816,NaNL524.7140191,NaNL527.0532698,NaNL529.3823694,NaNL531.7010609,NaNL534.0090961,NaNL536.3062358,NaNL538.5922518,NaNL540.8669274,NaNL543.1300591,NaNL545.3814634,NaNL547.6209915,NaNL549.8485313,NaNL552.0640080,NaNL554.2673833,NaNL556.4586549,NaNL558.6378559,NaNL560.8050545,NaNL562.9603527,NaNL565.1038859,NaNL567.2358218,NaNL569.3563593,NaNL571.4657273,NaNL573.5641838,NaNL575.6520140,NaNL577.7295292,NaNL578.7495844,NaNL577.7295292,NaNL575.6520140,NaNL573.5641838,NaNL571.4657273,NaNL569.3563593,NaNL567.2358218,NaNL565.1038859,NaNL562.9603527,NaNL560.8050545,NaNL558.6378559,NaNL556.4586549,NaNL554.2673833,NaNL552.0640080,NaNL549.8485313,NaNL547.6209915,NaNL545.3814634,NaNL543.1300591,NaNL540.8669274,NaNL538.5922518,NaNL536.3062358,NaNL534.0090961,NaNL531.7010609,NaNL529.3823694,NaNL527.0532698,NaNL524.7140191,NaNL522.3648816,NaNL520.0061281,NaNL517.6380351,NaNL515.2608838,NaNL512.8749596,NaNL510.4805513,NaNL508.0779500,NaNL505.6674492,NaNL503.2493434,NaNL500.8239282,NaNL498.3914993,NaNL495.9523522,NaNL493.5067815,NaNL491.0550808,NaNL488.5975419,NaNL486.1344548,NaNL483.6661068,NaNL481.1927825,NaNL478.7147634,NaNL476.2323274,NaNL473.7457488,NaNL471.2552978,NaNL468.7612400,NaNL466.2638367,NaNL463.7633441,NaNL461.2600136,NaNL458.7540909,NaNL456.2458164,NaNL453.7354247,NaNL451.2231445,NaNL448.7091983,NaNL446.1938023,NaNL443.6771663,NaNL441.1594937,NaNL438.6409806,NaNL436.1218168,NaNL433.6021846,NaNL431.0822594,NaNL428.5622092,NaNz M427.1723123,NaNL428.5622092,NaNL431.0822594,NaNL433.6021846,NaNL436.1218168,NaNL438.6409806,NaNL441.1594937,NaNL443.6771663,NaNL446.1938023,NaNL448.7091983,NaNL451.2231445,NaNL453.7354247,NaNL456.2458164,NaNL458.7540909,NaNL461.2600136,NaNL463.7633441,NaNL466.2638367,NaNL468.7612400,NaNL471.2552978,NaNL473.7457488,NaNL476.2323274,NaNL478.7147634,NaNL481.1927825,NaNL483.6661068,NaNL486.1344548,NaNL488.5975419,NaNL491.0550808,NaNL493.5067815,NaNL495.9523522,NaNL498.3914993,NaNL500.8239282,NaNL503.2493434,NaNL505.6674492,NaNL508.0779500,NaNL510.4805513,NaNL512.8749596,NaNL515.2608838,NaNL517.6380351,NaNL520.0061281,NaNL522.3648816,NaNL524.7140191,NaNL527.0532698,NaNL529.3823694,NaNL531.7010609,NaNL534.0090961,NaNL536.3062358,NaNL538.5922518,NaNL540.8669274,NaNL543.1300591,NaNL545.3814634,NaNL547.6209915,NaNL549.8485313,NaNL552.0640080,NaNL554.2673833,NaNL556.4586549,NaNL558.6378559,NaNL560.8050545,NaNL562.9603527,NaNL565.1038859,NaNL567.2358218,NaNL569.3563593,NaNL571.4657273,NaNL573.5641838,NaNL575.6520140,NaNL577.7295292,NaNL578.7495844,NaNL577.7295292,NaNL575.6520140,NaNL573.5641838,NaNL571.4657273,NaNL569.3563593,NaNL567.2358218,NaNL565.1038859,NaNL562.9603527,NaNL560.8050545,NaNL558.6378559,NaNL556.4586549,NaNL554.2673833,NaNL552.0640080,NaNL549.8485313,NaNL547.6209915,NaNL545.3814634,NaNL543.1300591,NaNL540.8669274,NaNL538.5922518,NaNL536.3062358,NaNL534.0090961,NaNL531.7010609,NaNL529.3823694,NaNL527.0532698,NaNL524.7140191,NaNL522.3648816,NaNL520.0061281,NaNL517.6380351,NaNL515.2608838,NaNL512.8749596,NaNL510.4805513,NaNL508.0779500,NaNL505.6674492,NaNL503.2493434,NaNL500.8239282,NaNL498.3914993,NaNL495.9523522,NaNL493.5067815,NaNL491.0550808,NaNL488.5975419,NaNL486.1344548,NaNL483.6661068,NaNL481.1927825,NaNL478.7147634,NaNL476.2323274,NaNL473.7457488,NaNL471.2552978,NaNL468.7612400,NaNL466.2638367,NaNL463.7633441,NaNL461.2600136,NaNL458.7540909,NaNL456.2458164,NaNL453.7354247,NaNL451.2231445,NaNL448.7091983,NaNL446.1938023,NaNL443.6771663,NaNL441.1594937,NaNL438.6409806,NaNL436.1218168,NaNL433.6021846,NaNL431.0822594,NaNL428.5622092,NaNz M427.1723123,NaNL428.5622092,NaNL431.0822594,NaNL433.6021846,NaNL436.1218168,NaNL438.6409806,NaNL441.1594937,NaNL443.6771663,NaNL446.1938023,NaNL448.7091983,NaNL451.2231445,NaNL453.7354247,NaNL456.2458164,NaNL458.7540909,NaNL461.2600136,NaNL463.7633441,NaNL466.2638367,NaNL468.7612400,NaNL471.2552978,NaNL473.7457488,NaNL476.2323274,NaNL478.7147634,NaNL481.1927825,NaNL483.6661068,NaNL486.1344548,NaNL488.5975419,NaNL491.0550808,NaNL493.5067815,NaNL495.9523522,NaNL498.3914993,NaNL500.8239282,NaNL503.2493434,NaNL505.6674492,NaNL508.0779500,NaNL510.4805513,NaNL512.8749596,NaNL515.2608838,NaNL517.6380351,NaNL520.0061281,NaNL522.3648816,NaNL524.7140191,NaNL527.0532698,NaNL529.3823694,NaNL531.7010609,NaNL534.0090961,NaNL536.3062358,NaNL538.5922518,NaNL540.8669274,NaNL543.1300591,NaNL545.3814634,NaNL547.6209915,NaNL549.8485313,NaNL552.0640080,NaNL554.2673833,NaNL556.4586549,NaNL558.6378559,NaNL560.8050545,NaNL562.9603527,NaNL565.1038859,NaNL567.2358218,NaNL569.3563593,NaNL571.4657273,NaNL573.5641838,NaNL575.6520140,NaNL577.7295292,NaNL578.7495844,NaNL577.7295292,NaNL575.6520140,NaNL573.5641838,NaNL571.4657273,NaNL569.3563593,NaNL567.2358218,NaNL565.1038859,NaNL562.9603527,NaNL560.8050545,NaNL558.6378559,NaNL556.4586549,NaNL554.2673833,NaNL552.0640080,NaNL549.8485313,NaNL547.6209915,NaNL545.3814634,NaNL543.1300591,NaNL540.8669274,NaNL538.5922518,NaNL536.3062358,NaNL534.0090961,NaNL531.7010609,NaNL529.3823694,NaNL527.0532698,NaNL524.7140191,NaNL522.3648816,NaNL520.0061281,NaNL517.6380351,NaNL515.2608838,NaNL512.8749596,NaNL510.4805513,NaNL508.0779500,NaNL505.6674492,NaNL503.2493434,NaNL500.8239282,NaNL498.3914993,NaNL495.9523522,NaNL493.5067815,NaNL491.0550808,NaNL488.5975419,NaNL486.1344548,NaNL483.6661068,NaNL481.1927825,NaNL478.7147634,NaNL476.2323274,NaNL473.7457488,NaNL471.2552978,NaNL468.7612400,NaNL466.2638367,NaNL463.7633441,NaNL461.2600136,NaNL458.7540909,NaNL456.2458164,NaNL453.7354247,NaNL451.2231445,NaNL448.7091983,NaNL446.1938023,NaNL443.6771663,NaNL441.1594937,NaNL438.6409806,NaNL436.1218168,NaNL433.6021846,NaNL431.0822594,NaNL428.5622092,NaNz M592.5293364,NaNL594.0228746,NaNL596.0249768,NaNL598.0209045,NaNL600.0111280,NaNL601.9961185,NaNL603.9763456,NaNL605.9522746,NaNL607.9243646,NaNL609.8930654,NaNL611.8588155,NaNL613.8220396,NaNL615.7831463,NaNL617.7425257,NaNL619.7005474,NaNL621.6575586,NaNL623.6138816,NaNL625.5698125,NaNL627.5256189,NaNL629.4815386,NaNL631.4377781,NaNL633.3945108,NaNL635.3518763,NaNL637.3099785,NaNL639.2688854,NaNL641.2286275,NaNL643.1891971,NaNL645.1505484,NaNL647.1126049,NaNL649.0752745,NaNL651.0384542,NaNL653.0020309,NaNL654.9658836,NaNL656.9298846,NaNL658.8939008,NaNL660.8577951,NaNL662.8214275,NaNL664.7846566,NaNL666.7473402,NaNL668.7093367,NaNL670.6705059,NaNL672.6307101,NaNL674.5898148,NaNL676.5476894,NaNL678.5042085,NaNL680.4592520,NaNL682.4127062,NaNL684.3644643,NaNL686.3144271,NaNL688.2625036,NaNL690.2086112,NaNL692.1526767,NaNL694.0946367,NaNL696.0344377,NaNL697.9720369,NaNL699.9074026,NaNL701.8405143,NaNL703.7713634,NaNL705.6999532,NaNL707.6262998,NaNL709.5504318,NaNL711.4723908,NaNL713.3922318,NaNL715.3100234,NaNL717.2258480,NaNL719.1398022,NaNL721.0519968,NaNL722.9625570,NaNL724.8716230,NaNL726.7793498,NaNL728.6859073,NaNL730.5914810,NaNL732.4962716,NaNL734.4004957,NaNL736.3043854,NaNL738.2081889,NaNL740.1121703,NaNL742.0166095,NaNL743.9217930,NaNL744.1066085,NaNL743.9217930,NaNL742.0166095,NaNL740.1121703,NaNL738.2081889,NaNL736.3043854,NaNL734.4004957,NaNL732.4962716,NaNL730.5914810,NaNL728.6859073,NaNL726.7793498,NaNL724.8716230,NaNL722.9625570,NaNL721.0519968,NaNL719.1398022,NaNL717.2258480,NaNL715.3100234,NaNL713.3922318,NaNL711.4723908,NaNL709.5504318,NaNL707.6262998,NaNL705.6999532,NaNL703.7713634,NaNL701.8405143,NaNL699.9074026,NaNL697.9720369,NaNL696.0344377,NaNL694.0946367,NaNL692.1526767,NaNL690.2086112,NaNL688.2625036,NaNL686.3144271,NaNL684.3644643,NaNL682.4127062,NaNL680.4592520,NaNL678.5042085,NaNL676.5476894,NaNL674.5898148,NaNL672.6307101,NaNL670.6705059,NaNL668.7093367,NaNL666.7473402,NaNL664.7846566,NaNL662.8214275,NaNL660.8577951,NaNL658.8939008,NaNL656.9298846,NaNL654.9658836,NaNL653.0020309,NaNL651.0384542,NaNL649.0752745,NaNL647.1126049,NaNL645.1505484,NaNL643.1891971,NaNL641.2286275,NaNL639.2688854,NaNL637.3099785,NaNL635.3518763,NaNL633.3945108,NaNL631.4377781,NaNL629.4815386,NaNL627.5256189,NaNL625.5698125,NaNL623.6138816,NaNL621.6575586,NaNL619.7005474,NaNL617.7425257,NaNL615.7831463,NaNL613.8220396,NaNL611.8588155,NaNL609.8930654,NaNL607.9243646,NaNL605.9522746,NaNL603.9763456,NaNL601.9961185,NaNL600.0111280,NaNL598.0209045,NaNL596.0249768,NaNL594.0228746,NaNz M592.5293364,NaNL594.0228746,NaNL596.0249768,NaNL598.0209045,NaNL600.0111280,NaNL601.9961185,NaNL603.9763456,NaNL605.9522746,NaNL607.9243646,NaNL609.8930654,NaNL611.8588155,NaNL613.8220396,NaNL615.7831463,NaNL617.7425257,NaNL619.7005474,NaNL621.6575586,NaNL623.6138816,NaNL625.5698125,NaNL627.5256189,NaNL629.4815386,NaNL631.4377781,NaNL633.3945108,NaNL635.3518763,NaNL637.3099785,NaNL639.2688854,NaNL641.2286275,NaNL643.1891971,NaNL645.1505484,NaNL647.1126049,NaNL649.0752745,NaNL651.0384542,NaNL653.0020309,NaNL654.9658836,NaNL656.9298846,NaNL658.8939008,NaNL660.8577951,NaNL662.8214275,NaNL664.7846566,NaNL666.7473402,NaNL668.7093367,NaNL670.6705059,NaNL672.6307101,NaNL674.5898148,NaNL676.5476894,NaNL678.5042085,NaNL680.4592520,NaNL682.4127062,NaNL684.3644643,NaNL686.3144271,NaNL688.2625036,NaNL690.2086112,NaNL692.1526767,NaNL694.0946367,NaNL696.0344377,NaNL697.9720369,NaNL699.9074026,NaNL701.8405143,NaNL703.7713634,NaNL705.6999532,NaNL707.6262998,NaNL709.5504318,NaNL711.4723908,NaNL713.3922318,NaNL715.3100234,NaNL717.2258480,NaNL719.1398022,NaNL721.0519968,NaNL722.9625570,NaNL724.8716230,NaNL726.7793498,NaNL728.6859073,NaNL730.5914810,NaNL732.4962716,NaNL734.4004957,NaNL736.3043854,NaNL738.2081889,NaNL740.1121703,NaNL742.0166095,NaNL743.9217930,NaNL744.1066085,NaNL743.9217930,NaNL742.0166095,NaNL740.1121703,NaNL738.2081889,NaNL736.3043854,NaNL734.4004957,NaNL732.4962716,NaNL730.5914810,NaNL728.6859073,NaNL726.7793498,NaNL724.8716230,NaNL722.9625570,NaNL721.0519968,NaNL719.1398022,NaNL717.2258480,NaNL715.3100234,NaNL713.3922318,NaNL711.4723908,NaNL709.5504318,NaNL707.6262998,NaNL705.6999532,NaNL703.7713634,NaNL701.8405143,NaNL699.9074026,NaNL697.9720369,NaNL696.0344377,NaNL694.0946367,NaNL692.1526767,NaNL690.2086112,NaNL688.2625036,NaNL686.3144271,NaNL684.3644643,NaNL682.4127062,NaNL680.4592520,NaNL678.5042085,NaNL676.5476894,NaNL674.5898148,NaNL672.6307101,NaNL670.6705059,NaNL668.7093367,NaNL666.7473402,NaNL664.7846566,NaNL662.8214275,NaNL660.8577951,NaNL658.8939008,NaNL656.9298846,NaNL654.9658836,NaNL653.0020309,NaNL651.0384542,NaNL649.0752745,NaNL647.1126049,NaNL645.1505484,NaNL643.1891971,NaNL641.2286275,NaNL639.2688854,NaNL637.3099785,NaNL635.3518763,NaNL633.3945108,NaNL631.4377781,NaNL629.4815386,NaNL627.5256189,NaNL625.5698125,NaNL623.6138816,NaNL621.6575586,NaNL619.7005474,NaNL617.7425257,NaNL615.7831463,NaNL613.8220396,NaNL611.8588155,NaNL609.8930654,NaNL607.9243646,NaNL605.9522746,NaNL603.9763456,NaNL601.9961185,NaNL600.0111280,NaNL598.0209045,NaNL596.0249768,NaNL594.0228746,NaNz M592.5293364,NaNL594.0228746,NaNL596.0249768,NaNL598.0209045,NaNL600.0111280,NaNL601.9961185,NaNL603.9763456,NaNL605.9522746,NaNL607.9243646,NaNL609.8930654,NaNL611.8588155,NaNL613.8220396,NaNL615.7831463,NaNL617.7425257,NaNL619.7005474,NaNL621.6575586,NaNL623.6138816,NaNL625.5698125,NaNL627.5256189,NaNL629.4815386,NaNL631.4377781,NaNL633.3945108,NaNL635.3518763,NaNL637.3099785,NaNL639.2688854,NaNL641.2286275,NaNL643.1891971,NaNL645.1505484,NaNL647.1126049,NaNL649.0752745,NaNL651.0384542,NaNL653.0020309,NaNL654.9658836,NaNL656.9298846,NaNL658.8939008,NaNL660.8577951,NaNL662.8214275,NaNL664.7846566,NaNL666.7473402,NaNL668.7093367,NaNL670.6705059,NaNL672.6307101,NaNL674.5898148,NaNL676.5476894,NaNL678.5042085,NaNL680.4592520,NaNL682.4127062,NaNL684.3644643,NaNL686.3144271,NaNL688.2625036,NaNL690.2086112,NaNL692.1526767,NaNL694.0946367,NaNL696.0344377,NaNL697.9720369,NaNL699.9074026,NaNL701.8405143,NaNL703.7713634,NaNL705.6999532,NaNL707.6262998,NaNL709.5504318,NaNL711.4723908,NaNL713.3922318,NaNL715.3100234,NaNL717.2258480,NaNL719.1398022,NaNL721.0519968,NaNL722.9625570,NaNL724.8716230,NaNL726.7793498,NaNL728.6859073,NaNL730.5914810,NaNL732.4962716,NaNL734.4004957,NaNL736.3043854,NaNL738.2081889,NaNL740.1121703,NaNL742.0166095,NaNL743.9217930,NaNL744.1066085,NaNL743.9217930,NaNL742.0166095,NaNL740.1121703,NaNL738.2081889,NaNL736.3043854,NaNL734.4004957,NaNL732.4962716,NaNL730.5914810,NaNL728.6859073,NaNL726.7793498,NaNL724.8716230,NaNL722.9625570,NaNL721.0519968,NaNL719.1398022,NaNL717.2258480,NaNL715.3100234,NaNL713.3922318,NaNL711.4723908,NaNL709.5504318,NaNL707.6262998,NaNL705.6999532,NaNL703.7713634,NaNL701.8405143,NaNL699.9074026,NaNL697.9720369,NaNL696.0344377,NaNL694.0946367,NaNL692.1526767,NaNL690.2086112,NaNL688.2625036,NaNL686.3144271,NaNL684.3644643,NaNL682.4127062,NaNL680.4592520,NaNL678.5042085,NaNL676.5476894,NaNL674.5898148,NaNL672.6307101,NaNL670.6705059,NaNL668.7093367,NaNL666.7473402,NaNL664.7846566,NaNL662.8214275,NaNL660.8577951,NaNL658.8939008,NaNL656.9298846,NaNL654.9658836,NaNL653.0020309,NaNL651.0384542,NaNL649.0752745,NaNL647.1126049,NaNL645.1505484,NaNL643.1891971,NaNL641.2286275,NaNL639.2688854,NaNL637.3099785,NaNL635.3518763,NaNL633.3945108,NaNL631.4377781,NaNL629.4815386,NaNL627.5256189,NaNL625.5698125,NaNL623.6138816,NaNL621.6575586,NaNL619.7005474,NaNL617.7425257,NaNL615.7831463,NaNL613.8220396,NaNL611.8588155,NaNL609.8930654,NaNL607.9243646,NaNL605.9522746,NaNL603.9763456,NaNL601.9961185,NaNL600.0111280,NaNL598.0209045,NaNL596.0249768,NaNL594.0228746,NaNz M757.8863605,NaNL759.2225120,NaNL761.1463176,NaNL763.0734104,NaNL765.0040144,NaNL766.9383487,NaNL768.8766274,NaNL770.8190599,NaNL772.7658512,NaNL774.7172015,NaNL776.6733070,NaNL778.6343594,NaNL780.6005462,NaNL782.5720510,NaNL784.5490531,NaNL786.5317283,NaNL788.5202482,NaNL790.5147809,NaNL792.5154908,NaNL794.5225384,NaNL796.5360812,NaNL798.5562727,NaNL800.5832635,NaNL802.6172003,NaNL804.6582270,NaNL806.7064841,NaNL808.7621088,NaNL810.8252354,NaNL812.8959949,NaNL814.9745156,NaNL817.0609226,NaNL819.1553381,NaNL821.2578814,NaNL823.3686693,NaNL825.4878154,NaNL827.6154309,NaNL829.7516242,NaNL831.8965011,NaNL834.0501648,NaNL836.2127162,NaNL838.3842535,NaNL840.5648726,NaNL840.5648726,NaNL840.5648726,NaNL838.3842535,NaNL836.2127162,NaNL834.0501648,NaNL831.8965011,NaNL829.7516242,NaNL827.6154309,NaNL825.4878154,NaNL823.3686693,NaNL821.2578814,NaNL819.1553381,NaNL817.0609226,NaNL814.9745156,NaNL812.8959949,NaNL810.8252354,NaNL808.7621088,NaNL806.7064841,NaNL804.6582270,NaNL802.6172003,NaNL800.5832635,NaNL798.5562727,NaNL796.5360812,NaNL794.5225384,NaNL792.5154908,NaNL790.5147809,NaNL788.5202482,NaNL786.5317283,NaNL784.5490531,NaNL782.5720510,NaNL780.6005462,NaNL778.6343594,NaNL776.6733070,NaNL774.7172015,NaNL772.7658512,NaNL770.8190599,NaNL768.8766274,NaNL766.9383487,NaNL765.0040144,NaNL763.0734104,NaNL761.1463176,NaNL759.2225120,NaNz M757.8863605,NaNL759.2225120,NaNL761.1463176,NaNL763.0734104,NaNL765.0040144,NaNL766.9383487,NaNL768.8766274,NaNL770.8190599,NaNL772.7658512,NaNL774.7172015,NaNL776.6733070,NaNL778.6343594,NaNL780.6005462,NaNL782.5720510,NaNL784.5490531,NaNL786.5317283,NaNL788.5202482,NaNL790.5147809,NaNL792.5154908,NaNL794.5225384,NaNL796.5360812,NaNL798.5562727,NaNL800.5832635,NaNL802.6172003,NaNL804.6582270,NaNL806.7064841,NaNL808.7621088,NaNL810.8252354,NaNL812.8959949,NaNL814.9745156,NaNL817.0609226,NaNL819.1553381,NaNL821.2578814,NaNL823.3686693,NaNL825.4878154,NaNL827.6154309,NaNL829.7516242,NaNL831.8965011,NaNL834.0501648,NaNL836.2127162,NaNL838.3842535,NaNL840.5648726,NaNL840.5648726,NaNL840.5648726,NaNL838.3842535,NaNL836.2127162,NaNL834.0501648,NaNL831.8965011,NaNL829.7516242,NaNL827.6154309,NaNL825.4878154,NaNL823.3686693,NaNL821.2578814,NaNL819.1553381,NaNL817.0609226,NaNL814.9745156,NaNL812.8959949,NaNL810.8252354,NaNL808.7621088,NaNL806.7064841,NaNL804.6582270,NaNL802.6172003,NaNL800.5832635,NaNL798.5562727,NaNL796.5360812,NaNL794.5225384,NaNL792.5154908,NaNL790.5147809,NaNL788.5202482,NaNL786.5317283,NaNL784.5490531,NaNL782.5720510,NaNL780.6005462,NaNL778.6343594,NaNL776.6733070,NaNL774.7172015,NaNL772.7658512,NaNL770.8190599,NaNL768.8766274,NaNL766.9383487,NaNL765.0040144,NaNL763.0734104,NaNL761.1463176,NaNL759.2225120,NaNz M757.8863605,NaNL759.2225120,NaNL761.1463176,NaNL763.0734104,NaNL765.0040144,NaNL766.9383487,NaNL768.8766274,NaNL770.8190599,NaNL772.7658512,NaNL774.7172015,NaNL776.6733070,NaNL778.6343594,NaNL780.6005462,NaNL782.5720510,NaNL784.5490531,NaNL786.5317283,NaNL788.5202482,NaNL790.5147809,NaNL792.5154908,NaNL794.5225384,NaNL796.5360812,NaNL798.5562727,NaNL800.5832635,NaNL802.6172003,NaNL804.6582270,NaNL806.7064841,NaNL808.7621088,NaNL810.8252354,NaNL812.8959949,NaNL814.9745156,NaNL817.0609226,NaNL819.1553381,NaNL821.2578814,NaNL823.3686693,NaNL825.4878154,NaNL827.6154309,NaNL829.7516242,NaNL831.8965011,NaNL834.0501648,NaNL836.2127162,NaNL838.3842535,NaNL840.5648726,NaNL840.5648726,NaNL840.5648726,NaNL838.3842535,NaNL836.2127162,NaNL834.0501648,NaNL831.8965011,NaNL829.7516242,NaNL827.6154309,NaNL825.4878154,NaNL823.3686693,NaNL821.2578814,NaNL819.1553381,NaNL817.0609226,NaNL814.9745156,NaNL812.8959949,NaNL810.8252354,NaNL808.7621088,NaNL806.7064841,NaNL804.6582270,NaNL802.6172003,NaNL800.5832635,NaNL798.5562727,NaNL796.5360812,NaNL794.5225384,NaNL792.5154908,NaNL790.5147809,NaNL788.5202482,NaNL786.5317283,NaNL784.5490531,NaNL782.5720510,NaNL780.6005462,NaNL778.6343594,NaNL776.6733070,NaNL774.7172015,NaNL772.7658512,NaNL770.8190599,NaNL768.8766274,NaNL766.9383487,NaNL765.0040144,NaNL763.0734104,NaNL761.1463176,NaNL759.2225120,NaNz M13.7797520,NaNL15.9286749,NaNL18.1803510,NaNL20.4258481,NaNL22.6651077,NaNL24.8980769,NaNL27.1247083,NaNL29.3449599,NaNL31.5587955,NaNL33.7661844,NaNL35.9671015,NaNL38.1615273,NaNL40.3494480,NaNL42.5308554,NaNL44.7057471,NaNL46.8741261,NaNL49.0360015,NaNL51.1913878,NaNL53.3403053,NaNL55.4827803,NaNL57.6188445,NaNL59.7485357,NaNL61.8718973,NaNL63.9889786,NaNL66.0998349,NaNL68.2045270,NaNL70.3031220,NaNL72.3956925,NaNL74.4823174,NaNL76.5630811,NaNL78.6380744,NaNL80.7073937,NaNL82.7711417,NaNL84.8294267,NaNL86.8823634,NaNL88.9300724,NaNL90.9726802,NaNL93.0103196,NaNL95.0431294,NaNL97.0712543,NaNL99.0948455,NaNL101.1140600,NaNL103.1290611,NaNL105.1400182,NaNL107.1471067,NaNL109.1505073,NaNL111.1503955,NaNL113.1469347,NaNL115.1402757,NaNL117.1305569,NaNL119.1179048,NaNL121.1024336,NaNL123.0842456,NaNL125.0634316,NaNL127.0400710,NaNL129.0142319,NaNL130.9859714,NaNL132.9553359,NaNL134.9223612,NaNL136.8870730,NaNL138.8494869,NaNL140.8096089,NaNL142.7674359,NaNL144.7229554,NaNL146.6761465,NaNL148.6269802,NaNL150.5754192,NaNL152.5214193,NaNL154.4649289,NaNL156.4058902,NaNL158.3442393,NaNL160.2799069,NaNL162.2128188,NaNL164.1428967,NaNL165.3570241,NaNL164.1428967,NaNL162.2128188,NaNL160.2799069,NaNL158.3442393,NaNL156.4058902,NaNL154.4649289,NaNL152.5214193,NaNL150.5754192,NaNL148.6269802,NaNL146.6761465,NaNL144.7229554,NaNL142.7674359,NaNL140.8096089,NaNL138.8494869,NaNL136.8870730,NaNL134.9223612,NaNL132.9553359,NaNL130.9859714,NaNL129.0142319,NaNL127.0400710,NaNL125.0634316,NaNL123.0842456,NaNL121.1024336,NaNL119.1179048,NaNL117.1305569,NaNL115.1402757,NaNL113.1469347,NaNL111.1503955,NaNL109.1505073,NaNL107.1471067,NaNL105.1400182,NaNL103.1290611,NaNL101.1140600,NaNL99.0948455,NaNL97.0712543,NaNL95.0431294,NaNL93.0103196,NaNL90.9726802,NaNL88.9300724,NaNL86.8823634,NaNL84.8294267,NaNL82.7711417,NaNL80.7073937,NaNL78.6380744,NaNL76.5630811,NaNL74.4823174,NaNL72.3956925,NaNL70.3031220,NaNL68.2045270,NaNL66.0998349,NaNL63.9889786,NaNL61.8718973,NaNL59.7485357,NaNL57.6188445,NaNL55.4827803,NaNL53.3403053,NaNL51.1913878,NaNL49.0360015,NaNL46.8741261,NaNL44.7057471,NaNL42.5308554,NaNL40.3494480,NaNL38.1615273,NaNL35.9671015,NaNL33.7661844,NaNL31.5587955,NaNL29.3449599,NaNL27.1247083,NaNL24.8980769,NaNL22.6651077,NaNL20.4258481,NaNL18.1803510,NaNL15.9286749,NaNz M13.7797520,NaNL15.9286749,NaNL18.1803510,NaNL20.4258481,NaNL22.6651077,NaNL24.8980769,NaNL27.1247083,NaNL29.3449599,NaNL31.5587955,NaNL33.7661844,NaNL35.9671015,NaNL38.1615273,NaNL40.3494480,NaNL42.5308554,NaNL44.7057471,NaNL46.8741261,NaNL49.0360015,NaNL51.1913878,NaNL53.3403053,NaNL55.4827803,NaNL57.6188445,NaNL59.7485357,NaNL61.8718973,NaNL63.9889786,NaNL66.0998349,NaNL68.2045270,NaNL70.3031220,NaNL72.3956925,NaNL74.4823174,NaNL76.5630811,NaNL78.6380744,NaNL80.7073937,NaNL82.7711417,NaNL84.8294267,NaNL86.8823634,NaNL88.9300724,NaNL90.9726802,NaNL93.0103196,NaNL95.0431294,NaNL97.0712543,NaNL99.0948455,NaNL101.1140600,NaNL103.1290611,NaNL105.1400182,NaNL107.1471067,NaNL109.1505073,NaNL111.1503955,NaNL113.1469347,NaNL115.1402757,NaNL117.1305569,NaNL119.1179048,NaNL121.1024336,NaNL123.0842456,NaNL125.0634316,NaNL127.0400710,NaNL129.0142319,NaNL130.9859714,NaNL132.9553359,NaNL134.9223612,NaNL136.8870730,NaNL138.8494869,NaNL140.8096089,NaNL142.7674359,NaNL144.7229554,NaNL146.6761465,NaNL148.6269802,NaNL150.5754192,NaNL152.5214193,NaNL154.4649289,NaNL156.4058902,NaNL158.3442393,NaNL160.2799069,NaNL162.2128188,NaNL164.1428967,NaNL165.3570241,NaNL164.1428967,NaNL162.2128188,NaNL160.2799069,NaNL158.3442393,NaNL156.4058902,NaNL154.4649289,NaNL152.5214193,NaNL150.5754192,NaNL148.6269802,NaNL146.6761465,NaNL144.7229554,NaNL142.7674359,NaNL140.8096089,NaNL138.8494869,NaNL136.8870730,NaNL134.9223612,NaNL132.9553359,NaNL130.9859714,NaNL129.0142319,NaNL127.0400710,NaNL125.0634316,NaNL123.0842456,NaNL121.1024336,NaNL119.1179048,NaNL117.1305569,NaNL115.1402757,NaNL113.1469347,NaNL111.1503955,NaNL109.1505073,NaNL107.1471067,NaNL105.1400182,NaNL103.1290611,NaNL101.1140600,NaNL99.0948455,NaNL97.0712543,NaNL95.0431294,NaNL93.0103196,NaNL90.9726802,NaNL88.9300724,NaNL86.8823634,NaNL84.8294267,NaNL82.7711417,NaNL80.7073937,NaNL78.6380744,NaNL76.5630811,NaNL74.4823174,NaNL72.3956925,NaNL70.3031220,NaNL68.2045270,NaNL66.0998349,NaNL63.9889786,NaNL61.8718973,NaNL59.7485357,NaNL57.6188445,NaNL55.4827803,NaNL53.3403053,NaNL51.1913878,NaNL49.0360015,NaNL46.8741261,NaNL44.7057471,NaNL42.5308554,NaNL40.3494480,NaNL38.1615273,NaNL35.9671015,NaNL33.7661844,NaNL31.5587955,NaNL29.3449599,NaNL27.1247083,NaNL24.8980769,NaNL22.6651077,NaNL20.4258481,NaNL18.1803510,NaNL15.9286749,NaNz M179.1367761,NaNL179.4712437,NaNL181.3719446,NaNL183.2689595,NaNL185.1622162,NaNL187.0516496,NaNL188.9372024,NaNL190.8188271,NaNL192.6964867,NaNL194.5701568,NaNL196.4398272,NaNL198.3055033,NaNL200.1672080,NaNL202.0249836,NaNL203.8788938,NaNL205.7290271,NaNL207.5755068,NaNL209.4184957,NaNL211.2581956,NaNL213.0948468,NaNL214.9287268,NaNL216.7601495,NaNL218.5894636,NaNL220.4170515,NaNL222.2433273,NaNL224.0687352,NaNL225.8937476,NaNL227.7188628,NaNL229.5446028,NaNL231.3715112,NaNL233.2001502,NaNL235.0310983,NaNL236.8649474,NaNL238.7023003,NaNL240.5437675,NaNL242.3899646,NaNL244.2415091,NaNL246.0990179,NaNL247.9631039,NaNL249.8343737,NaNL251.7134244,NaNL253.6008410,NaNL255.4971938,NaNL257.4030361,NaNL259.3189011,NaNL261.2453004,NaNL263.1827215,NaNL265.1316255,NaNL267.0924457,NaNL269.0655857,NaNL271.0514175,NaNL273.0502805,NaNL275.0624800,NaNL277.0882859,NaNL279.1279320,NaNL281.1816148,NaNL283.2494927,NaNL285.3316856,NaNL287.4282743,NaNL289.5392999,NaNL291.6647634,NaNL293.8046257,NaNL295.9588073,NaNL298.1271881,NaNL300.3096076,NaNL302.5058680,NaNL304.7157489,NaNL306.9390139,NaNL309.1754129,NaNL311.4246835,NaNL313.6865517,NaNL315.9607341,NaNL318.2469383,NaNL320.5448642,NaNL322.8542055,NaNL325.1746498,NaNL327.5058804,NaNL329.8475764,NaNL330.7140482,NaNL329.8475764,NaNL327.5058804,NaNL325.1746498,NaNL322.8542055,NaNL320.5448642,NaNL318.2469383,NaNL315.9607341,NaNL313.6865517,NaNL311.4246835,NaNL309.1754129,NaNL306.9390139,NaNL304.7157489,NaNL302.5058680,NaNL300.3096076,NaNL298.1271881,NaNL295.9588073,NaNL293.8046257,NaNL291.6647634,NaNL289.5392999,NaNL287.4282743,NaNL285.3316856,NaNL283.2494927,NaNL281.1816148,NaNL279.1279320,NaNL277.0882859,NaNL275.0624800,NaNL273.0502805,NaNL271.0514175,NaNL269.0655857,NaNL267.0924457,NaNL265.1316255,NaNL263.1827215,NaNL261.2453004,NaNL259.3189011,NaNL257.4030361,NaNL255.4971938,NaNL253.6008410,NaNL251.7134244,NaNL249.8343737,NaNL247.9631039,NaNL246.0990179,NaNL244.2415091,NaNL242.3899646,NaNL240.5437675,NaNL238.7023003,NaNL236.8649474,NaNL235.0310983,NaNL233.2001502,NaNL231.3715112,NaNL229.5446028,NaNL227.7188628,NaNL225.8937476,NaNL224.0687352,NaNL222.2433273,NaNL220.4170515,NaNL218.5894636,NaNL216.7601495,NaNL214.9287268,NaNL213.0948468,NaNL211.2581956,NaNL209.4184957,NaNL207.5755068,NaNL205.7290271,NaNL203.8788938,NaNL202.0249836,NaNL200.1672080,NaNL198.3055033,NaNL196.4398272,NaNL194.5701568,NaNL192.6964867,NaNL190.8188271,NaNL188.9372024,NaNL187.0516496,NaNL185.1622162,NaNL183.2689595,NaNL181.3719446,NaNL179.4712437,NaNz M179.1367761,NaNL179.4712437,NaNL181.3719446,NaNL183.2689595,NaNL185.1622162,NaNL187.0516496,NaNL188.9372024,NaNL190.8188271,NaNL192.6964867,NaNL194.5701568,NaNL196.4398272,NaNL198.3055033,NaNL200.1672080,NaNL202.0249836,NaNL203.8788938,NaNL205.7290271,NaNL207.5755068,NaNL209.4184957,NaNL211.2581956,NaNL213.0948468,NaNL214.9287268,NaNL216.7601495,NaNL218.5894636,NaNL220.4170515,NaNL222.2433273,NaNL224.0687352,NaNL225.8937476,NaNL227.7188628,NaNL229.5446028,NaNL231.3715112,NaNL233.2001502,NaNL235.0310983,NaNL236.8649474,NaNL238.7023003,NaNL240.5437675,NaNL242.3899646,NaNL244.2415091,NaNL246.0990179,NaNL247.9631039,NaNL249.8343737,NaNL251.7134244,NaNL253.6008410,NaNL255.4971938,NaNL257.4030361,NaNL259.3189011,NaNL261.2453004,NaNL263.1827215,NaNL265.1316255,NaNL267.0924457,NaNL269.0655857,NaNL271.0514175,NaNL273.0502805,NaNL275.0624800,NaNL277.0882859,NaNL279.1279320,NaNL281.1816148,NaNL283.2494927,NaNL285.3316856,NaNL287.4282743,NaNL289.5392999,NaNL291.6647634,NaNL293.8046257,NaNL295.9588073,NaNL298.1271881,NaNL300.3096076,NaNL302.5058680,NaNL304.7157489,NaNL306.9390139,NaNL309.1754129,NaNL311.4246835,NaNL313.6865517,NaNL315.9607341,NaNL318.2469383,NaNL320.5448642,NaNL322.8542055,NaNL325.1746498,NaNL327.5058804,NaNL329.8475764,NaNL330.7140482,NaNL329.8475764,NaNL327.5058804,NaNL325.1746498,NaNL322.8542055,NaNL320.5448642,NaNL318.2469383,NaNL315.9607341,NaNL313.6865517,NaNL311.4246835,NaNL309.1754129,NaNL306.9390139,NaNL304.7157489,NaNL302.5058680,NaNL300.3096076,NaNL298.1271881,NaNL295.9588073,NaNL293.8046257,NaNL291.6647634,NaNL289.5392999,NaNL287.4282743,NaNL285.3316856,NaNL283.2494927,NaNL281.1816148,NaNL279.1279320,NaNL277.0882859,NaNL275.0624800,NaNL273.0502805,NaNL271.0514175,NaNL269.0655857,NaNL267.0924457,NaNL265.1316255,NaNL263.1827215,NaNL261.2453004,NaNL259.3189011,NaNL257.4030361,NaNL255.4971938,NaNL253.6008410,NaNL251.7134244,NaNL249.8343737,NaNL247.9631039,NaNL246.0990179,NaNL244.2415091,NaNL242.3899646,NaNL240.5437675,NaNL238.7023003,NaNL236.8649474,NaNL235.0310983,NaNL233.2001502,NaNL231.3715112,NaNL229.5446028,NaNL227.7188628,NaNL225.8937476,NaNL224.0687352,NaNL222.2433273,NaNL220.4170515,NaNL218.5894636,NaNL216.7601495,NaNL214.9287268,NaNL213.0948468,NaNL211.2581956,NaNL209.4184957,NaNL207.5755068,NaNL205.7290271,NaNL203.8788938,NaNL202.0249836,NaNL200.1672080,NaNL198.3055033,NaNL196.4398272,NaNL194.5701568,NaNL192.6964867,NaNL190.8188271,NaNL188.9372024,NaNL187.0516496,NaNL185.1622162,NaNL183.2689595,NaNL181.3719446,NaNL179.4712437,NaNz M344.4938002,NaNL346.5050744,NaNL348.9187258,NaNL351.3398993,NaNL353.7682723,NaNL356.2035252,NaNL358.6453413,NaNL361.0934077,NaNL363.5474153,NaNL366.0070593,NaNL368.4720398,NaNL370.9420616,NaNL373.4168347,NaNL375.8960752,NaNL378.3795044,NaNL380.8668505,NaNL383.3578475,NaNL385.8522366,NaNL388.3497656,NaNL390.8501898,NaNL393.3532718,NaNL395.8587819,NaNL398.3664985,NaNL400.8762080,NaNL403.3877052,NaNL405.9007936,NaNL408.4152856,NaNL410.9310025,NaNL413.4477750,NaNL415.9654433,NaNL418.4838574,NaNL421.0028771,NaNL423.5223688,NaNL426.0421947,NaNL428.5622092,NaNL431.0822594,NaNL433.6021846,NaNL436.1218168,NaNL438.6409806,NaNL441.1594937,NaNL443.6771663,NaNL446.1938023,NaNL448.7091983,NaNL451.2231445,NaNL453.7354247,NaNL456.2458164,NaNL458.7540909,NaNL461.2600136,NaNL463.7633441,NaNL466.2638367,NaNL468.7612400,NaNL471.2552978,NaNL473.7457488,NaNL476.2323274,NaNL478.7147634,NaNL481.1927825,NaNL483.6661068,NaNL486.1344548,NaNL488.5975419,NaNL491.0550808,NaNL493.5067815,NaNL495.9523522,NaNL496.0710723,NaNL495.9523522,NaNL493.5067815,NaNL491.0550808,NaNL488.5975419,NaNL486.1344548,NaNL483.6661068,NaNL481.1927825,NaNL478.7147634,NaNL476.2323274,NaNL473.7457488,NaNL471.2552978,NaNL468.7612400,NaNL466.2638367,NaNL463.7633441,NaNL461.2600136,NaNL458.7540909,NaNL456.2458164,NaNL453.7354247,NaNL451.2231445,NaNL448.7091983,NaNL446.1938023,NaNL443.6771663,NaNL441.1594937,NaNL438.6409806,NaNL436.1218168,NaNL433.6021846,NaNL431.0822594,NaNL428.5622092,NaNL426.0421947,NaNL423.5223688,NaNL421.0028771,NaNL418.4838574,NaNL415.9654433,NaNL413.4477750,NaNL410.9310025,NaNL408.4152856,NaNL405.9007936,NaNL403.3877052,NaNL400.8762080,NaNL398.3664985,NaNL395.8587819,NaNL393.3532718,NaNL390.8501898,NaNL388.3497656,NaNL385.8522366,NaNL383.3578475,NaNL380.8668505,NaNL378.3795044,NaNL375.8960752,NaNL373.4168347,NaNL370.9420616,NaNL368.4720398,NaNL366.0070593,NaNL363.5474153,NaNL361.0934077,NaNL358.6453413,NaNL356.2035252,NaNL353.7682723,NaNL351.3398993,NaNL348.9187258,NaNL346.5050744,NaNz M344.4938002,NaNL346.5050744,NaNL348.9187258,NaNL351.3398993,NaNL353.7682723,NaNL356.2035252,NaNL358.6453413,NaNL361.0934077,NaNL363.5474153,NaNL366.0070593,NaNL368.4720398,NaNL370.9420616,NaNL373.4168347,NaNL375.8960752,NaNL378.3795044,NaNL380.8668505,NaNL383.3578475,NaNL385.8522366,NaNL388.3497656,NaNL390.8501898,NaNL393.3532718,NaNL395.8587819,NaNL398.3664985,NaNL400.8762080,NaNL403.3877052,NaNL405.9007936,NaNL408.4152856,NaNL410.9310025,NaNL413.4477750,NaNL415.9654433,NaNL418.4838574,NaNL421.0028771,NaNL423.5223688,NaNL426.0421947,NaNL428.5622092,NaNL431.0822594,NaNL433.6021846,NaNL436.1218168,NaNL438.6409806,NaNL441.1594937,NaNL443.6771663,NaNL446.1938023,NaNL448.7091983,NaNL451.2231445,NaNL453.7354247,NaNL456.2458164,NaNL458.7540909,NaNL461.2600136,NaNL463.7633441,NaNL466.2638367,NaNL468.7612400,NaNL471.2552978,NaNL473.7457488,NaNL476.2323274,NaNL478.7147634,NaNL481.1927825,NaNL483.6661068,NaNL486.1344548,NaNL488.5975419,NaNL491.0550808,NaNL493.5067815,NaNL495.9523522,NaNL496.0710723,NaNL495.9523522,NaNL493.5067815,NaNL491.0550808,NaNL488.5975419,NaNL486.1344548,NaNL483.6661068,NaNL481.1927825,NaNL478.7147634,NaNL476.2323274,NaNL473.7457488,NaNL471.2552978,NaNL468.7612400,NaNL466.2638367,NaNL463.7633441,NaNL461.2600136,NaNL458.7540909,NaNL456.2458164,NaNL453.7354247,NaNL451.2231445,NaNL448.7091983,NaNL446.1938023,NaNL443.6771663,NaNL441.1594937,NaNL438.6409806,NaNL436.1218168,NaNL433.6021846,NaNL431.0822594,NaNL428.5622092,NaNL426.0421947,NaNL423.5223688,NaNL421.0028771,NaNL418.4838574,NaNL415.9654433,NaNL413.4477750,NaNL410.9310025,NaNL408.4152856,NaNL405.9007936,NaNL403.3877052,NaNL400.8762080,NaNL398.3664985,NaNL395.8587819,NaNL393.3532718,NaNL390.8501898,NaNL388.3497656,NaNL385.8522366,NaNL383.3578475,NaNL380.8668505,NaNL378.3795044,NaNL375.8960752,NaNL373.4168347,NaNL370.9420616,NaNL368.4720398,NaNL366.0070593,NaNL363.5474153,NaNL361.0934077,NaNL358.6453413,NaNL356.2035252,NaNL353.7682723,NaNL351.3398993,NaNL348.9187258,NaNL346.5050744,NaNz M509.8508244,NaNL510.4805513,NaNL512.8749596,NaNL515.2608838,NaNL517.6380351,NaNL520.0061281,NaNL522.3648816,NaNL524.7140191,NaNL527.0532698,NaNL529.3823694,NaNL531.7010609,NaNL534.0090961,NaNL536.3062358,NaNL538.5922518,NaNL540.8669274,NaNL543.1300591,NaNL545.3814634,NaNL547.6209915,NaNL549.8485313,NaNL552.0640080,NaNL554.2673833,NaNL556.4586549,NaNL558.6378559,NaNL560.8050545,NaNL562.9603527,NaNL565.1038859,NaNL567.2358218,NaNL569.3563593,NaNL571.4657273,NaNL573.5641838,NaNL575.6520140,NaNL577.7295292,NaNL579.7970650,NaNL581.8549797,NaNL583.9036526,NaNL585.9434818,NaNL587.9748825,NaNL589.9982847,NaNL592.0141310,NaNL594.0228746,NaNL596.0249768,NaNL598.0209045,NaNL600.0111280,NaNL601.9961185,NaNL603.9763456,NaNL605.9522746,NaNL607.9243646,NaNL609.8930654,NaNL611.8588155,NaNL613.8220396,NaNL615.7831463,NaNL617.7425257,NaNL619.7005474,NaNL621.6575586,NaNL623.6138816,NaNL625.5698125,NaNL627.5256189,NaNL629.4815386,NaNL631.4377781,NaNL633.3945108,NaNL635.3518763,NaNL637.3099785,NaNL639.2688854,NaNL641.2286275,NaNL643.1891971,NaNL645.1505484,NaNL647.1126049,NaNL649.0752745,NaNL651.0384542,NaNL653.0020309,NaNL654.9658836,NaNL656.9298846,NaNL658.8939008,NaNL660.8577951,NaNL661.4280965,NaNL660.8577951,NaNL658.8939008,NaNL656.9298846,NaNL654.9658836,NaNL653.0020309,NaNL651.0384542,NaNL649.0752745,NaNL647.1126049,NaNL645.1505484,NaNL643.1891971,NaNL641.2286275,NaNL639.2688854,NaNL637.3099785,NaNL635.3518763,NaNL633.3945108,NaNL631.4377781,NaNL629.4815386,NaNL627.5256189,NaNL625.5698125,NaNL623.6138816,NaNL621.6575586,NaNL619.7005474,NaNL617.7425257,NaNL615.7831463,NaNL613.8220396,NaNL611.8588155,NaNL609.8930654,NaNL607.9243646,NaNL605.9522746,NaNL603.9763456,NaNL601.9961185,NaNL600.0111280,NaNL598.0209045,NaNL596.0249768,NaNL594.0228746,NaNL592.0141310,NaNL589.9982847,NaNL587.9748825,NaNL585.9434818,NaNL583.9036526,NaNL581.8549797,NaNL579.7970650,NaNL577.7295292,NaNL575.6520140,NaNL573.5641838,NaNL571.4657273,NaNL569.3563593,NaNL567.2358218,NaNL565.1038859,NaNL562.9603527,NaNL560.8050545,NaNL558.6378559,NaNL556.4586549,NaNL554.2673833,NaNL552.0640080,NaNL549.8485313,NaNL547.6209915,NaNL545.3814634,NaNL543.1300591,NaNL540.8669274,NaNL538.5922518,NaNL536.3062358,NaNL534.0090961,NaNL531.7010609,NaNL529.3823694,NaNL527.0532698,NaNL524.7140191,NaNL522.3648816,NaNL520.0061281,NaNL517.6380351,NaNL515.2608838,NaNL512.8749596,NaNL510.4805513,NaNz M509.8508244,NaNL510.4805513,NaNL512.8749596,NaNL515.2608838,NaNL517.6380351,NaNL520.0061281,NaNL522.3648816,NaNL524.7140191,NaNL527.0532698,NaNL529.3823694,NaNL531.7010609,NaNL534.0090961,NaNL536.3062358,NaNL538.5922518,NaNL540.8669274,NaNL543.1300591,NaNL545.3814634,NaNL547.6209915,NaNL549.8485313,NaNL552.0640080,NaNL554.2673833,NaNL556.4586549,NaNL558.6378559,NaNL560.8050545,NaNL562.9603527,NaNL565.1038859,NaNL567.2358218,NaNL569.3563593,NaNL571.4657273,NaNL573.5641838,NaNL575.6520140,NaNL577.7295292,NaNL579.7970650,NaNL581.8549797,NaNL583.9036526,NaNL585.9434818,NaNL587.9748825,NaNL589.9982847,NaNL592.0141310,NaNL594.0228746,NaNL596.0249768,NaNL598.0209045,NaNL600.0111280,NaNL601.9961185,NaNL603.9763456,NaNL605.9522746,NaNL607.9243646,NaNL609.8930654,NaNL611.8588155,NaNL613.8220396,NaNL615.7831463,NaNL617.7425257,NaNL619.7005474,NaNL621.6575586,NaNL623.6138816,NaNL625.5698125,NaNL627.5256189,NaNL629.4815386,NaNL631.4377781,NaNL633.3945108,NaNL635.3518763,NaNL637.3099785,NaNL639.2688854,NaNL641.2286275,NaNL643.1891971,NaNL645.1505484,NaNL647.1126049,NaNL649.0752745,NaNL651.0384542,NaNL653.0020309,NaNL654.9658836,NaNL656.9298846,NaNL658.8939008,NaNL660.8577951,NaNL661.4280965,NaNL660.8577951,NaNL658.8939008,NaNL656.9298846,NaNL654.9658836,NaNL653.0020309,NaNL651.0384542,NaNL649.0752745,NaNL647.1126049,NaNL645.1505484,NaNL643.1891971,NaNL641.2286275,NaNL639.2688854,NaNL637.3099785,NaNL635.3518763,NaNL633.3945108,NaNL631.4377781,NaNL629.4815386,NaNL627.5256189,NaNL625.5698125,NaNL623.6138816,NaNL621.6575586,NaNL619.7005474,NaNL617.7425257,NaNL615.7831463,NaNL613.8220396,NaNL611.8588155,NaNL609.8930654,NaNL607.9243646,NaNL605.9522746,NaNL603.9763456,NaNL601.9961185,NaNL600.0111280,NaNL598.0209045,NaNL596.0249768,NaNL594.0228746,NaNL592.0141310,NaNL589.9982847,NaNL587.9748825,NaNL585.9434818,NaNL583.9036526,NaNL581.8549797,NaNL579.7970650,NaNL577.7295292,NaNL575.6520140,NaNL573.5641838,NaNL571.4657273,NaNL569.3563593,NaNL567.2358218,NaNL565.1038859,NaNL562.9603527,NaNL560.8050545,NaNL558.6378559,NaNL556.4586549,NaNL554.2673833,NaNL552.0640080,NaNL549.8485313,NaNL547.6209915,NaNL545.3814634,NaNL543.1300591,NaNL540.8669274,NaNL538.5922518,NaNL536.3062358,NaNL534.0090961,NaNL531.7010609,NaNL529.3823694,NaNL527.0532698,NaNL524.7140191,NaNL522.3648816,NaNL520.0061281,NaNL517.6380351,NaNL515.2608838,NaNL512.8749596,NaNL510.4805513,NaNz M675.2078485,NaNL676.5476894,NaNL678.5042085,NaNL680.4592520,NaNL682.4127062,NaNL684.3644643,NaNL686.3144271,NaNL688.2625036,NaNL690.2086112,NaNL692.1526767,NaNL694.0946367,NaNL696.0344377,NaNL697.9720369,NaNL699.9074026,NaNL701.8405143,NaNL703.7713634,NaNL705.6999532,NaNL707.6262998,NaNL709.5504318,NaNL711.4723908,NaNL713.3922318,NaNL715.3100234,NaNL717.2258480,NaNL719.1398022,NaNL721.0519968,NaNL722.9625570,NaNL724.8716230,NaNL726.7793498,NaNL728.6859073,NaNL730.5914810,NaNL732.4962716,NaNL734.4004957,NaNL736.3043854,NaNL738.2081889,NaNL740.1121703,NaNL742.0166095,NaNL743.9217930,NaNL745.8280023,NaNL747.7355122,NaNL749.6445915,NaNL751.5555027,NaNL753.4685024,NaNL755.3838414,NaNL757.3017647,NaNL759.2225120,NaNL761.1463176,NaNL763.0734104,NaNL765.0040144,NaNL766.9383487,NaNL768.8766274,NaNL770.8190599,NaNL772.7658512,NaNL774.7172015,NaNL776.6733070,NaNL778.6343594,NaNL780.6005462,NaNL782.5720510,NaNL784.5490531,NaNL786.5317283,NaNL788.5202482,NaNL790.5147809,NaNL792.5154908,NaNL794.5225384,NaNL796.5360812,NaNL798.5562727,NaNL800.5832635,NaNL802.6172003,NaNL804.6582270,NaNL806.7064841,NaNL808.7621088,NaNL810.8252354,NaNL812.8959949,NaNL814.9745156,NaNL817.0609226,NaNL819.1553381,NaNL821.2578814,NaNL823.3686693,NaNL825.4878154,NaNL826.7851206,NaNL825.4878154,NaNL823.3686693,NaNL821.2578814,NaNL819.1553381,NaNL817.0609226,NaNL814.9745156,NaNL812.8959949,NaNL810.8252354,NaNL808.7621088,NaNL806.7064841,NaNL804.6582270,NaNL802.6172003,NaNL800.5832635,NaNL798.5562727,NaNL796.5360812,NaNL794.5225384,NaNL792.5154908,NaNL790.5147809,NaNL788.5202482,NaNL786.5317283,NaNL784.5490531,NaNL782.5720510,NaNL780.6005462,NaNL778.6343594,NaNL776.6733070,NaNL774.7172015,NaNL772.7658512,NaNL770.8190599,NaNL768.8766274,NaNL766.9383487,NaNL765.0040144,NaNL763.0734104,NaNL761.1463176,NaNL759.2225120,NaNL757.3017647,NaNL755.3838414,NaNL753.4685024,NaNL751.5555027,NaNL749.6445915,NaNL747.7355122,NaNL745.8280023,NaNL743.9217930,NaNL742.0166095,NaNL740.1121703,NaNL738.2081889,NaNL736.3043854,NaNL734.4004957,NaNL732.4962716,NaNL730.5914810,NaNL728.6859073,NaNL726.7793498,NaNL724.8716230,NaNL722.9625570,NaNL721.0519968,NaNL719.1398022,NaNL717.2258480,NaNL715.3100234,NaNL713.3922318,NaNL711.4723908,NaNL709.5504318,NaNL707.6262998,NaNL705.6999532,NaNL703.7713634,NaNL701.8405143,NaNL699.9074026,NaNL697.9720369,NaNL696.0344377,NaNL694.0946367,NaNL692.1526767,NaNL690.2086112,NaNL688.2625036,NaNL686.3144271,NaNL684.3644643,NaNL682.4127062,NaNL680.4592520,NaNL678.5042085,NaNL676.5476894,NaNz M675.2078485,NaNL676.5476894,NaNL678.5042085,NaNL680.4592520,NaNL682.4127062,NaNL684.3644643,NaNL686.3144271,NaNL688.2625036,NaNL690.2086112,NaNL692.1526767,NaNL694.0946367,NaNL696.0344377,NaNL697.9720369,NaNL699.9074026,NaNL701.8405143,NaNL703.7713634,NaNL705.6999532,NaNL707.6262998,NaNL709.5504318,NaNL711.4723908,NaNL713.3922318,NaNL715.3100234,NaNL717.2258480,NaNL719.1398022,NaNL721.0519968,NaNL722.9625570,NaNL724.8716230,NaNL726.7793498,NaNL728.6859073,NaNL730.5914810,NaNL732.4962716,NaNL734.4004957,NaNL736.3043854,NaNL738.2081889,NaNL740.1121703,NaNL742.0166095,NaNL743.9217930,NaNL745.8280023,NaNL747.7355122,NaNL749.6445915,NaNL751.5555027,NaNL753.4685024,NaNL755.3838414,NaNL757.3017647,NaNL759.2225120,NaNL761.1463176,NaNL763.0734104,NaNL765.0040144,NaNL766.9383487,NaNL768.8766274,NaNL770.8190599,NaNL772.7658512,NaNL774.7172015,NaNL776.6733070,NaNL778.6343594,NaNL780.6005462,NaNL782.5720510,NaNL784.5490531,NaNL786.5317283,NaNL788.5202482,NaNL790.5147809,NaNL792.5154908,NaNL794.5225384,NaNL796.5360812,NaNL798.5562727,NaNL800.5832635,NaNL802.6172003,NaNL804.6582270,NaNL806.7064841,NaNL808.7621088,NaNL810.8252354,NaNL812.8959949,NaNL814.9745156,NaNL817.0609226,NaNL819.1553381,NaNL821.2578814,NaNL823.3686693,NaNL825.4878154,NaNL826.7851206,NaNL825.4878154,NaNL823.3686693,NaNL821.2578814,NaNL819.1553381,NaNL817.0609226,NaNL814.9745156,NaNL812.8959949,NaNL810.8252354,NaNL808.7621088,NaNL806.7064841,NaNL804.6582270,NaNL802.6172003,NaNL800.5832635,NaNL798.5562727,NaNL796.5360812,NaNL794.5225384,NaNL792.5154908,NaNL790.5147809,NaNL788.5202482,NaNL786.5317283,NaNL784.5490531,NaNL782.5720510,NaNL780.6005462,NaNL778.6343594,NaNL776.6733070,NaNL774.7172015,NaNL772.7658512,NaNL770.8190599,NaNL768.8766274,NaNL766.9383487,NaNL765.0040144,NaNL763.0734104,NaNL761.1463176,NaNL759.2225120,NaNL757.3017647,NaNL755.3838414,NaNL753.4685024,NaNL751.5555027,NaNL749.6445915,NaNL747.7355122,NaNL745.8280023,NaNL743.9217930,NaNL742.0166095,NaNL740.1121703,NaNL738.2081889,NaNL736.3043854,NaNL734.4004957,NaNL732.4962716,NaNL730.5914810,NaNL728.6859073,NaNL726.7793498,NaNL724.8716230,NaNL722.9625570,NaNL721.0519968,NaNL719.1398022,NaNL717.2258480,NaNL715.3100234,NaNL713.3922318,NaNL711.4723908,NaNL709.5504318,NaNL707.6262998,NaNL705.6999532,NaNL703.7713634,NaNL701.8405143,NaNL699.9074026,NaNL697.9720369,NaNL696.0344377,NaNL694.0946367,NaNL692.1526767,NaNL690.2086112,NaNL688.2625036,NaNL686.3144271,NaNL684.3644643,NaNL682.4127062,NaNL680.4592520,NaNL678.5042085,NaNL676.5476894,NaNz M-14.1732194,-70.8660971L0.0000000,-70.8660971L2.2928294,-70.8660971L4.5800430,-70.8660971L6.8615438,-70.8660971L9.1372407,-70.8660971L11.4070475,-70.8660971L13.6708839,-70.8660971L15.9286749,-70.8660971L18.1803510,-70.8660971L20.4258481,-70.8660971L22.6651077,-70.8660971L24.8980769,-70.8660971L27.1247083,-70.8660971L29.3449599,-70.8660971L31.5587955,-70.8660971L33.7661844,-70.8660971L35.9671015,-70.8660971L38.1615273,-70.8660971L40.3494480,-70.8660971L42.5308554,-70.8660971L44.7057471,-70.8660971L46.8741261,-70.8660971L49.0360015,-70.8660971L51.1913878,-70.8660971L53.3403053,-70.8660971L55.4827803,-70.8660971L57.6188445,-70.8660971L59.7485357,-70.8660971L61.8718973,-70.8660971L63.9889786,-70.8660971L66.0998349,-70.8660971L68.2045270,-70.8660971L70.3031220,-70.8660971L72.3956925,-70.8660971L74.4823174,-70.8660971L76.5630811,-70.8660971L78.6380744,-70.8660971L80.7073937,-70.8660971L82.7711417,-70.8660971L84.8294267,-70.8660971L86.8823634,-70.8660971L88.9300724,-70.8660971L90.9726802,-70.8660971L93.0103196,-70.8660971L95.0431294,-70.8660971L97.0712543,-70.8660971L99.0948455,-70.8660971L101.1140600,-70.8660971L103.1290611,-70.8660971L105.1400182,-70.8660971L107.1471067,-70.8660971L109.1505073,-70.8660971L111.1503955,-70.8660971L113.1469347,-70.8660971L115.1402757,-70.8660971L117.1305569,-70.8660971L119.1179048,-70.8660971L121.1024336,-70.8660971L123.0842456,-70.8660971L125.0634316,-70.8660971L127.0400710,-70.8660971L129.0142319,-70.8660971L130.9859714,-70.8660971L132.9553359,-70.8660971L134.9223612,-70.8660971L136.8870730,-70.8660971L138.8494869,-70.8660971L140.8096089,-70.8660971L142.7674359,-70.8660971L144.7229554,-70.8660971L146.6761465,-70.8660971L148.6269802,-70.8660971L150.5754192,-70.8660971L152.5214193,-70.8660971L154.4649289,-70.8660971L156.4058902,-70.8660971L158.3442393,-70.8660971L160.2799069,-70.8660971L162.2128188,-70.8660971L164.1428967,-70.8660971L166.0700586,-70.8660971L167.9942196,-70.8660971L169.9152927,-70.8660971L171.8331894,-70.8660971L173.7478208,-70.8660971L175.6590983,-70.8660971L177.5669343,-70.8660971L179.4712437,-70.8660971L181.3719446,-70.8660971L183.2689595,-70.8660971L185.1622162,-70.8660971L187.0516496,-70.8660971L188.9372024,-70.8660971L190.8188271,-70.8660971L192.6964867,-70.8660971L194.5701568,-70.8660971L196.4398272,-70.8660971L198.3055033,-70.8660971L200.1672080,-70.8660971L202.0249836,-70.8660971L203.8788938,-70.8660971L205.7290271,-70.8660971L207.5755068,-70.8660971L209.4184957,-70.8660971L211.2581956,-70.8660971L213.0948468,-70.8660971L214.9287268,-70.8660971L216.7601495,-70.8660971L218.5894636,-70.8660971L220.4170515,-70.8660971L222.2433273,-70.8660971L224.0687352,-70.8660971L225.8937476,-70.8660971L227.7188628,-70.8660971L229.5446028,-70.8660971L231.3715112,-70.8660971L233.2001502,-70.8660971L235.0310983,-70.8660971L236.8649474,-70.8660971L238.7023003,-70.8660971L240.5437675,-70.8660971L242.3899646,-70.8660971L244.2415091,-70.8660971L246.0990179,-70.8660971L247.9631039,-70.8660971L249.8343737,-70.8660971L251.7134244,-70.8660971L253.6008410,-70.8660971L255.4971938,-70.8660971L257.4030361,-70.8660971L259.3189011,-70.8660971L261.2453004,-70.8660971L263.1827215,-70.8660971L265.1316255,-70.8660971L267.0924457,-70.8660971L269.0655857,-70.8660971L271.0514175,-70.8660971L273.0502805,-70.8660971L275.0624800,-70.8660971L277.0882859,-70.8660971L279.1279320,-70.8660971L281.1816148,-70.8660971L283.2494927,-70.8660971L285.3316856,-70.8660971L287.4282743,-70.8660971L289.5392999,-70.8660971L291.6647634,-70.8660971L293.8046257,-70.8660971L295.9588073,-70.8660971L298.1271881,-70.8660971L300.3096076,-70.8660971L302.5058680,-70.8660971L304.7157489,-70.8660971L306.9390139,-70.8660971L309.1754129,-70.8660971L311.4246835,-70.8660971L313.6865517,-70.8660971L315.9607341,-70.8660971L318.2469383,-70.8660971L320.5448642,-70.8660971L322.8542055,-70.8660971L325.1746498,-70.8660971L327.5058804,-70.8660971L329.8475764,-70.8660971L332.1994141,-70.8660971L334.5610673,-70.8660971L336.9322082,-70.8660971L339.3125082,-70.8660971L341.7016383,-70.8660971L344.0992696,-70.8660971L346.5050744,-70.8660971L348.9187258,-70.8660971L351.3398993,-70.8660971L353.7682723,-70.8660971L356.2035252,-70.8660971L358.6453413,-70.8660971L361.0934077,-70.8660971L363.5474153,-70.8660971L366.0070593,-70.8660971L368.4720398,-70.8660971L370.9420616,-70.8660971L373.4168347,-70.8660971L375.8960752,-70.8660971L378.3795044,-70.8660971L380.8668505,-70.8660971L383.3578475,-70.8660971L385.8522366,-70.8660971L388.3497656,-70.8660971L390.8501898,-70.8660971L393.3532718,-70.8660971L395.8587819,-70.8660971L398.3664985,-70.8660971L400.8762080,-70.8660971L403.3877052,-70.8660971L405.9007936,-70.8660971L408.4152856,-70.8660971L410.9310025,-70.8660971L413.4477750,-70.8660971L415.9654433,-70.8660971L418.4838574,-70.8660971L421.0028771,-70.8660971L423.5223688,-70.8660971L426.0421947,-70.8660971L428.5622092,-70.8660971L431.0822594,-70.8660971L433.6021846,-70.8660971L436.1218168,-70.8660971L438.6409806,-70.8660971L441.1594937,-70.8660971L443.6771663,-70.8660971L446.1938023,-70.8660971L448.7091983,-70.8660971L451.2231445,-70.8660971L453.7354247,-70.8660971L456.2458164,-70.8660971L458.7540909,-70.8660971L461.2600136,-70.8660971L463.7633441,-70.8660971L466.2638367,-70.8660971L468.7612400,-70.8660971L471.2552978,-70.8660971L473.7457488,-70.8660971L476.2323274,-70.8660971L478.7147634,-70.8660971L481.1927825,-70.8660971L483.6661068,-70.8660971L486.1344548,-70.8660971L488.5975419,-70.8660971L491.0550808,-70.8660971L493.5067815,-70.8660971L495.9523522,-70.8660971L498.3914993,-70.8660971L500.8239282,-70.8660971L503.2493434,-70.8660971L505.6674492,-70.8660971L508.0779500,-70.8660971L510.4805513,-70.8660971L512.8749596,-70.8660971L515.2608838,-70.8660971L517.6380351,-70.8660971L520.0061281,-70.8660971L522.3648816,-70.8660971L524.7140191,-70.8660971L527.0532698,-70.8660971L529.3823694,-70.8660971L531.7010609,-70.8660971L534.0090961,-70.8660971L536.3062358,-70.8660971L538.5922518,-70.8660971L540.8669274,-70.8660971L543.1300591,-70.8660971L545.3814634,-70.8660971L547.6209915,-70.8660971L549.8485313,-70.8660971L552.0640080,-70.8660971L554.2673833,-70.8660971L556.4586549,-70.8660971L558.6378559,-70.8660971L560.8050545,-70.8660971L562.9603527,-70.8660971L565.1038859,-70.8660971L567.2358218,-70.8660971L569.3563593,-70.8660971L571.4657273,-70.8660971L573.5641838,-70.8660971L575.6520140,-70.8660971L577.7295292,-70.8660971L579.7970650,-70.8660971L581.8549797,-70.8660971L583.9036526,-70.8660971L585.9434818,-70.8660971L587.9748825,-70.8660971L589.9982847,-70.8660971L592.0141310,-70.8660971L594.0228746,-70.8660971L596.0249768,-70.8660971L598.0209045,-70.8660971L600.0111280,-70.8660971L601.9961185,-70.8660971L603.9763456,-70.8660971L605.9522746,-70.8660971L607.9243646,-70.8660971L609.8930654,-70.8660971L611.8588155,-70.8660971L613.8220396,-70.8660971L615.7831463,-70.8660971L617.7425257,-70.8660971L619.7005474,-70.8660971L621.6575586,-70.8660971L623.6138816,-70.8660971L625.5698125,-70.8660971L627.5256189,-70.8660971L629.4815386,-70.8660971L631.4377781,-70.8660971L633.3945108,-70.8660971L635.3518763,-70.8660971L637.3099785,-70.8660971L639.2688854,-70.8660971L641.2286275,-70.8660971L643.1891971,-70.8660971L645.1505484,-70.8660971L647.1126049,-70.8660971L649.0752745,-70.8660971L651.0384542,-70.8660971L653.0020309,-70.8660971L654.9658836,-70.8660971L656.9298846,-70.8660971L658.8939008,-70.8660971L660.8577951,-70.8660971L662.8214275,-70.8660971L664.7846566,-70.8660971L666.7473402,-70.8660971L668.7093367,-70.8660971L670.6705059,-70.8660971L672.6307101,-70.8660971L674.5898148,-70.8660971L676.5476894,-70.8660971L678.5042085,-70.8660971L680.4592520,-70.8660971L682.4127062,-70.8660971L684.3644643,-70.8660971L686.3144271,-70.8660971L688.2625036,-70.8660971L690.2086112,-70.8660971L692.1526767,-70.8660971L694.0946367,-70.8660971L696.0344377,-70.8660971L697.9720369,-70.8660971L699.9074026,-70.8660971L701.8405143,-70.8660971L703.7713634,-70.8660971L705.6999532,-70.8660971L707.6262998,-70.8660971L709.5504318,-70.8660971L711.4723908,-70.8660971L713.3922318,-70.8660971L715.3100234,-70.8660971L717.2258480,-70.8660971L719.1398022,-70.8660971L721.0519968,-70.8660971L722.9625570,-70.8660971L724.8716230,-70.8660971L726.7793498,-70.8660971L728.6859073,-70.8660971L730.5914810,-70.8660971L732.4962716,-70.8660971L734.4004957,-70.8660971L736.3043854,-70.8660971L738.2081889,-70.8660971L740.1121703,-70.8660971L742.0166095,-70.8660971L743.9217930,-70.8660971L745.8280023,-70.8660971L747.7355122,-70.8660971L749.6445915,-70.8660971L751.5555027,-70.8660971L753.4685024,-70.8660971L755.3838414,-70.8660971L757.3017647,-70.8660971L759.2225120,-70.8660971L761.1463176,-70.8660971L763.0734104,-70.8660971L765.0040144,-70.8660971L766.9383487,-70.8660971L768.8766274,-70.8660971L770.8190599,-70.8660971L772.7658512,-70.8660971L774.7172015,-70.8660971L776.6733070,-70.8660971L778.6343594,-70.8660971L780.6005462,-70.8660971L782.5720510,-70.8660971L784.5490531,-70.8660971L786.5317283,-70.8660971L788.5202482,-70.8660971L790.5147809,-70.8660971L792.5154908,-70.8660971L794.5225384,-70.8660971L796.5360812,-70.8660971L798.5562727,-70.8660971L800.5832635,-70.8660971L802.6172003,-70.8660971L804.6582270,-70.8660971L806.7064841,-70.8660971L808.7621088,-70.8660971L810.8252354,-70.8660971L812.8959949,-70.8660971L814.9745156,-70.8660971L817.0609226,-70.8660971L819.1553381,-70.8660971L821.2578814,-70.8660971L823.3686693,-70.8660971L825.4878154,-70.8660971L827.6154309,-70.8660971L829.7516242,-70.8660971L831.8965011,-70.8660971L834.0501648,-70.8660971L836.2127162,-70.8660971L838.3842535,-70.8660971L840.5648726,-70.8660971L854.7380920,-70.8660971L854.7380920,70.8660971L840.5648726,70.8660971L838.3842535,70.8660971L836.2127162,70.8660971L834.0501648,70.8660971L831.8965011,70.8660971L829.7516242,70.8660971L827.6154309,70.8660971L825.4878154,70.8660971L823.3686693,70.8660971L821.2578814,70.8660971L819.1553381,70.8660971L817.0609226,70.8660971L814.9745156,70.8660971L812.8959949,70.8660971L810.8252354,70.8660971L808.7621088,70.8660971L806.7064841,70.8660971L804.6582270,70.8660971L802.6172003,70.8660971L800.5832635,70.8660971L798.5562727,70.8660971L796.5360812,70.8660971L794.5225384,70.8660971L792.5154908,70.8660971L790.5147809,70.8660971L788.5202482,70.8660971L786.5317283,70.8660971L784.5490531,70.8660971L782.5720510,70.8660971L780.6005462,70.8660971L778.6343594,70.8660971L776.6733070,70.8660971L774.7172015,70.8660971L772.7658512,70.8660971L770.8190599,70.8660971L768.8766274,70.8660971L766.9383487,70.8660971L765.0040144,70.8660971L763.0734104,70.8660971L761.1463176,70.8660971L759.2225120,70.8660971L757.3017647,70.8660971L755.3838414,70.8660971L753.4685024,70.8660971L751.5555027,70.8660971L749.6445915,70.8660971L747.7355122,70.8660971L745.8280023,70.8660971L743.9217930,70.8660971L742.0166095,70.8660971L740.1121703,70.8660971L738.2081889,70.8660971L736.3043854,70.8660971L734.4004957,70.8660971L732.4962716,70.8660971L730.5914810,70.8660971L728.6859073,70.8660971L726.7793498,70.8660971L724.8716230,70.8660971L722.9625570,70.8660971L721.0519968,70.8660971L719.1398022,70.8660971L717.2258480,70.8660971L715.3100234,70.8660971L713.3922318,70.8660971L711.4723908,70.8660971L709.5504318,70.8660971L707.6262998,70.8660971L705.6999532,70.8660971L703.7713634,70.8660971L701.8405143,70.8660971L699.9074026,70.8660971L697.9720369,70.8660971L696.0344377,70.8660971L694.0946367,70.8660971L692.1526767,70.8660971L690.2086112,70.8660971L688.2625036,70.8660971L686.3144271,70.8660971L684.3644643,70.8660971L682.4127062,70.8660971L680.4592520,70.8660971L678.5042085,70.8660971L676.5476894,70.8660971L674.5898148,70.8660971L672.6307101,70.8660971L670.6705059,70.8660971L668.7093367,70.8660971L666.7473402,70.8660971L664.7846566,70.8660971L662.8214275,70.8660971L660.8577951,70.8660971L658.8939008,70.8660971L656.9298846,70.8660971L654.9658836,70.8660971L653.0020309,70.8660971L651.0384542,70.8660971L649.0752745,70.8660971L647.1126049,70.8660971L645.1505484,70.8660971L643.1891971,70.8660971L641.2286275,70.8660971L639.2688854,70.8660971L637.3099785,70.8660971L635.3518763,70.8660971L633.3945108,70.8660971L631.4377781,70.8660971L629.4815386,70.8660971L627.5256189,70.8660971L625.5698125,70.8660971L623.6138816,70.8660971L621.6575586,70.8660971L619.7005474,70.8660971L617.7425257,70.8660971L615.7831463,70.8660971L613.8220396,70.8660971L611.8588155,70.8660971L609.8930654,70.8660971L607.9243646,70.8660971L605.9522746,70.8660971L603.9763456,70.8660971L601.9961185,70.8660971L600.0111280,70.8660971L598.0209045,70.8660971L596.0249768,70.8660971L594.0228746,70.8660971L592.0141310,70.8660971L589.9982847,70.8660971L587.9748825,70.8660971L585.9434818,70.8660971L583.9036526,70.8660971L581.8549797,70.8660971L579.7970650,70.8660971L577.7295292,70.8660971L575.6520140,70.8660971L573.5641838,70.8660971L571.4657273,70.8660971L569.3563593,70.8660971L567.2358218,70.8660971L565.1038859,70.8660971L562.9603527,70.8660971L560.8050545,70.8660971L558.6378559,70.8660971L556.4586549,70.8660971L554.2673833,70.8660971L552.0640080,70.8660971L549.8485313,70.8660971L547.6209915,70.8660971L545.3814634,70.8660971L543.1300591,70.8660971L540.8669274,70.8660971L538.5922518,70.8660971L536.3062358,70.8660971L534.0090961,70.8660971L531.7010609,70.8660971L529.3823694,70.8660971L527.0532698,70.8660971L524.7140191,70.8660971L522.3648816,70.8660971L520.0061281,70.8660971L517.6380351,70.8660971L515.2608838,70.8660971L512.8749596,70.8660971L510.4805513,70.8660971L508.0779500,70.8660971L505.6674492,70.8660971L503.2493434,70.8660971L500.8239282,70.8660971L498.3914993,70.8660971L495.9523522,70.8660971L493.5067815,70.8660971L491.0550808,70.8660971L488.5975419,70.8660971L486.1344548,70.8660971L483.6661068,70.8660971L481.1927825,70.8660971L478.7147634,70.8660971L476.2323274,70.8660971L473.7457488,70.8660971L471.2552978,70.8660971L468.7612400,70.8660971L466.2638367,70.8660971L463.7633441,70.8660971L461.2600136,70.8660971L458.7540909,70.8660971L456.2458164,70.8660971L453.7354247,70.8660971L451.2231445,70.8660971L448.7091983,70.8660971L446.1938023,70.8660971L443.6771663,70.8660971L441.1594937,70.8660971L438.6409806,70.8660971L436.1218168,70.8660971L433.6021846,70.8660971L431.0822594,70.8660971L428.5622092,70.8660971L426.0421947,70.8660971L423.5223688,70.8660971L421.0028771,70.8660971L418.4838574,70.8660971L415.9654433,70.8660971L413.4477750,70.8660971L410.9310025,70.8660971L408.4152856,70.8660971L405.9007936,70.8660971L403.3877052,70.8660971L400.8762080,70.8660971L398.3664985,70.8660971L395.8587819,70.8660971L393.3532718,70.8660971L390.8501898,70.8660971L388.3497656,70.8660971L385.8522366,70.8660971L383.3578475,70.8660971L380.8668505,70.8660971L378.3795044,70.8660971L375.8960752,70.8660971L373.4168347,70.8660971L370.9420616,70.8660971L368.4720398,70.8660971L366.0070593,70.8660971L363.5474153,70.8660971L361.0934077,70.8660971L358.6453413,70.8660971L356.2035252,70.8660971L353.7682723,70.8660971L351.3398993,70.8660971L348.9187258,70.8660971L346.5050744,70.8660971L344.0992696,70.8660971L341.7016383,70.8660971L339.3125082,70.8660971L336.9322082,70.8660971L334.5610673,70.8660971L332.1994141,70.8660971L329.8475764,70.8660971L327.5058804,70.8660971L325.1746498,70.8660971L322.8542055,70.8660971L320.5448642,70.8660971L318.2469383,70.8660971L315.9607341,70.8660971L313.6865517,70.8660971L311.4246835,70.8660971L309.1754129,70.8660971L306.9390139,70.8660971L304.7157489,70.8660971L302.5058680,70.8660971L300.3096076,70.8660971L298.1271881,70.8660971L295.9588073,70.8660971L293.8046257,70.8660971L291.6647634,70.8660971L289.5392999,70.8660971L287.4282743,70.8660971L285.3316856,70.8660971L283.2494927,70.8660971L281.1816148,70.8660971L279.1279320,70.8660971L277.0882859,70.8660971L275.0624800,70.8660971L273.0502805,70.8660971L271.0514175,70.8660971L269.0655857,70.8660971L267.0924457,70.8660971L265.1316255,70.8660971L263.1827215,70.8660971L261.2453004,70.8660971L259.3189011,70.8660971L257.4030361,70.8660971L255.4971938,70.8660971L253.6008410,70.8660971L251.7134244,70.8660971L249.8343737,70.8660971L247.9631039,70.8660971L246.0990179,70.8660971L244.2415091,70.8660971L242.3899646,70.8660971L240.5437675,70.8660971L238.7023003,70.8660971L236.8649474,70.8660971L235.0310983,70.8660971L233.2001502,70.8660971L231.3715112,70.8660971L229.5446028,70.8660971L227.7188628,70.8660971L225.8937476,70.8660971L224.0687352,70.8660971L222.2433273,70.8660971L220.4170515,70.8660971L218.5894636,70.8660971L216.7601495,70.8660971L214.9287268,70.8660971L213.0948468,70.8660971L211.2581956,70.8660971L209.4184957,70.8660971L207.5755068,70.8660971L205.7290271,70.8660971L203.8788938,70.8660971L202.0249836,70.8660971L200.1672080,70.8660971L198.3055033,70.8660971L196.4398272,70.8660971L194.5701568,70.8660971L192.6964867,70.8660971L190.8188271,70.8660971L188.9372024,70.8660971L187.0516496,70.8660971L185.1622162,70.8660971L183.2689595,70.8660971L181.3719446,70.8660971L179.4712437,70.8660971L177.5669343,70.8660971L175.6590983,70.8660971L173.7478208,70.8660971L171.8331894,70.8660971L169.9152927,70.8660971L167.9942196,70.8660971L166.0700586,70.8660971L164.1428967,70.8660971L162.2128188,70.8660971L160.2799069,70.8660971L158.3442393,70.8660971L156.4058902,70.8660971L154.4649289,70.8660971L152.5214193,70.8660971L150.5754192,70.8660971L148.6269802,70.8660971L146.6761465,70.8660971L144.7229554,70.8660971L142.7674359,70.8660971L140.8096089,70.8660971L138.8494869,70.8660971L136.8870730,70.8660971L134.9223612,70.8660971L132.9553359,70.8660971L130.9859714,70.8660971L129.0142319,70.8660971L127.0400710,70.8660971L125.0634316,70.8660971L123.0842456,70.8660971L121.1024336,70.8660971L119.1179048,70.8660971L117.1305569,70.8660971L115.1402757,70.8660971L113.1469347,70.8660971L111.1503955,70.8660971L109.1505073,70.8660971L107.1471067,70.8660971L105.1400182,70.8660971L103.1290611,70.8660971L101.1140600,70.8660971L99.0948455,70.8660971L97.0712543,70.8660971L95.0431294,70.8660971L93.0103196,70.8660971L90.9726802,70.8660971L88.9300724,70.8660971L86.8823634,70.8660971L84.8294267,70.8660971L82.7711417,70.8660971L80.7073937,70.8660971L78.6380744,70.8660971L76.5630811,70.8660971L74.4823174,70.8660971L72.3956925,70.8660971L70.3031220,70.8660971L68.2045270,70.8660971L66.0998349,70.8660971L63.9889786,70.8660971L61.8718973,70.8660971L59.7485357,70.8660971L57.6188445,70.8660971L55.4827803,70.8660971L53.3403053,70.8660971L51.1913878,70.8660971L49.0360015,70.8660971L46.8741261,70.8660971L44.7057471,70.8660971L42.5308554,70.8660971L40.3494480,70.8660971L38.1615273,70.8660971L35.9671015,70.8660971L33.7661844,70.8660971L31.5587955,70.8660971L29.3449599,70.8660971L27.1247083,70.8660971L24.8980769,70.8660971L22.6651077,70.8660971L20.4258481,70.8660971L18.1803510,70.8660971L15.9286749,70.8660971L13.6708839,70.8660971L11.4070475,70.8660971L9.1372407,70.8660971L6.8615438,70.8660971L4.5800430,70.8660971L2.2928294,70.8660971L0.0000000,70.8660971L-14.1732194,70.8660971z "/>
</svg>