<svg width="897.2578" height="141.7322" xmlns="http://www.w3.org/2000/svg">
<polyline points="0.0000,3.5148 28.3464,3.5148 30.6393,2.9458 32.9265,2.4286 35.2080,1.9630 37.4837,1.5488 39.7535,1.1855 42.0173,0.8726 44.2751,0.6092 46.5268,0.3946 48.7723,0.2275 51.0115,0.1070 53.2445,0.0316 55.4711,0.0000 57.6914,0.0107 59.9052,0.0622 62.1126,0.1527 64.3135,0.2805 66.5080,0.4440 68.6959,0.6411 70.8773,0.8702 73.0522,1.1293 75.2206,1.4164 77.3824,1.7297 79.5378,2.0673 81.6867,2.4272 83.8292,2.8075 85.9653,3.2064 88.0950,3.6219 90.2183,4.0523 92.3354,4.4957 94.4463,4.9504 96.5510,5.4146 98.6496,5.8867 100.7421,6.3649 102.8288,6.8478 104.9095,7.3338 106.9845,7.8213 109.0538,8.3090 111.1176,8.7954 113.1759,9.2792 115.2288,9.7591 117.2765,10.2338 119.3191,10.7022 121.3568,11.1630 123.3896,11.6153 125.4177,12.0578 127.4413,12.4896 129.4605,12.9096 131.4755,13.3171 133.4865,13.7109 135.4935,14.0910 137.4969,14.5119 139.4968,15.0062 141.4934,15.5706 143.4867,16.2013 145.4770,16.8942 147.4643,17.6448 149.4489,18.4483 151.4307,19.2999 153.4099,20.1944 155.3865,21.1271 157.3607,22.0928 159.3324,23.0868 161.3018,24.1044 163.2688,25.1411 165.2335,26.1927 167.1959,27.2551 169.1560,28.3246 171.1139,29.3978 173.0694,30.4715 175.0226,31.5428 176.9734,32.6091 178.9219,33.6681 180.8679,34.7175 182.8114,35.7557 184.7523,36.7808 186.6907,37.7916 188.6263,38.7867 190.5593,39.7652 192.4893,40.7260 194.4165,41.6685 196.3407,42.5920 198.2617,43.4960 200.1796,44.3801 202.0943,45.2439 204.0055,46.0873 205.9134,46.9099 207.8177,47.7118 209.7184,48.4928 211.6154,49.2529 213.5087,49.9920 215.3981,50.7103 217.2836,51.4078 219.1653,52.0844 221.0429,52.7404 222.9166,53.3758 224.7863,53.9907 226.6519,54.5852 228.5136,55.1594 230.3714,55.7134 232.2253,56.2464 234.0755,56.7394 235.9219,57.1881 237.7649,57.5958 239.6046,57.9656 241.4413,58.3000 243.2752,58.6011 245.1066,58.8707 246.9359,59.1104 248.7635,59.3216 250.5898,59.5052 252.4152,59.6622 254.2402,59.7934 256.0653,59.8995 257.8910,59.9809 259.7180,60.0380 261.5466,60.0712 263.3775,60.0806 265.2114,60.0664 267.0487,60.0286 268.8902,59.9672 270.7364,59.8821 272.5879,59.7730 274.4455,59.6398 276.3095,59.4821 278.1808,59.2996 280.0599,59.0919 281.9473,58.8584 283.8436,58.5986 285.7495,58.3118 287.6653,57.9974 289.5917,57.6547 291.5292,57.2827 293.4781,56.8806 295.4389,56.4474 297.4120,55.9821 299.3979,55.4834 301.3967,54.9502 303.4089,54.3810 305.4347,53.7743 307.4744,53.1285 309.5281,52.4419 311.5959,51.7124 313.6781,50.9380 315.7747,50.1162 317.8857,49.2445 320.0112,48.3199 322.1511,47.3391 324.3052,46.2986 326.4736,45.1942 328.6560,44.0242 330.8523,42.8158 333.0622,41.5778 335.2855,40.3115 337.5219,39.0186 339.7711,37.7006 342.0330,36.3594 344.3072,34.9971 346.5934,33.6158 348.8913,32.2181 351.2006,30.8066 353.5211,29.3841 355.8523,27.9536 358.1940,26.5184 360.5459,25.0817 362.9075,23.6473 365.2786,22.2189 367.6589,20.8003 370.0481,19.3956 372.4457,18.0089 374.8515,16.6444 377.2652,15.3065 379.6863,13.9996 382.1147,12.7279 384.5500,11.4958 386.9918,10.3076 389.4398,9.1675 391.8939,8.0796 394.3535,7.0477 396.8185,6.0756 399.2885,5.1667 401.7633,4.3242 404.2425,3.5510 406.7259,2.8496 409.2133,2.2223 411.7043,1.6709 414.1987,1.1967 416.6962,0.8008 419.1966,0.4837 421.6997,0.2455 424.2052,0.0861 426.7129,0.0046 429.2226,0.0000 431.7341,0.0708 434.2472,0.2150 436.7617,0.4305 439.2774,0.7148 441.7942,1.0650 444.3119,1.4780 446.8303,1.9506 449.3493,2.4754 451.8688,3.0272 454.3886,3.6023 456.9086,4.2009 459.4287,4.8231 461.9486,5.4689 464.4683,6.1383 466.9874,6.8311 469.5059,7.5473 472.0236,8.2864 474.5402,9.0483 477.0556,9.8325 479.5696,10.6384 482.0819,11.4657 484.5923,12.3136 487.1005,13.1815 489.6065,14.0687 492.1098,14.9744 494.6103,15.8976 497.1077,16.8376 499.6017,17.7933 502.0922,18.7638 504.5788,19.7480 507.0612,20.7449 509.5392,21.7532 512.0125,22.7719 514.4809,23.7998 516.9440,24.8357 519.4015,25.8783 521.8532,26.9265 524.2988,27.9789 526.7379,29.0343 529.1704,30.0915 531.5958,31.1492 534.0139,32.2062 536.4244,33.2611 538.8270,34.3129 541.2214,35.3601 543.6073,36.4018 545.9845,37.4366 548.3526,38.4634 550.7113,39.4812 553.0605,40.4887 555.3997,41.4850 557.7288,42.4690 560.0475,43.4398 562.3555,44.3964 564.6527,45.3378 566.9387,46.2633 569.2134,47.1719 571.4765,48.0575 573.7279,48.9001 575.9674,49.6998 578.1950,50.4588 580.4104,51.1790 582.6138,51.8621 584.8051,52.5097 586.9843,53.1232 589.1515,53.7039 591.3068,54.2532 593.4503,54.7720 595.5823,55.2615 597.7028,55.7227 599.8122,56.1565 601.9106,56.5637 603.9985,56.9452 606.0760,57.3017 608.1435,57.6340 610.2014,57.9426 612.2501,58.2282 614.2899,58.4915 616.3213,58.7329 618.3447,58.9530 620.3606,59.1523 622.3693,59.3312 624.3714,59.4900 626.3673,59.6293 628.3576,59.7494 630.3426,59.8505 632.3228,59.9329 634.2987,59.9969 636.2708,60.0428 638.2395,60.0707 640.2053,60.0806 642.1685,60.0729 644.1296,60.0474 646.0890,60.0043 648.0470,59.9435 650.0040,59.8650 651.9603,59.7686 653.9163,59.6542 655.8721,59.5214 657.8280,59.3701 659.7842,59.1998 661.7409,59.0100 663.6983,58.8001 665.6564,58.5694 667.6153,58.3171 669.5751,58.0422 671.5356,57.7434 673.4970,57.4258 675.4590,57.1050 677.4217,56.7820 679.3849,56.4573 681.3485,56.1311 683.3123,55.8039 685.2763,55.4760 687.2403,55.1477 689.2042,54.8194 691.1679,54.4912 693.1311,54.1634 695.0938,53.8362 697.0558,53.5099 699.0169,53.1844 700.9771,52.8600 702.9363,52.5366 704.8941,52.2144 706.8506,51.8932 708.8057,51.5731 710.7591,51.2538 712.7109,50.9354 714.6609,50.6175 716.6089,50.2999 718.5550,49.9824 720.4991,49.6646 722.4411,49.3460 724.3809,49.0263 726.3185,48.7049 728.2538,48.3812 730.1870,48.0546 732.1178,47.7244 734.0464,47.3898 735.9727,47.0500 737.8969,46.7041 739.8188,46.3511 741.7387,45.9898 743.6565,45.6192 745.5723,45.2380 747.4862,44.8448 749.3984,44.4382 751.3090,44.0166 753.2181,43.5782 755.1258,43.1213 757.0323,42.6438 758.9379,42.1437 760.8427,41.6184 762.7469,41.0656 764.6508,40.4824 766.5546,39.8659 768.4586,39.2128 770.3630,38.5240 772.2682,37.8052 774.1744,37.0566 776.0820,36.2781 777.9910,35.4700 779.9019,34.6327 781.8149,33.7668 783.7303,32.8730 785.6482,31.9523 787.5690,31.0060 789.4928,30.0357 791.4198,29.0434 793.3505,28.0312 795.2848,27.0020 797.2231,25.9588 799.1655,24.9051 801.1123,23.8452 803.0636,22.7835 805.0197,21.7251 806.9808,20.6757 808.9470,19.6414 810.9185,18.6288 812.8955,17.6450 814.8782,16.6976 816.8667,15.7944 818.8612,14.9434 820.8619,14.1530 822.8690,13.4314 824.8825,12.7867 826.9027,12.2270 828.9297,11.7596 830.9636,11.3913 833.0047,11.1285 835.0529,10.9761 837.1085,10.9385 839.1717,11.0186 841.2424,11.2181 843.3210,11.5376 845.4074,11.9760 847.5018,12.5313 849.6043,13.2000 851.7151,13.9773 853.8343,14.8576 855.9619,15.8342 858.0981,16.8997 860.2429,18.0460 862.3966,19.2647 864.5592,20.5470 866.7307,21.8842 868.9113,23.2673 897.2578,23.2673 897.2578,118.4649 868.9113,118.4649 866.7307,119.8480 864.5592,121.1852 862.3966,122.4675 860.2429,123.6862 858.0981,124.8325 855.9619,125.8980 853.8343,126.8746 851.7151,127.7549 849.6043,128.5322 847.5018,129.2009 845.4074,129.7561 843.3210,130.1946 841.2424,130.5141 839.1717,130.7136 837.1085,130.7937 835.0529,130.7561 833.0047,130.6037 830.9636,130.3409 828.9297,129.9726 826.9027,129.5052 824.8825,128.9454 822.8690,128.3008 820.8619,127.5792 818.8612,126.7888 816.8667,125.9378 814.8782,125.0346 812.8955,124.0872 810.9185,123.1034 808.9470,122.0908 806.9808,121.0565 805.0197,120.0071 803.0636,118.9487 801.1123,117.8870 799.1655,116.8271 797.2231,115.7734 795.2848,114.7302 793.3505,113.7010 791.4198,112.6888 789.4928,111.6965 787.5690,110.7262 785.6482,109.7799 783.7303,108.8592 781.8149,107.9654 779.9019,107.0995 777.9910,106.2622 776.0820,105.4541 774.1744,104.6756 772.2682,103.9270 770.3630,103.2082 768.4586,102.5194 766.5546,101.8663 764.6508,101.2497 762.7469,100.6666 760.8427,100.1138 758.9379,99.5885 757.0323,99.0883 755.1258,98.6109 753.2181,98.1540 751.3090,97.7156 749.3984,97.2940 747.4862,96.8874 745.5723,96.4942 743.6565,96.1130 741.7387,95.7424 739.8188,95.3811 737.8969,95.0281 735.9727,94.6822 734.0464,94.3424 732.1178,94.0078 730.1870,93.6776 728.2538,93.3510 726.3185,93.0273 724.3809,92.7059 722.4411,92.3862 720.4991,92.0676 718.5550,91.7498 716.6089,91.4323 714.6609,91.1147 712.7109,90.7968 710.7591,90.4784 708.8057,90.1591 706.8506,89.8390 704.8941,89.5178 702.9363,89.1956 700.9771,88.8722 699.0169,88.5478 697.0558,88.2223 695.0938,87.8959 693.1311,87.5688 691.1679,87.2410 689.2042,86.9128 687.2403,86.5845 685.2763,86.2562 683.3123,85.9283 681.3485,85.6011 679.3849,85.2749 677.4217,84.9502 675.4590,84.6272 673.4970,84.3064 671.5356,83.9888 669.5751,83.6900 667.6153,83.4151 665.6564,83.1628 663.6983,82.9321 661.7409,82.7222 659.7842,82.5324 657.8280,82.3621 655.8721,82.2108 653.9163,82.0780 651.9603,81.9636 650.0040,81.8672 648.0470,81.7887 646.0890,81.7279 644.1296,81.6848 642.1685,81.6593 640.2053,81.6516 638.2395,81.6615 636.2708,81.6894 634.2987,81.7352 632.3228,81.7993 630.3426,81.8817 628.3576,81.9828 626.3673,82.1029 624.3714,82.2422 622.3693,82.4010 620.3606,82.5799 618.3447,82.7792 616.3213,82.9993 614.2899,83.2407 612.2501,83.5040 610.2014,83.7896 608.1435,84.0982 606.0760,84.4305 603.9985,84.7870 601.9106,85.1685 599.8122,85.5757 597.7028,86.0095 595.5823,86.4707 593.4503,86.9602 591.3068,87.4790 589.1515,88.0282 586.9843,88.6090 584.8051,89.2225 582.6138,89.8701 580.4104,90.5532 578.1950,91.2734 575.9674,92.0324 573.7279,92.8321 571.4765,93.6747 569.2134,94.5603 566.9387,95.4689 564.6527,96.3944 562.3555,97.3358 560.0475,98.2924 557.7288,99.2631 555.3997,100.2472 553.0605,101.2435 550.7113,102.2510 548.3526,103.2688 545.9845,104.2956 543.6073,105.3304 541.2214,106.3720 538.8270,107.4193 536.4244,108.4711 534.0139,109.5260 531.5958,110.5830 529.1704,111.6407 526.7379,112.6979 524.2988,113.7533 521.8532,114.8057 519.4015,115.8539 516.9440,116.8965 514.4809,117.9324 512.0125,118.9603 509.5392,119.9790 507.0612,120.9873 504.5788,121.9842 502.0922,122.9684 499.6017,123.9389 497.1077,124.8946 494.6103,125.8346 492.1098,126.7578 489.6065,127.6635 487.1005,128.5507 484.5923,129.4186 482.0819,130.2665 479.5696,131.0938 477.0556,131.8997 474.5402,132.6839 472.0236,133.4458 469.5059,134.1849 466.9874,134.9011 464.4683,135.5939 461.9486,136.2633 459.4287,136.9091 456.9086,137.5313 454.3886,138.1299 451.8688,138.7050 449.3493,139.2568 446.8303,139.7816 444.3119,140.2542 441.7942,140.6672 439.2774,141.0174 436.7617,141.3017 434.2472,141.5172 431.7341,141.6614 429.2226,141.7322 426.7129,141.7276 424.2052,141.6461 421.6997,141.4867 419.1966,141.2485 416.6962,140.9314 414.1987,140.5355 411.7043,140.0613 409.2133,139.5099 406.7259,138.8826 404.2425,138.1812 401.7633,137.4080 399.2885,136.5655 396.8185,135.6566 394.3535,134.6845 391.8939,133.6526 389.4398,132.5647 386.9918,131.4246 384.5500,130.2364 382.1147,129.0043 379.6863,127.7326 377.2652,126.4257 374.8515,125.0878 372.4457,123.7233 370.0481,122.3366 367.6589,120.9319 365.2786,119.5133 362.9075,118.0849 360.5459,116.6505 358.1940,115.2138 355.8523,113.7786 353.5211,112.3481 351.2006,110.9256 348.8913,109.5141 346.5934,108.1164 344.3072,106.7351 342.0330,105.3728 339.7711,104.0316 337.5219,102.7136 335.2855,101.4206 333.0622,100.1544 330.8523,98.9164 328.6560,97.7080 326.4736,96.5380 324.3052,95.4336 322.1511,94.3930 320.0112,93.4123 317.8857,92.4877 315.7747,91.6160 313.6781,90.7942 311.5959,90.0198 309.5281,89.2903 307.4744,88.6037 305.4347,87.9579 303.4089,87.3512 301.3967,86.7820 299.3979,86.2488 297.4120,85.7501 295.4389,85.2847 293.4781,84.8516 291.5292,84.4495 289.5917,84.0775 287.6653,83.7348 285.7495,83.4204 283.8436,83.1336 281.9473,82.8738 280.0599,82.6403 278.1808,82.4326 276.3095,82.2501 274.4455,82.0924 272.5879,81.9592 270.7364,81.8501 268.8902,81.7650 267.0487,81.7035 265.2114,81.6658 263.3775,81.6516 261.5466,81.6610 259.7180,81.6942 257.8910,81.7513 256.0653,81.8327 254.2402,81.9388 252.4152,82.0700 250.5898,82.2270 248.7635,82.4106 246.9359,82.6218 245.1066,82.8615 243.2752,83.1311 241.4413,83.4322 239.6046,83.7666 237.7649,84.1364 235.9219,84.5441 234.0755,84.9928 232.2253,85.4858 230.3714,86.0188 228.5136,86.5728 226.6519,87.1470 224.7863,87.7415 222.9166,88.3564 221.0429,88.9918 219.1653,89.6478 217.2836,90.3244 215.3981,91.0219 213.5087,91.7402 211.6154,92.4793 209.7184,93.2394 207.8177,94.0204 205.9134,94.8223 204.0055,95.6449 202.0943,96.4883 200.1796,97.3521 198.2617,98.2362 196.3407,99.1402 194.4165,100.0637 192.4893,101.0062 190.5593,101.9670 188.6263,102.9455 186.6907,103.9406 184.7523,104.9514 182.8114,105.9765 180.8679,107.0147 178.9219,108.0641 176.9734,109.1231 175.0226,110.1894 173.0694,111.2607 171.1139,112.3344 169.1560,113.4076 167.1959,114.4771 165.2335,115.5395 163.2688,116.5911 161.3018,117.6278 159.3324,118.6454 157.3607,119.6394 155.3865,120.6051 153.4099,121.5378 151.4307,122.4323 149.4489,123.2839 147.4643,124.0874 145.4770,124.8379 143.4867,125.5309 141.4934,126.1616 139.4968,126.7260 137.4969,127.2203 135.4935,127.6412 133.4865,128.0213 131.4755,128.4151 129.4605,128.8226 127.4413,129.2426 125.4177,129.6744 123.3896,130.1169 121.3568,130.5692 119.3191,131.0300 117.2765,131.4984 115.2288,131.9731 113.1759,132.4530 111.1176,132.9368 109.0538,133.4232 106.9845,133.9108 104.9095,134.3984 102.8288,134.8844 100.7421,135.3672 98.6496,135.8455 96.5510,136.3176 94.4463,136.7818 92.3354,137.2365 90.2183,137.6799 88.0950,138.1102 85.9653,138.5258 83.8292,138.9247 81.6867,139.3050 79.5378,139.6649 77.3824,140.0025 75.2206,140.3158 73.0522,140.6029 70.8773,140.8620 68.6959,141.0911 66.5080,141.2882 64.3135,141.4517 62.1126,141.5795 59.9052,141.6700 57.6914,141.7215 55.4711,141.7322 53.2445,141.7006 51.0115,141.6252 48.7723,141.5047 46.5268,141.3376 44.2751,141.1229 42.0173,140.8596 39.7535,140.5467 37.4837,140.1834 35.2080,139.7692 32.9265,139.3036 30.6393,138.7864 28.3464,138.2174 0.0000,138.2174 0.0000,3.5148" stroke="black" fill="none"/>
</svg>