<svg width="490.5867" height="141.7322" xmlns="http://www.w3.org/2000/svg">
<polyline points="0.0000,0.0000 28.3464,0.0000 29.3709,0.0044 30.3980,0.0154 31.4275,0.0331 32.4595,0.0575 33.4940,0.0883 34.5310,0.1257 35.5704,0.1695 36.6122,0.2198 37.6564,0.2763 38.7031,0.3391 39.7521,0.4080 40.8034,0.4831 41.8571,0.5643 42.9132,0.6514 43.9715,0.7444 45.0322,0.8433 46.0951,0.9479 47.1603,1.0582 48.2277,1.1740 49.2974,1.2953 50.3692,1.4221 51.4433,1.5541 52.5195,1.6914 53.5980,1.8338 54.6785,1.9813 55.7612,2.1337 56.8460,2.2909 57.9329,2.4529 59.0218,2.6195 60.1129,2.7907 61.2060,2.9662 62.3011,3.1461 63.3982,3.3303 64.4973,3.5185 65.5984,3.7107 66.7014,3.9068 67.8064,4.1067 68.9134,4.3102 70.0222,4.5172 71.1329,4.7277 72.2455,4.9415 73.3600,5.1585 74.4763,5.3785 75.5944,5.6015 76.7144,5.8273 77.8361,6.0558 78.9596,6.2868 80.0849,6.5204 81.2119,6.7562 82.3406,6.9943 83.4710,7.2344 84.6031,7.4765 85.7369,7.7204 86.8724,7.9661 88.0095,8.2133 89.1482,8.4619 90.2885,8.7119 91.4304,8.9630 92.5738,9.2152 93.7189,9.4684 94.8654,9.7223 96.0135,9.9770 97.1630,10.2322 98.3141,10.4878 99.4666,10.7437 100.6206,10.9998 101.7759,11.2559 102.9328,11.5120 104.0910,11.7679 105.2505,12.0234 106.4115,12.2785 107.5738,12.5330 108.7374,12.7868 109.9023,13.0398 111.0685,13.2919 112.2360,13.5429 113.4048,13.7927 114.5747,14.0412 115.7459,14.2884 116.9184,14.5339 118.0920,14.7779 119.2667,15.0200 120.4427,15.2603 121.6197,15.4987 122.7979,15.7349 123.9772,15.9689 125.1576,16.2006 126.3390,16.4299 127.5215,16.6566 128.7050,16.8808 129.8895,17.1022 131.0751,17.3208 132.2616,17.5364 133.4490,17.7490 134.6375,17.9585 135.8268,18.1648 137.0170,18.3678 138.2082,18.5674 139.4002,18.7635 140.5931,18.9561 141.7868,19.1449 142.9813,19.3301 144.1767,19.5114 145.3728,19.6889 146.5697,19.8623 147.7674,20.0317 148.9658,20.1970 150.1649,20.3581 151.3647,20.5150 152.5652,20.6675 153.7663,20.8157 154.9681,20.9594 156.1706,21.0985 157.3736,21.2332 158.5773,21.3632 159.7815,21.4885 160.9863,21.6091 162.1916,21.7249 163.3975,21.8359 164.6038,21.9421 165.8107,22.0433 167.0180,22.1396 168.2258,22.2309 169.4341,22.3172 170.6427,22.3985 171.8518,22.4747 173.0612,22.5458 174.2710,22.6117 175.4812,22.6725 176.6917,22.7282 177.9025,22.7786 179.1137,22.8238 180.3251,22.8639 181.5367,22.8987 182.7487,22.9283 183.9608,22.9526 185.1732,22.9717 186.3858,22.9855 187.5985,22.9941 188.8114,22.9975 190.0244,22.9956 191.2376,22.9885 192.4509,22.9762 193.6643,22.9587 194.8777,22.9360 196.0913,22.9081 197.3048,22.8751 198.5184,22.8369 199.7320,22.7937 200.9456,22.7453 202.1591,22.6919 203.3726,22.6335 204.5860,22.5701 205.7994,22.5018 207.0127,22.4285 208.2258,22.3504 209.4388,22.2674 210.6517,22.1797 211.8644,22.0872 213.0769,21.9899 214.2893,21.8881 215.5014,21.7816 216.7132,21.6706 217.9249,21.5551 219.1362,21.4352 220.3473,21.3109 221.5580,21.1823 222.7685,21.0494 223.9786,20.9123 225.1884,20.7711 226.3977,20.6259 227.6067,20.4766 228.8153,20.3235 230.0235,20.1664 231.2312,20.0057 232.4385,19.8412 233.6453,19.6731 234.8516,19.5014 236.0575,19.3263 237.2627,19.1477 238.4675,18.9659 239.6717,18.7809 240.8753,18.5927 242.0783,18.4014 243.2808,18.2072 244.4826,18.0101 245.6837,17.8102 246.8842,17.6076 248.0840,17.4024 249.2832,17.1947 250.4816,16.9846 251.6793,16.7721 252.8763,16.5574 254.0725,16.3405 255.2679,16.1216 256.4625,15.9007 257.6564,15.6779 258.8494,15.4534 260.0416,15.2273 261.2329,14.9996 262.4233,14.7704 263.6129,14.5398 264.8015,14.3080 265.9892,14.0750 267.1760,13.8410 268.3618,13.6060 269.5467,13.3701 270.7305,13.1335 271.9134,12.8962 273.0952,12.6584 274.2760,12.4201 275.4558,12.1815 276.6344,11.9426 277.8120,11.7035 278.9885,11.4645 280.1639,11.2254 281.3381,10.9866 282.5112,10.7480 283.6831,10.5097 284.8539,10.2720 286.0234,10.0347 287.1917,9.7982 288.3588,9.5624 289.5247,9.3275 290.6892,9.0935 291.8525,8.8607 293.0145,8.6289 294.1752,8.3985 295.3346,8.1693 296.4926,7.9417 297.6493,7.7156 298.8046,7.4911 299.9585,7.2684 301.1110,7.0475 302.2621,6.8285 303.4118,6.6116 304.5600,6.3967 305.7067,6.1841 306.8520,5.9737 307.9958,5.7657 309.1380,5.5602 310.2787,5.3573 311.4179,5.1570 312.5555,4.9594 313.6916,4.7646 314.8260,4.5727 315.9589,4.3837 317.0901,4.1979 318.2197,4.0151 319.3477,3.8356 320.4740,3.6593 321.5986,3.4864 322.7215,3.3169 323.8427,3.1509 324.9622,2.9885 326.0799,2.8298 327.1959,2.6748 328.3102,2.5235 329.4226,2.3761 330.5333,2.2326 331.6421,2.0931 332.7492,1.9576 333.8543,1.8262 334.9577,1.6989 336.0591,1.5759 337.1587,1.4571 338.2564,1.3426 339.3522,1.2326 340.4461,1.1269 341.5380,1.0257 342.6279,0.9290 343.7159,0.8369 344.8020,0.7493 345.8860,0.6665 346.9680,0.5883 348.0480,0.5148 349.1260,0.4461 350.2019,0.3822 351.2758,0.3231 352.3476,0.2689 353.4173,0.2196 354.4849,0.1752 355.5504,0.1358 356.6138,0.1013 357.6750,0.0718 358.7341,0.0473 359.7910,0.0279 360.8457,0.0135 361.8983,0.0042 362.9486,0.0000 363.9968,0.0009 365.0427,0.0069 366.0863,0.0180 367.1278,0.0342 368.1669,0.0555 369.2038,0.0820 370.2384,0.1136 371.2707,0.1504 372.3007,0.1922 373.3283,0.2392 374.3537,0.2914 375.3766,0.3486 376.3973,0.4109 377.4155,0.4784 378.4314,0.5509 379.4449,0.6285 380.4560,0.7111 381.4647,0.7988 382.4709,0.8915 383.4748,0.9891 384.4761,1.0918 385.4751,1.1994 386.4715,1.3119 387.4655,1.4293 388.4570,1.5515 389.4461,1.6786 390.4326,1.8105 391.4166,1.9471 392.3980,2.0885 393.3770,2.2345 394.3534,2.3852 395.3273,2.5405 396.2986,2.7004 397.2673,2.8647 398.2334,3.0336 399.1970,3.2069 400.1580,3.3845 401.1164,3.5665 402.0721,3.7527 403.0253,3.9432 403.9758,4.1378 404.9237,4.3365 405.8690,4.5393 406.8116,4.7461 407.7515,4.9568 408.6888,5.1713 409.6235,5.3897 410.5554,5.6118 411.4847,5.8376 412.4113,6.0670 413.3352,6.2999 414.2564,6.5363 415.1749,6.7760 416.0907,7.0192 417.0037,7.2655 417.9141,7.5150 418.8217,7.7677 419.7266,8.0233 420.6288,8.2819 421.5283,8.5434 422.4250,8.8077 423.3189,9.0746 424.2101,9.3442 425.0986,9.6164 425.9843,9.8909 426.8673,10.1679 427.7475,10.4471 428.6249,10.7286 429.4996,11.0121 430.3715,11.2977 431.2407,11.5852 432.1071,11.8746 432.9707,12.1657 433.8315,12.4584 434.6896,12.7528 435.5450,13.0486 436.3975,13.3458 437.2473,13.6442 438.0944,13.9439 438.9386,14.2447 439.7801,14.5464 440.6189,14.8491 441.4549,15.1526 442.2881,15.4568 443.1186,15.7616 443.9464,16.0669 444.7714,16.3726 445.5937,16.6786 446.4132,16.9849 447.2300,17.2912 448.0441,17.5976 448.8554,17.9039 449.6641,18.2100 450.4700,18.5157 451.2733,18.8211 452.0738,19.1260 452.8717,19.4303 453.6669,19.7339 454.4594,20.0367 455.2493,20.3386 456.0365,20.6395 456.8211,20.9392 457.6031,21.2378 458.3824,21.5350 459.1591,21.8308 459.9333,22.1250 460.7048,22.4176 461.4738,22.7085 462.2403,22.9975 490.5867,22.9975 490.5867,118.7347 462.2403,118.7347 461.4738,119.0237 460.7048,119.3146 459.9333,119.6072 459.1591,119.9014 458.3824,120.1972 457.6031,120.4944 456.8211,120.7930 456.0365,121.0927 455.2493,121.3936 454.4594,121.6955 453.6669,121.9982 452.8717,122.3018 452.0738,122.6061 451.2733,122.9110 450.4700,123.2164 449.6641,123.5222 448.8554,123.8283 448.0441,124.1346 447.2300,124.4410 446.4132,124.7473 445.5937,125.0536 444.7714,125.3596 443.9464,125.6653 443.1186,125.9706 442.2881,126.2754 441.4549,126.5796 440.6189,126.8831 439.7801,127.1858 438.9386,127.4875 438.0944,127.7883 437.2473,128.0880 436.3975,128.3864 435.5450,128.6836 434.6896,128.9794 433.8315,129.2738 432.9707,129.5665 432.1071,129.8576 431.2407,130.1470 430.3715,130.4345 429.4996,130.7201 428.6249,131.0036 427.7475,131.2851 426.8673,131.5643 425.9843,131.8413 425.0986,132.1158 424.2101,132.3880 423.3189,132.6576 422.4250,132.9245 421.5283,133.1888 420.6288,133.4502 419.7266,133.7089 418.8217,133.9645 417.9141,134.2171 417.0037,134.4667 416.0907,134.7130 415.1749,134.9561 414.2564,135.1959 413.3352,135.4323 412.4113,135.6652 411.4847,135.8946 410.5554,136.1204 409.6235,136.3425 408.6888,136.5609 407.7515,136.7754 406.8116,136.9861 405.8690,137.1929 404.9237,137.3957 403.9758,137.5944 403.0253,137.7890 402.0721,137.9795 401.1164,138.1657 400.1580,138.3477 399.1970,138.5253 398.2334,138.6986 397.2673,138.8674 396.2986,139.0318 395.3273,139.1917 394.3534,139.3470 393.3770,139.4977 392.3980,139.6437 391.4166,139.7851 390.4326,139.9217 389.4461,140.0536 388.4570,140.1807 387.4655,140.3029 386.4715,140.4203 385.4751,140.5328 384.4761,140.6404 383.4748,140.7430 382.4709,140.8407 381.4647,140.9334 380.4560,141.0211 379.4449,141.1037 378.4314,141.1813 377.4155,141.2538 376.3973,141.3212 375.3766,141.3836 374.3537,141.4408 373.3283,141.4930 372.3007,141.5400 371.2707,141.5818 370.2384,141.6186 369.2038,141.6502 368.1669,141.6767 367.1278,141.6980 366.0863,141.7142 365.0427,141.7253 363.9968,141.7313 362.9486,141.7322 361.8983,141.7280 360.8457,141.7187 359.7910,141.7043 358.7341,141.6849 357.6750,141.6604 356.6138,141.6309 355.5504,141.5964 354.4849,141.5570 353.4173,141.5126 352.3476,141.4633 351.2758,141.4091 350.2019,141.3500 349.1260,141.2861 348.0480,141.2174 346.9680,141.1439 345.8860,141.0657 344.8020,140.9829 343.7159,140.8953 342.6279,140.8032 341.5380,140.7065 340.4461,140.6053 339.3522,140.4996 338.2564,140.3896 337.1587,140.2751 336.0591,140.1563 334.9577,140.0333 333.8543,139.9060 332.7492,139.7746 331.6421,139.6391 330.5333,139.4996 329.4226,139.3561 328.3102,139.2087 327.1959,139.0574 326.0799,138.9024 324.9622,138.7437 323.8427,138.5813 322.7215,138.4153 321.5986,138.2458 320.4740,138.0729 319.3477,137.8966 318.2197,137.7171 317.0901,137.5343 315.9589,137.3485 314.8260,137.1595 313.6916,136.9676 312.5555,136.7728 311.4179,136.5752 310.2787,136.3749 309.1380,136.1720 307.9958,135.9664 306.8520,135.7585 305.7067,135.5481 304.5600,135.3355 303.4118,135.1206 302.2621,134.9037 301.1110,134.6847 299.9585,134.4638 298.8046,134.2411 297.6493,134.0166 296.4926,133.7905 295.3346,133.5629 294.1752,133.3337 293.0145,133.1033 291.8525,132.8715 290.6892,132.6386 289.5247,132.4047 288.3588,132.1698 287.1917,131.9340 286.0234,131.6975 284.8539,131.4602 283.6831,131.2225 282.5112,130.9842 281.3381,130.7456 280.1639,130.5068 278.9885,130.2677 277.8120,130.0287 276.6344,129.7896 275.4558,129.5507 274.2760,129.3121 273.0952,129.0738 271.9134,128.8360 270.7305,128.5987 269.5467,128.3621 268.3618,128.1262 267.1760,127.8912 265.9892,127.6572 264.8015,127.4242 263.6129,127.1924 262.4233,126.9618 261.2329,126.7326 260.0416,126.5049 258.8494,126.2788 257.6564,126.0543 256.4625,125.8315 255.2679,125.6106 254.0725,125.3917 252.8763,125.1748 251.6793,124.9601 250.4816,124.7476 249.2832,124.5375 248.0840,124.3297 246.8842,124.1245 245.6837,123.9220 244.4826,123.7221 243.2808,123.5250 242.0783,123.3308 240.8753,123.1395 239.6717,122.9513 238.4675,122.7663 237.2627,122.5845 236.0575,122.4059 234.8516,122.2308 233.6453,122.0591 232.4385,121.8910 231.2312,121.7265 230.0235,121.5657 228.8153,121.4087 227.6067,121.2556 226.3977,121.1063 225.1884,120.9611 223.9786,120.8199 222.7685,120.6828 221.5580,120.5499 220.3473,120.4213 219.1362,120.2970 217.9249,120.1771 216.7132,120.0616 215.5014,119.9506 214.2893,119.8441 213.0769,119.7422 211.8644,119.6450 210.6517,119.5525 209.4388,119.4648 208.2258,119.3818 207.0127,119.3037 205.7994,119.2304 204.5860,119.1621 203.3726,119.0987 202.1591,119.0403 200.9456,118.9869 199.7320,118.9385 198.5184,118.8953 197.3048,118.8571 196.0913,118.8241 194.8777,118.7962 193.6643,118.7735 192.4509,118.7560 191.2376,118.7437 190.0244,118.7366 188.8114,118.7347 187.5985,118.7381 186.3858,118.7467 185.1732,118.7605 183.9608,118.7796 182.7487,118.8039 181.5367,118.8335 180.3251,118.8683 179.1137,118.9083 177.9025,118.9536 176.6917,119.0040 175.4812,119.0597 174.2710,119.1205 173.0612,119.1864 171.8518,119.2575 170.6427,119.3337 169.4341,119.4150 168.2258,119.5013 167.0180,119.5926 165.8107,119.6889 164.6038,119.7901 163.3975,119.8963 162.1916,120.0073 160.9863,120.1231 159.7815,120.2437 158.5773,120.3690 157.3736,120.4990 156.1706,120.6336 154.9681,120.7728 153.7663,120.9165 152.5652,121.0647 151.3647,121.2172 150.1649,121.3740 148.9658,121.5352 147.7674,121.7005 146.5697,121.8699 145.3728,122.0433 144.1767,122.2208 142.9813,122.4021 141.7868,122.5873 140.5931,122.7761 139.4002,122.9687 138.2082,123.1648 137.0170,123.3644 135.8268,123.5674 134.6375,123.7737 133.4490,123.9832 132.2616,124.1958 131.0751,124.4114 129.8895,124.6300 128.7050,124.8514 127.5215,125.0756 126.3390,125.3023 125.1576,125.5316 123.9772,125.7633 122.7979,125.9973 121.6197,126.2335 120.4427,126.4719 119.2667,126.7122 118.0920,126.9543 116.9184,127.1983 115.7459,127.4438 114.5747,127.6909 113.4048,127.9395 112.2360,128.1893 111.0685,128.4403 109.9023,128.6924 108.7374,128.9454 107.5738,129.1992 106.4115,129.4537 105.2505,129.7088 104.0910,129.9643 102.9328,130.2202 101.7759,130.4763 100.6206,130.7324 99.4666,130.9885 98.3141,131.2444 97.1630,131.5000 96.0135,131.7552 94.8654,132.0099 93.7189,132.2638 92.5738,132.5170 91.4304,132.7692 90.2885,133.0203 89.1482,133.2703 88.0095,133.5189 86.8724,133.7661 85.7369,134.0118 84.6031,134.2557 83.4710,134.4978 82.3406,134.7379 81.2119,134.9760 80.0849,135.2118 78.9596,135.4454 77.8361,135.6764 76.7144,135.9049 75.5944,136.1307 74.4763,136.3537 73.3600,136.5737 72.2455,136.7907 71.1329,137.0045 70.0222,137.2150 68.9134,137.4220 67.8064,137.6255 66.7014,137.8254 65.5984,138.0215 64.4973,138.2137 63.3982,138.4019 62.3011,138.5860 61.2060,138.7659 60.1129,138.9415 59.0218,139.1127 57.9329,139.2793 56.8460,139.4413 55.7612,139.5985 54.6785,139.7509 53.5980,139.8983 52.5195,140.0408 51.4433,140.1781 50.3692,140.3101 49.2974,140.4369 48.2277,140.5582 47.1603,140.6740 46.0951,140.7843 45.0322,140.8889 43.9715,140.9878 42.9132,141.0808 41.8571,141.1679 40.8034,141.2491 39.7521,141.3242 38.7031,141.3931 37.6564,141.4559 36.6122,141.5124 35.5704,141.5626 34.5310,141.6065 33.4940,141.6438 32.4595,141.6747 31.4275,141.6991 30.3980,141.7168 29.3709,141.7278 28.3464,141.7322 0.0000,141.7322 0.0000,0.0000" stroke="black" fill="none"/>
</svg>