<svg width="889.9898" height="141.7322" xmlns="http://www.w3.org/2000/svg">
<polyline points="0.0000,66.5662 28.3464,66.5662 30.3980,66.1669 32.4595,65.7579 34.5310,65.3395 36.6122,64.9118 38.7031,64.4749 40.8034,64.0291 42.9132,63.5746 45.0322,63.1115 47.1603,62.6403 49.2974,62.1610 51.4433,61.6739 53.5979,61.1794 55.7612,60.6777 57.9329,60.1691 60.1129,59.6538 62.3011,59.1323 64.4973,58.6049 66.7014,58.0718 68.9133,57.5335 71.1329,56.9902 73.3600,56.4424 75.5944,55.8903 77.8361,55.3345 80.0848,54.7753 82.3406,54.2130 84.6031,53.6481 86.8724,53.0809 89.1482,52.5120 91.4304,51.9416 93.7188,51.3702 96.0134,50.7983 98.3141,50.2263 100.6205,49.6545 102.9327,49.0835 105.2505,48.5136 107.5737,47.9453 109.9023,47.3791 112.2360,46.8153 114.5747,46.2544 116.9183,45.6969 119.2667,45.1431 121.6197,44.5935 123.9772,44.0486 126.3390,43.5087 128.7050,42.9742 131.0750,42.4457 133.4490,41.9235 135.8268,41.4079 138.2082,40.8995 140.5930,40.3986 142.9813,39.9055 145.3728,39.4208 147.7673,38.9447 150.1648,38.4776 152.5651,38.0199 154.9681,37.5719 157.3736,37.1339 159.7815,36.7064 162.1916,36.2895 164.6038,35.8837 167.0180,35.4892 169.4340,35.1063 171.8517,34.7353 174.2710,34.3765 176.6917,34.0300 179.1136,33.6962 181.5367,33.3752 183.9608,33.0674 186.3857,32.7728 188.8114,32.4918 191.2376,32.2244 193.6643,31.9708 196.0912,31.7312 198.5184,31.5057 200.9455,31.2944 203.3726,31.0975 205.7994,30.9151 208.2258,30.7472 210.6517,30.5939 213.0769,30.4553 215.5013,30.3313 217.9248,30.2222 220.3472,30.1277 222.7684,30.0481 225.1883,29.9831 227.6067,29.9329 230.0235,29.8974 232.4385,29.8766 234.8516,29.8703 237.2627,29.8786 239.6716,29.9012 242.0783,29.9382 244.4825,29.9894 246.8842,30.0547 249.2831,30.1340 251.6793,30.2271 254.0724,30.3339 256.4625,30.4542 258.8493,30.5878 261.2328,30.7346 263.6128,30.8943 265.9892,31.0667 268.3618,31.2517 270.7305,31.4490 273.0952,31.6584 275.4557,31.8797 277.8120,32.1125 280.1638,32.3567 282.5111,32.6120 284.8538,32.8781 287.1917,33.1548 289.5246,33.4417 291.8525,33.7386 294.1752,34.0453 296.4926,34.3613 298.8046,34.6864 301.1110,35.0203 303.4117,35.3627 305.7067,35.7133 307.9957,36.0718 310.2786,36.4378 312.5554,36.8111 314.8259,37.1912 317.0900,37.5780 319.3476,37.9710 321.5985,38.3699 323.8426,38.7745 326.0799,39.1844 328.3101,39.5992 330.5332,40.0187 332.7491,40.4424 334.9576,40.8702 337.1586,41.3016 339.3521,41.7364 341.5379,42.1742 343.7158,42.6147 345.8859,43.0576 348.0479,43.5025 350.2018,43.9493 352.3475,44.3975 354.4848,44.8469 356.6137,45.2971 358.7340,45.7479 360.8456,46.1989 362.9485,46.6500 365.0426,47.1008 367.1277,47.5510 369.2037,48.0003 371.2706,48.4486 373.3282,48.8954 375.3765,49.3407 377.4154,49.7841 379.4448,50.2253 381.4646,50.6642 383.4746,51.1005 385.4750,51.5340 387.4654,51.9645 389.4459,52.3917 391.4164,52.8154 393.3769,53.2356 395.3271,53.6518 397.2672,54.0641 399.1969,54.4721 401.1162,54.8757 403.0251,55.2748 404.9236,55.6692 406.8114,56.0588 408.6887,56.4434 410.5553,56.8228 412.4111,57.1970 414.2562,57.5658 416.0905,57.9292 417.9139,58.2869 419.7265,58.6390 421.5281,58.9853 423.3188,59.3257 425.0984,59.6602 426.8671,59.9887 428.6247,60.3111 430.3713,60.6274 432.1069,60.9375 433.8313,61.2415 435.5448,61.5391 437.2471,61.8306 438.9384,62.1157 440.6187,62.3945 442.2879,62.6670 443.9462,62.9333 445.5934,63.1932 447.2298,63.4468 448.8552,63.6942 450.4698,63.9353 452.0736,64.1702 453.6667,64.3989 455.2490,64.6215 456.8208,64.8380 458.3821,65.0485 459.9330,65.2530 461.4736,65.4516 463.0039,65.5921 464.5243,65.6753 466.0351,65.7538 467.5369,65.8277 469.0300,65.8973 470.5149,65.9626 471.9919,66.0238 473.4615,66.0810 474.9240,66.1344 476.3799,66.1840 477.8295,66.2301 479.2732,66.2727 480.7114,66.3119 482.1444,66.3479 483.5726,66.3808 484.9963,66.4106 486.4158,66.4375 487.8316,66.4615 489.2438,66.4829 490.6529,66.5016 492.0591,66.5177 493.4628,66.5314 494.8641,66.5427 496.2634,66.5517 497.6610,66.5584 499.0570,66.5631 500.4519,66.5656 501.8457,66.5662 503.2389,66.5648 504.6315,66.5616 506.0238,66.5565 507.4160,66.5497 508.8083,66.5413 510.2010,66.5312 511.5941,66.5196 512.9880,66.5064 514.3827,66.4918 515.7785,66.4758 517.1755,66.4584 518.5738,66.4397 519.9737,66.4198 521.3752,66.3986 522.7785,66.3762 524.1838,66.3527 525.5911,66.3281 527.0007,66.3024 528.4125,66.2757 529.8267,66.2480 531.2435,66.2192 532.6629,66.1896 534.0851,66.1590 535.5101,66.1275 536.9380,66.0951 538.3690,66.0618 539.8031,66.0277 541.2403,65.9928 542.6809,65.9571 544.1248,65.9205 545.5722,65.8832 547.0231,65.8451 548.4776,65.8062 549.9358,65.7665 551.3978,65.7260 552.8636,65.6847 554.3332,65.6427 555.8069,65.5999 557.2846,65.5562 558.7664,65.5118 560.2525,65.4665 561.7427,65.4204 563.2374,65.3734 564.7364,65.3255 566.2400,65.2767 567.7481,65.2270 569.2609,65.1763 570.7784,65.1246 572.3007,65.0719 573.8279,65.0182 575.3602,64.9633 576.8975,64.9072 578.4399,64.8500 579.9877,64.7916 581.5408,64.7318 583.0994,64.6707 584.6635,64.6082 586.2333,64.5442 587.8090,64.4787 589.3905,64.4116 590.9780,64.3429 592.5717,64.2724 594.1717,64.2001 595.7781,64.1259 597.3910,64.0497 599.0106,63.9715 600.6371,63.8911 602.2705,63.8085 603.9110,63.7236 605.5588,63.6362 607.2141,63.5463 608.8769,63.4537 610.5476,63.3584 612.2262,63.2602 613.9130,63.1591 615.6081,63.0548 617.3118,62.9472 619.0241,62.8363 620.7454,62.7219 622.4759,62.6039 624.2157,62.4820 625.9650,62.3563 627.7241,62.2264 629.4933,62.0923 631.2727,61.9537 633.0627,61.8106 634.8633,61.6628 636.6750,61.5100 638.4978,61.3521 640.3322,61.1890 642.1784,61.0203 644.0366,60.8460 645.9071,60.6657 647.7902,60.4794 649.6861,60.2868 651.5953,60.0876 653.5178,59.8817 655.4542,59.6687 657.4046,59.4486 659.3693,59.2210 661.3487,58.9856 663.3431,58.7423 665.3528,58.4908 667.3781,58.2307 669.4193,57.9619 671.4768,57.6839 673.5509,57.3967 675.6420,57.0997 677.7504,56.7929 679.8764,56.4757 682.0203,56.1480 684.1826,55.8094 686.3635,55.4596 688.5635,55.0982 690.7828,54.7249 693.0219,54.3393 695.2811,53.9412 697.5608,53.5300 699.8612,53.1056 702.1829,52.6674 704.5262,52.2151 706.8914,51.7483 709.2790,51.2666 711.6892,50.7697 714.1225,50.2570 716.5792,49.7283 719.0598,49.1830 721.5646,48.6207 724.0940,48.0411 726.6483,47.4436 729.2281,46.8279 731.8335,46.1935 734.4651,45.5398 737.1233,44.8666 739.8083,44.1732 742.5207,43.4593 745.2607,42.7243 748.0288,41.9679 750.8254,41.1894 753.6508,40.3885 756.5055,39.5646 759.3899,38.7172 762.3042,37.8459 765.2490,36.9502 768.2246,36.0296 771.2315,35.0835 774.2699,34.1116 777.3403,33.1132 780.4431,32.0879 783.5787,31.0352 786.7474,29.9547 789.9497,28.8457 793.1860,27.7079 796.4566,26.5408 799.7619,25.3438 803.1024,24.1165 806.4783,22.8585 809.8902,21.5692 813.3383,20.2482 816.8232,18.8950 820.3451,17.5093 823.9044,16.0906 827.5016,14.6384 831.1371,13.1524 834.8111,11.6321 838.5242,10.0771 842.2767,8.4872 846.0689,6.8618 849.9013,5.2008 853.7742,3.5036 857.6881,1.7702 861.6433,0.0000 889.9898,0.0000 889.9898,141.7322 861.6433,141.7322 857.6881,139.9620 853.7742,138.2285 849.9013,136.5314 846.0689,134.8704 842.2767,133.2450 838.5242,131.6551 834.8111,130.1001 831.1371,128.5798 827.5016,127.0938 823.9044,125.6416 820.3451,124.2229 816.8232,122.8372 813.3383,121.4840 809.8902,120.1630 806.4783,118.8737 803.1024,117.6157 799.7619,116.3884 796.4566,115.1914 793.1860,114.0243 789.9497,112.8865 786.7474,111.7775 783.5787,110.6970 780.4431,109.6443 777.3403,108.6190 774.2699,107.6206 771.2315,106.6487 768.2246,105.7026 765.2490,104.7820 762.3042,103.8863 759.3899,103.0150 756.5055,102.1676 753.6508,101.3437 750.8254,100.5428 748.0288,99.7643 745.2607,99.0079 742.5207,98.2729 739.8083,97.5590 737.1233,96.8656 734.4651,96.1924 731.8335,95.5387 729.2281,94.9043 726.6483,94.2886 724.0940,93.6911 721.5646,93.1115 719.0598,92.5492 716.5792,92.0039 714.1225,91.4752 711.6892,90.9625 709.2790,90.4656 706.8914,89.9839 704.5262,89.5171 702.1829,89.0648 699.8612,88.6266 697.5608,88.2022 695.2811,87.7910 693.0219,87.3929 690.7828,87.0073 688.5635,86.6340 686.3635,86.2726 684.1826,85.9228 682.0203,85.5842 679.8764,85.2565 677.7504,84.9393 675.6420,84.6324 673.5509,84.3355 671.4768,84.0483 669.4193,83.7703 667.3781,83.5015 665.3528,83.2414 663.3431,82.9899 661.3487,82.7465 659.3693,82.5112 657.4046,82.2836 655.4542,82.0634 653.5178,81.8505 651.5953,81.6446 649.6861,81.4454 647.7902,81.2528 645.9071,81.0665 644.0366,80.8862 642.1784,80.7119 640.3322,80.5432 638.4978,80.3800 636.6750,80.2222 634.8633,80.0694 633.0627,79.9215 631.2727,79.7784 629.4933,79.6399 627.7241,79.5058 625.9650,79.3759 624.2157,79.2502 622.4759,79.1283 620.7454,79.0103 619.0241,78.8959 617.3118,78.7850 615.6081,78.6774 613.9130,78.5731 612.2262,78.4720 610.5476,78.3738 608.8769,78.2785 607.2141,78.1859 605.5588,78.0960 603.9110,78.0086 602.2705,77.9237 600.6371,77.8410 599.0106,77.7607 597.3910,77.6825 595.7781,77.6063 594.1717,77.5321 592.5717,77.4598 590.9780,77.3893 589.3905,77.3206 587.8090,77.2535 586.2333,77.1880 584.6635,77.1240 583.0994,77.0615 581.5408,77.0004 579.9877,76.9406 578.4399,76.8822 576.8975,76.8249 575.3602,76.7689 573.8279,76.7140 572.3007,76.6603 570.7784,76.6076 569.2609,76.5559 567.7481,76.5052 566.2400,76.4555 564.7364,76.4067 563.2374,76.3588 561.7427,76.3118 560.2525,76.2657 558.7664,76.2204 557.2846,76.1760 555.8069,76.1323 554.3332,76.0895 552.8636,76.0475 551.3978,76.0062 549.9358,75.9657 548.4776,75.9260 547.0231,75.8871 545.5722,75.8490 544.1248,75.8117 542.6809,75.7751 541.2403,75.7394 539.8031,75.7044 538.3690,75.6704 536.9380,75.6371 535.5101,75.6047 534.0851,75.5732 532.6629,75.5426 531.2435,75.5130 529.8267,75.4842 528.4125,75.4565 527.0007,75.4298 525.5911,75.4041 524.1838,75.3795 522.7785,75.3560 521.3752,75.3336 519.9737,75.3124 518.5738,75.2925 517.1755,75.2738 515.7785,75.2564 514.3827,75.2404 512.9880,75.2258 511.5941,75.2126 510.2010,75.2010 508.8083,75.1909 507.4160,75.1825 506.0238,75.1757 504.6315,75.1706 503.2389,75.1674 501.8457,75.1660 500.4519,75.1666 499.0570,75.1691 497.6610,75.1738 496.2634,75.1805 494.8641,75.1895 493.4628,75.2008 492.0591,75.2145 490.6529,75.2306 489.2438,75.2493 487.8316,75.2707 486.4158,75.2947 484.9963,75.3216 483.5726,75.3514 482.1444,75.3843 480.7114,75.4203 479.2732,75.4595 477.8295,75.5021 476.3799,75.5482 474.9240,75.5978 473.4615,75.6512 471.9919,75.7084 470.5149,75.7696 469.0300,75.8349 467.5369,75.9045 466.0351,75.9784 464.5243,76.0569 463.0039,76.1401 461.4736,76.2806 459.9330,76.4792 458.3821,76.6837 456.8208,76.8942 455.2490,77.1107 453.6667,77.3333 452.0736,77.5620 450.4698,77.7969 448.8552,78.0380 447.2298,78.2854 445.5934,78.5390 443.9462,78.7989 442.2879,79.0652 440.6187,79.3377 438.9384,79.6165 437.2471,79.9016 435.5448,80.1930 433.8313,80.4907 432.1069,80.7947 430.3713,81.1048 428.6247,81.4211 426.8671,81.7435 425.0984,82.0720 423.3188,82.4065 421.5281,82.7469 419.7265,83.0932 417.9139,83.4453 416.0905,83.8030 414.2562,84.1664 412.4111,84.5352 410.5553,84.9094 408.6887,85.2888 406.8114,85.6734 404.9236,86.0630 403.0251,86.4574 401.1162,86.8565 399.1969,87.2601 397.2672,87.6681 395.3271,88.0804 393.3769,88.4966 391.4164,88.9167 389.4459,89.3405 387.4654,89.7677 385.4750,90.1982 383.4746,90.6317 381.4646,91.0680 379.4448,91.5069 377.4154,91.9481 375.3765,92.3915 373.3282,92.8368 371.2706,93.2836 369.2037,93.7319 367.1277,94.1812 365.0426,94.6314 362.9485,95.0822 360.8456,95.5333 358.7340,95.9843 356.6137,96.4351 354.4848,96.8853 352.3475,97.3347 350.2018,97.7829 348.0479,98.2297 345.8859,98.6746 343.7158,99.1175 341.5379,99.5580 339.3521,99.9958 337.1586,100.4306 334.9576,100.8620 332.7491,101.2898 330.5332,101.7135 328.3101,102.1330 326.0799,102.5478 323.8426,102.9577 321.5985,103.3623 319.3476,103.7612 317.0900,104.1542 314.8259,104.5410 312.5554,104.9211 310.2786,105.2944 307.9957,105.6604 305.7067,106.0189 303.4117,106.3695 301.1110,106.7119 298.8046,107.0458 296.4926,107.3709 294.1752,107.6869 291.8525,107.9936 289.5246,108.2905 287.1917,108.5774 284.8538,108.8541 282.5111,109.1202 280.1638,109.3755 277.8120,109.6197 275.4557,109.8525 273.0952,110.0738 270.7305,110.2832 268.3618,110.4805 265.9892,110.6655 263.6128,110.8379 261.2328,110.9976 258.8493,111.1444 256.4625,111.2780 254.0724,111.3983 251.6793,111.5051 249.2831,111.5982 246.8842,111.6775 244.4825,111.7428 242.0783,111.7940 239.6716,111.8310 237.2627,111.8536 234.8516,111.8619 232.4385,111.8556 230.0235,111.8348 227.6067,111.7993 225.1883,111.7491 222.7684,111.6841 220.3472,111.6045 217.9248,111.5100 215.5013,111.4009 213.0769,111.2769 210.6517,111.1383 208.2258,110.9850 205.7994,110.8171 203.3726,110.6347 200.9455,110.4378 198.5184,110.2265 196.0912,110.0010 193.6643,109.7614 191.2376,109.5078 188.8114,109.2404 186.3857,108.9594 183.9608,108.6648 181.5367,108.3570 179.1136,108.0360 176.6917,107.7022 174.2710,107.3557 171.8517,106.9969 169.4340,106.6259 167.0180,106.2430 164.6038,105.8485 162.1916,105.4427 159.7815,105.0258 157.3736,104.5983 154.9681,104.1603 152.5651,103.7123 150.1648,103.2546 147.7673,102.7875 145.3728,102.3114 142.9813,101.8267 140.5930,101.3336 138.2082,100.8327 135.8268,100.3243 133.4490,99.8087 131.0750,99.2865 128.7050,98.7580 126.3390,98.2235 123.9772,97.6836 121.6197,97.1387 119.2667,96.5891 116.9183,96.0353 114.5747,95.4778 112.2360,94.9169 109.9023,94.3531 107.5737,93.7869 105.2505,93.2186 102.9327,92.6487 100.6205,92.0777 98.3141,91.5059 96.0134,90.9339 93.7188,90.3620 91.4304,89.7906 89.1482,89.2202 86.8724,88.6513 84.6031,88.0841 82.3406,87.5192 80.0848,86.9569 77.8361,86.3977 75.5944,85.8418 73.3600,85.2898 71.1329,84.7420 68.9133,84.1987 66.7014,83.6604 64.4973,83.1273 62.3011,82.5999 60.1129,82.0784 57.9329,81.5631 55.7612,81.0545 53.5979,80.5528 51.4433,80.0583 49.2974,79.5712 47.1603,79.0919 45.0322,78.6207 42.9132,78.1576 40.8034,77.7031 38.7031,77.2573 36.6122,76.8204 34.5310,76.3927 32.4595,75.9742 30.3980,75.5653 28.3464,75.1660 0.0000,75.1660 0.0000,66.5662" stroke="black" fill="none"/>
</svg>