<svg width="897.2578" height="141.7322" xmlns="http://www.w3.org/2000/svg">
<polyline points="0.0000,0.0000 28.3464,0.0000 30.6393,0.0000 32.9265,0.0000 35.2080,0.0000 37.4837,0.0000 39.7535,0.0000 42.0173,0.0000 44.2751,0.0000 46.5268,0.0000 48.7723,0.0000 51.0115,0.0000 53.2445,0.0000 55.4711,0.0000 57.6914,0.0000 59.9052,0.0000 62.1126,0.0000 64.3135,0.0000 66.5080,0.0000 68.6959,0.0000 70.8773,0.0000 73.0522,0.0000 75.2206,0.0000 77.3824,0.0000 79.5378,0.0000 81.6867,0.0000 83.8292,0.0000 85.9653,0.0000 88.0950,0.0000 90.2183,0.0000 92.3354,0.0000 94.4463,0.0000 96.5510,0.0000 98.6496,0.0000 100.7421,0.0000 102.8288,0.0000 104.9095,0.0000 106.9845,0.0000 109.0538,0.0000 111.1176,0.0000 113.1759,0.0000 115.2288,0.0000 117.2765,0.0000 119.3191,0.0000 121.3568,0.0000 123.3896,0.0000 125.4177,0.0000 127.4413,0.0000 129.4605,0.0000 131.4755,0.0000 133.4865,0.0000 135.4935,0.0000 137.4969,0.0000 139.4968,0.0000 141.4934,0.0000 143.4867,0.0000 145.4770,0.0000 147.4643,0.0000 149.4489,0.0000 151.4307,0.0000 153.4099,0.0000 155.3865,0.0000 157.3607,0.0000 159.3324,0.0000 161.3018,0.0000 163.2688,0.0000 165.2335,0.0000 167.1959,0.0000 169.1560,0.0000 171.1139,0.0000 173.0694,0.0000 175.0226,0.0000 176.9734,0.0000 178.9219,0.0000 180.8679,0.0000 182.8114,0.0000 184.7523,0.0000 186.6907,0.0000 188.6263,0.0000 190.5593,0.0000 192.4893,0.0000 194.4165,0.0000 196.3407,0.0000 198.2617,0.0000 200.1796,0.0000 202.0943,0.0000 204.0055,0.0000 205.9134,0.0000 207.8177,0.0000 209.7184,0.0000 211.6154,0.0000 213.5087,0.0000 215.3981,0.0000 217.2836,0.0000 219.1653,0.0000 221.0429,0.0000 222.9166,0.0000 224.7863,0.0000 226.6519,0.0000 228.5136,0.0000 230.3714,0.0000 232.2253,0.0000 234.0755,0.0000 235.9219,0.0000 237.7649,0.0000 239.6046,0.0000 241.4413,0.0000 243.2752,0.0000 245.1066,0.0000 246.9359,0.0000 248.7635,0.0000 250.5898,0.0000 252.4152,0.0000 254.2402,0.0000 256.0653,0.0000 257.8910,0.0000 259.7180,0.0000 261.5466,0.0000 263.3775,0.0000 265.2114,0.0000 267.0487,0.0000 268.8902,0.0000 270.7364,0.0000 272.5879,0.0000 274.4455,0.0000 276.3095,0.0000 278.1808,0.0000 280.0599,0.0000 281.9473,0.0000 283.8436,0.0000 285.7495,0.0000 287.6653,0.0000 289.5917,0.0000 291.5292,0.0000 293.4781,0.0000 295.4389,0.0000 297.4120,0.0000 299.3979,0.0000 301.3967,0.0000 303.4089,0.0000 305.4347,0.0000 307.4744,0.0000 309.5281,0.0000 311.5959,0.0000 313.6781,0.0000 315.7747,0.0000 317.8857,0.0000 320.0112,0.0000 322.1511,0.0000 324.3052,0.0000 326.4736,0.0000 328.6560,0.0000 330.8523,0.0000 333.0622,0.0000 335.2855,0.0000 337.5219,0.0000 339.7711,0.0000 342.0330,0.0000 344.3072,0.0000 346.5934,0.0000 348.8913,0.0000 351.2006,0.0000 353.5211,0.0000 355.8523,0.0000 358.1940,0.0000 360.5459,0.0000 362.9075,0.0000 365.2786,0.0000 367.6589,0.0000 370.0481,0.0000 372.4457,0.0000 374.8515,0.0000 377.2652,0.0000 379.6863,0.0000 382.1147,0.0000 384.5500,0.0000 386.9918,0.0000 389.4398,0.0000 391.8939,0.0000 394.3535,0.0000 396.8185,0.0000 399.2885,0.0000 401.7633,0.0000 404.2425,0.0000 406.7259,0.0000 409.2133,0.0000 411.7043,0.0000 414.1987,0.0000 416.6962,0.0000 419.1966,0.0000 421.6997,0.0000 424.2052,0.0000 426.7129,0.0000 429.2226,0.0000 431.7341,0.0000 434.2472,0.0000 436.7617,0.0000 439.2774,0.0000 441.7942,0.0000 444.3119,0.0000 446.8303,0.0000 449.3493,0.0000 451.8688,0.0000 454.3886,0.0000 456.9086,0.0000 459.4287,0.0000 461.9486,0.0000 464.4683,0.0000 466.9874,0.0000 469.5059,0.0000 472.0236,0.0000 474.5402,0.0000 477.0556,0.0000 479.5696,0.0000 482.0819,0.0000 484.5923,0.0000 487.1005,0.0000 489.6065,0.0000 492.1098,0.0000 494.6103,0.0000 497.1077,0.0000 499.6017,0.0000 502.0922,0.0000 504.5788,0.0000 507.0612,0.0000 509.5392,0.0000 512.0125,0.0000 514.4809,0.0000 516.9440,0.0000 519.4015,0.0000 521.8532,0.0000 524.2988,0.0000 526.7379,0.0000 529.1704,0.0000 531.5958,0.0000 534.0139,0.0000 536.4244,0.0000 538.8270,0.0000 541.2214,0.0000 543.6073,0.0000 545.9845,0.0000 548.3526,0.0000 550.7113,0.0000 553.0605,0.0000 555.3997,0.0000 557.7288,0.0000 560.0475,0.0000 562.3555,0.0000 564.6527,0.0000 566.9387,0.0000 569.2134,0.0000 571.4765,0.0000 573.7279,0.0000 575.9674,0.0000 578.1950,0.0000 580.4104,0.0000 582.6138,0.0000 584.8051,0.0000 586.9843,0.0000 589.1515,0.0000 591.3068,0.0000 593.4503,0.0000 595.5823,0.0000 597.7028,0.0000 599.8122,0.0000 601.9106,0.0000 603.9985,0.0000 606.0760,0.0000 608.1435,0.0000 610.2014,0.0000 612.2501,0.0000 614.2899,0.0000 616.3213,0.0000 618.3447,0.0000 620.3606,0.0000 622.3693,0.0000 624.3714,0.0000 626.3673,0.0000 628.3576,0.0000 630.3426,0.0000 632.3228,0.0000 634.2987,0.0000 636.2708,0.0000 638.2395,0.0000 640.2053,0.0000 642.1685,0.0000 644.1296,0.0000 646.0890,0.0000 648.0470,0.0000 650.0040,0.0000 651.9603,0.0000 653.9163,0.0000 655.8721,0.0000 657.8280,0.0000 659.7842,0.0000 661.7409,0.0000 663.6983,0.0000 665.6564,0.0000 667.6153,0.0000 669.5751,0.0000 671.5356,0.0000 673.4970,0.0000 675.4590,0.0000 677.4217,0.0000 679.3849,0.0000 681.3485,0.0000 683.3123,0.0000 685.2763,0.0000 687.2403,0.0000 689.2042,0.0000 691.1679,0.0000 693.1311,0.0000 695.0938,0.0000 697.0558,0.0000 699.0169,0.0000 700.9771,0.0000 702.9363,0.0000 704.8941,0.0000 706.8506,0.0000 708.8057,0.0000 710.7591,0.0000 712.7109,0.0000 714.6609,0.0000 716.6089,0.0000 718.5550,0.0000 720.4991,0.0000 722.4411,0.0000 724.3809,0.0000 726.3185,0.0000 728.2538,0.0000 730.1870,0.0000 732.1178,0.0000 734.0464,0.0000 735.9727,0.0000 737.8969,0.0000 739.8188,0.0000 741.7387,0.0000 743.6565,0.0000 745.5723,0.0000 747.4862,0.0000 749.3984,0.0000 751.3090,0.0000 753.2181,0.0000 755.1258,0.0000 757.0323,0.0000 758.9379,0.0000 760.8427,0.0000 762.7469,0.0000 764.6508,0.0000 766.5546,0.0000 768.4586,0.0000 770.3630,0.0000 772.2682,0.0000 774.1744,0.0000 776.0820,0.0000 777.9910,0.0000 779.9019,0.0000 781.8149,0.0000 783.7303,0.0000 785.6482,0.0000 787.5690,0.0000 789.4928,0.0000 791.4198,0.0000 793.3505,0.0000 795.2848,0.0000 797.2231,0.0000 799.1655,0.0000 801.1123,0.0000 803.0636,0.0000 805.0197,0.0000 806.9808,0.0000 808.9470,0.0000 810.9185,0.0000 812.8955,0.0000 814.8782,0.0000 816.8667,0.0000 818.8612,0.0000 820.8619,0.0000 822.8690,0.0000 824.8825,0.0000 826.9027,0.0000 828.9297,0.0000 830.9636,0.0000 833.0047,0.0000 835.0529,0.0000 837.1085,0.0000 839.1717,0.0000 841.2424,0.0000 843.3210,0.0000 845.4074,0.0000 847.5018,0.0000 849.6043,0.0000 851.7151,0.0000 853.8343,0.0000 855.9619,0.0000 858.0981,0.0000 860.2429,0.0000 862.3966,0.0000 864.5592,0.0000 866.7307,0.0000 868.9113,0.0000 897.2578,0.0000 897.2578,141.7322 868.9113,141.7322 866.7307,141.7322 864.5592,141.7322 862.3966,141.7322 860.2429,141.7322 858.0981,141.7322 855.9619,141.7322 853.8343,141.7322 851.7151,141.7322 849.6043,141.7322 847.5018,141.7322 845.4074,141.7322 843.3210,141.7322 841.2424,141.7322 839.1717,141.7322 837.1085,141.7322 835.0529,141.7322 833.0047,141.7322 830.9636,141.7322 828.9297,141.7322 826.9027,141.7322 824.8825,141.7322 822.8690,141.7322 820.8619,141.7322 818.8612,141.7322 816.8667,141.7322 814.8782,141.7322 812.8955,141.7322 810.9185,141.7322 808.9470,141.7322 806.9808,141.7322 805.0197,141.7322 803.0636,141.7322 801.1123,141.7322 799.1655,141.7322 797.2231,141.7322 795.2848,141.7322 793.3505,141.7322 791.4198,141.7322 789.4928,141.7322 787.5690,141.7322 785.6482,141.7322 783.7303,141.7322 781.8149,141.7322 779.9019,141.7322 777.9910,141.7322 776.0820,141.7322 774.1744,141.7322 772.2682,141.7322 770.3630,141.7322 768.4586,141.7322 766.5546,141.7322 764.6508,141.7322 762.7469,141.7322 760.8427,141.7322 758.9379,141.7322 757.0323,141.7322 755.1258,141.7322 753.2181,141.7322 751.3090,141.7322 749.3984,141.7322 747.4862,141.7322 745.5723,141.7322 743.6565,141.7322 741.7387,141.7322 739.8188,141.7322 737.8969,141.7322 735.9727,141.7322 734.0464,141.7322 732.1178,141.7322 730.1870,141.7322 728.2538,141.7322 726.3185,141.7322 724.3809,141.7322 722.4411,141.7322 720.4991,141.7322 718.5550,141.7322 716.6089,141.7322 714.6609,141.7322 712.7109,141.7322 710.7591,141.7322 708.8057,141.7322 706.8506,141.7322 704.8941,141.7322 702.9363,141.7322 700.9771,141.7322 699.0169,141.7322 697.0558,141.7322 695.0938,141.7322 693.1311,141.7322 691.1679,141.7322 689.2042,141.7322 687.2403,141.7322 685.2763,141.7322 683.3123,141.7322 681.3485,141.7322 679.3849,141.7322 677.4217,141.7322 675.4590,141.7322 673.4970,141.7322 671.5356,141.7322 669.5751,141.7322 667.6153,141.7322 665.6564,141.7322 663.6983,141.7322 661.7409,141.7322 659.7842,141.7322 657.8280,141.7322 655.8721,141.7322 653.9163,141.7322 651.9603,141.7322 650.0040,141.7322 648.0470,141.7322 646.0890,141.7322 644.1296,141.7322 642.1685,141.7322 640.2053,141.7322 638.2395,141.7322 636.2708,141.7322 634.2987,141.7322 632.3228,141.7322 630.3426,141.7322 628.3576,141.7322 626.3673,141.7322 624.3714,141.7322 622.3693,141.7322 620.3606,141.7322 618.3447,141.7322 616.3213,141.7322 614.2899,141.7322 612.2501,141.7322 610.2014,141.7322 608.1435,141.7322 606.0760,141.7322 603.9985,141.7322 601.9106,141.7322 599.8122,141.7322 597.7028,141.7322 595.5823,141.7322 593.4503,141.7322 591.3068,141.7322 589.1515,141.7322 586.9843,141.7322 584.8051,141.7322 582.6138,141.7322 580.4104,141.7322 578.1950,141.7322 575.9674,141.7322 573.7279,141.7322 571.4765,141.7322 569.2134,141.7322 566.9387,141.7322 564.6527,141.7322 562.3555,141.7322 560.0475,141.7322 557.7288,141.7322 555.3997,141.7322 553.0605,141.7322 550.7113,141.7322 548.3526,141.7322 545.9845,141.7322 543.6073,141.7322 541.2214,141.7322 538.8270,141.7322 536.4244,141.7322 534.0139,141.7322 531.5958,141.7322 529.1704,141.7322 526.7379,141.7322 524.2988,141.7322 521.8532,141.7322 519.4015,141.7322 516.9440,141.7322 514.4809,141.7322 512.0125,141.7322 509.5392,141.7322 507.0612,141.7322 504.5788,141.7322 502.0922,141.7322 499.6017,141.7322 497.1077,141.7322 494.6103,141.7322 492.1098,141.7322 489.6065,141.7322 487.1005,141.7322 484.5923,141.7322 482.0819,141.7322 479.5696,141.7322 477.0556,141.7322 474.5402,141.7322 472.0236,141.7322 469.5059,141.7322 466.9874,141.7322 464.4683,141.7322 461.9486,141.7322 459.4287,141.7322 456.9086,141.7322 454.3886,141.7322 451.8688,141.7322 449.3493,141.7322 446.8303,141.7322 444.3119,141.7322 441.7942,141.7322 439.2774,141.7322 436.7617,141.7322 434.2472,141.7322 431.7341,141.7322 429.2226,141.7322 426.7129,141.7322 424.2052,141.7322 421.6997,141.7322 419.1966,141.7322 416.6962,141.7322 414.1987,141.7322 411.7043,141.7322 409.2133,141.7322 406.7259,141.7322 404.2425,141.7322 401.7633,141.7322 399.2885,141.7322 396.8185,141.7322 394.3535,141.7322 391.8939,141.7322 389.4398,141.7322 386.9918,141.7322 384.5500,141.7322 382.1147,141.7322 379.6863,141.7322 377.2652,141.7322 374.8515,141.7322 372.4457,141.7322 370.0481,141.7322 367.6589,141.7322 365.2786,141.7322 362.9075,141.7322 360.5459,141.7322 358.1940,141.7322 355.8523,141.7322 353.5211,141.7322 351.2006,141.7322 348.8913,141.7322 346.5934,141.7322 344.3072,141.7322 342.0330,141.7322 339.7711,141.7322 337.5219,141.7322 335.2855,141.7322 333.0622,141.7322 330.8523,141.7322 328.6560,141.7322 326.4736,141.7322 324.3052,141.7322 322.1511,141.7322 320.0112,141.7322 317.8857,141.7322 315.7747,141.7322 313.6781,141.7322 311.5959,141.7322 309.5281,141.7322 307.4744,141.7322 305.4347,141.7322 303.4089,141.7322 301.3967,141.7322 299.3979,141.7322 297.4120,141.7322 295.4389,141.7322 293.4781,141.7322 291.5292,141.7322 289.5917,141.7322 287.6653,141.7322 285.7495,141.7322 283.8436,141.7322 281.9473,141.7322 280.0599,141.7322 278.1808,141.7322 276.3095,141.7322 274.4455,141.7322 272.5879,141.7322 270.7364,141.7322 268.8902,141.7322 267.0487,141.7322 265.2114,141.7322 263.3775,141.7322 261.5466,141.7322 259.7180,141.7322 257.8910,141.7322 256.0653,141.7322 254.2402,141.7322 252.4152,141.7322 250.5898,141.7322 248.7635,141.7322 246.9359,141.7322 245.1066,141.7322 243.2752,141.7322 241.4413,141.7322 239.6046,141.7322 237.7649,141.7322 235.9219,141.7322 234.0755,141.7322 232.2253,141.7322 230.3714,141.7322 228.5136,141.7322 226.6519,141.7322 224.7863,141.7322 222.9166,141.7322 221.0429,141.7322 219.1653,141.7322 217.2836,141.7322 215.3981,141.7322 213.5087,141.7322 211.6154,141.7322 209.7184,141.7322 207.8177,141.7322 205.9134,141.7322 204.0055,141.7322 202.0943,141.7322 200.1796,141.7322 198.2617,141.7322 196.3407,141.7322 194.4165,141.7322 192.4893,141.7322 190.5593,141.7322 188.6263,141.7322 186.6907,141.7322 184.7523,141.7322 182.8114,141.7322 180.8679,141.7322 178.9219,141.7322 176.9734,141.7322 175.0226,141.7322 173.0694,141.7322 171.1139,141.7322 169.1560,141.7322 167.1959,141.7322 165.2335,141.7322 163.2688,141.7322 161.3018,141.7322 159.3324,141.7322 157.3607,141.7322 155.3865,141.7322 153.4099,141.7322 151.4307,141.7322 149.4489,141.7322 147.4643,141.7322 145.4770,141.7322 143.4867,141.7322 141.4934,141.7322 139.4968,141.7322 137.4969,141.7322 135.4935,141.7322 133.4865,141.7322 131.4755,141.7322 129.4605,141.7322 127.4413,141.7322 125.4177,141.7322 123.3896,141.7322 121.3568,141.7322 119.3191,141.7322 117.2765,141.7322 115.2288,141.7322 113.1759,141.7322 111.1176,141.7322 109.0538,141.7322 106.9845,141.7322 104.9095,141.7322 102.8288,141.7322 100.7421,141.7322 98.6496,141.7322 96.5510,141.7322 94.4463,141.7322 92.3354,141.7322 90.2183,141.7322 88.0950,141.7322 85.9653,141.7322 83.8292,141.7322 81.6867,141.7322 79.5378,141.7322 77.3824,141.7322 75.2206,141.7322 73.0522,141.7322 70.8773,141.7322 68.6959,141.7322 66.5080,141.7322 64.3135,141.7322 62.1126,141.7322 59.9052,141.7322 57.6914,141.7322 55.4711,141.7322 53.2445,141.7322 51.0115,141.7322 48.7723,141.7322 46.5268,141.7322 44.2751,141.7322 42.0173,141.7322 39.7535,141.7322 37.4837,141.7322 35.2080,141.7322 32.9265,141.7322 30.6393,141.7322 28.3464,141.7322 0.0000,141.7322 0.0000,0.0000" stroke="black" fill="none"/>
</svg>