<svg width="889.9898" height="141.7322" xmlns="http://www.w3.org/2000/svg">
<polyline points="0.0000,69.1264 28.3464,69.1264 30.3980,68.7118 32.4595,68.2871 34.5310,67.8526 36.6122,67.4084 38.7031,66.9547 40.8034,66.4917 42.9132,66.0197 45.0322,65.5389 47.1603,65.0495 49.2974,64.5518 51.4433,64.0460 53.5979,63.5325 55.7612,63.0114 57.9329,62.4833 60.1129,61.9482 62.3011,61.4067 64.4973,60.8589 66.7014,60.3053 68.9133,59.7463 71.1329,59.1821 73.3600,58.6132 75.5944,58.0400 77.8361,57.4628 80.0848,56.8820 82.3406,56.2981 84.6031,55.7115 86.8724,55.1225 89.1482,54.5316 91.4304,53.9393 93.7188,53.3460 96.0134,52.7521 98.3141,52.1580 100.6205,51.5643 102.9327,50.9713 105.2505,50.3795 107.5737,49.7894 109.9023,49.2014 112.2360,48.6159 114.5747,48.0335 116.9183,47.4545 119.2667,46.8794 121.6197,46.3087 123.9772,45.7428 126.3390,45.1821 128.7050,44.6271 131.0750,44.0782 133.4490,43.5359 135.8268,43.0005 138.2082,42.4725 140.5930,41.9524 142.9813,41.4404 145.3728,40.9370 147.7673,40.4425 150.1648,39.9575 152.5651,39.4822 154.9681,39.0169 157.3736,38.5621 159.7815,38.1182 162.1916,37.6853 164.6038,37.2639 167.0180,36.8542 169.4340,36.4566 171.8517,36.0713 174.2710,35.6986 176.6917,35.3388 179.1136,34.9922 181.5367,34.6589 183.9608,34.3392 186.3857,34.0333 188.8114,33.7414 191.2376,33.4637 193.6643,33.2004 196.0912,32.9516 198.5184,32.7174 200.9455,32.4981 203.3726,32.2936 205.7994,32.1041 208.2258,31.9298 210.6517,31.7706 213.0769,31.6266 215.5013,31.4979 217.9248,31.3845 220.3472,31.2865 222.7684,31.2037 225.1883,31.1363 227.6067,31.0842 230.0235,31.0473 232.4385,31.0257 234.8516,31.0192 237.2627,31.0277 239.6716,31.0513 242.0783,31.0897 244.4825,31.1429 246.8842,31.2107 249.2831,31.2930 251.6793,31.3897 254.0724,31.5006 256.4625,31.6255 258.8493,31.7642 261.2328,31.9167 263.6128,32.0825 265.9892,32.2616 268.3618,32.4537 270.7305,32.6586 273.0952,32.8761 275.4557,33.1058 277.8120,33.3476 280.1638,33.6012 282.5111,33.8663 284.8538,34.1427 287.1917,34.4300 289.5246,34.7279 291.8525,35.0363 294.1752,35.3547 296.4926,35.6829 298.8046,36.0205 301.1110,36.3672 303.4117,36.7228 305.7067,37.0869 307.9957,37.4592 310.2786,37.8393 312.5554,38.2269 314.8259,38.6216 317.0900,39.0233 319.3476,39.4314 321.5985,39.8457 323.8426,40.2658 326.0799,40.6915 328.3101,41.1222 330.5332,41.5578 332.7491,41.9979 334.9576,42.4421 337.1586,42.8901 339.3521,43.3416 341.5379,43.7963 343.7158,44.2537 345.8859,44.7136 348.0479,45.1757 350.2018,45.6396 352.3475,46.1051 354.4848,46.5717 356.6137,47.0393 358.7340,47.5074 360.8456,47.9758 362.9485,48.4442 365.0426,48.9123 367.1277,49.3798 369.2037,49.8465 371.2706,50.3120 373.3282,50.7760 375.3765,51.2384 377.4154,51.6988 379.4448,52.1571 381.4646,52.6128 383.4746,53.0659 385.4750,53.5161 387.4654,53.9631 389.4459,54.4068 391.4164,54.8468 393.3769,55.2831 395.3271,55.7153 397.2672,56.1434 399.1969,56.5672 401.1162,56.9863 403.0251,57.4008 404.9236,57.8104 406.8114,58.2149 408.6887,58.6143 410.5553,59.0083 412.4111,59.3969 414.2562,59.7799 416.0905,60.1572 417.9139,60.5287 419.7265,60.8943 421.5281,61.2540 423.3188,61.6075 425.0984,61.9548 426.8671,62.2959 428.6247,62.6308 430.3713,62.9592 432.1069,63.2813 433.8313,63.5969 435.5448,63.9060 437.2471,64.2087 438.9384,64.5048 440.6187,64.7943 442.2879,65.0773 443.9462,65.3538 445.5934,65.6237 447.2298,65.8871 448.8552,66.1439 450.4698,66.3943 452.0736,66.6383 453.6667,66.8758 455.2490,67.1070 456.8208,67.3318 458.3821,67.5504 459.9330,67.7627 461.4736,67.9690 463.0039,68.1149 464.5243,68.2013 466.0351,68.2828 467.5369,68.3596 469.0300,68.4318 470.5149,68.4996 471.9919,68.5631 473.4615,68.6226 474.9240,68.6780 476.3799,68.7296 477.8295,68.7774 479.2732,68.8216 480.7114,68.8624 482.1444,68.8997 483.5726,68.9339 484.9963,68.9648 486.4158,68.9928 487.8316,69.0178 489.2438,69.0399 490.6529,69.0593 492.0591,69.0761 493.4628,69.0903 494.8641,69.1020 496.2634,69.1113 497.6610,69.1184 499.0570,69.1232 500.4519,69.1258 501.8457,69.1264 503.2389,69.1250 504.6315,69.1216 506.0238,69.1164 507.4160,69.1093 508.8083,69.1006 510.2010,69.0901 511.5941,69.0780 512.9880,69.0643 514.3827,69.0492 515.7785,69.0325 517.1755,69.0145 518.5738,68.9951 519.9737,68.9744 521.3752,68.9524 522.7785,68.9292 524.1838,68.9048 525.5911,68.8792 527.0007,68.8525 528.4125,68.8248 529.8267,68.7960 531.2435,68.7661 532.6629,68.7353 534.0851,68.7035 535.5101,68.6708 536.9380,68.6372 538.3690,68.6027 539.8031,68.5673 541.2403,68.5310 542.6809,68.4939 544.1248,68.4559 545.5722,68.4172 547.0231,68.3776 548.4776,68.3372 549.9358,68.2960 551.3978,68.2539 552.8636,68.2111 554.3332,68.1674 555.8069,68.1229 557.2846,68.0776 558.7664,68.0314 560.2525,67.9844 561.7427,67.9365 563.2374,67.8877 564.7364,67.8380 566.2400,67.7873 567.7481,67.7357 569.2609,67.6831 570.7784,67.6294 572.3007,67.5747 573.8279,67.5188 575.3602,67.4619 576.8975,67.4037 578.4399,67.3443 579.9877,67.2835 581.5408,67.2215 583.0994,67.1580 584.6635,67.0931 586.2333,67.0267 587.8090,66.9587 589.3905,66.8890 590.9780,66.8176 592.5717,66.7444 594.1717,66.6693 595.7781,66.5923 597.3910,66.5132 599.0106,66.4320 600.6371,66.3485 602.2705,66.2627 603.9110,66.1745 605.5588,66.0838 607.2141,65.9904 608.8769,65.8943 610.5476,65.7953 612.2262,65.6933 613.9130,65.5882 615.6081,65.4799 617.3118,65.3683 619.0241,65.2531 620.7454,65.1343 622.4759,65.0117 624.2157,64.8852 625.9650,64.7546 627.7241,64.6197 629.4933,64.4804 631.2727,64.3366 633.0627,64.1880 634.8633,64.0344 636.6750,63.8758 638.4978,63.7118 640.3322,63.5424 642.1784,63.3673 644.0366,63.1862 645.9071,62.9990 647.7902,62.8055 649.6861,62.6055 651.5953,62.3987 653.5178,62.1848 655.4542,61.9637 657.4046,61.7351 659.3693,61.4987 661.3487,61.2543 663.3431,61.0017 665.3528,60.7404 667.3781,60.4704 669.4193,60.1912 671.4768,59.9026 673.5509,59.6042 675.6420,59.2959 677.7504,58.9772 679.8764,58.6479 682.0203,58.3076 684.1826,57.9559 686.3635,57.5926 688.5635,57.2173 690.7828,56.8297 693.0219,56.4293 695.2811,56.0158 697.5608,55.5889 699.8612,55.1481 702.1829,54.6930 704.5262,54.2233 706.8914,53.7386 709.2790,53.2384 711.6892,52.7223 714.1225,52.1900 716.5792,51.6409 719.0598,51.0746 721.5646,50.4908 724.0940,49.8888 726.6483,49.2684 729.2281,48.6290 731.8335,47.9701 734.4651,47.2914 737.1233,46.5922 739.8083,45.8722 742.5207,45.1308 745.2607,44.3676 748.0288,43.5820 750.8254,42.7736 753.6508,41.9419 756.5055,41.0863 759.3899,40.2063 762.3042,39.3016 765.2490,38.3714 768.2246,37.4153 771.2315,36.4329 774.2699,35.4235 777.3403,34.3868 780.4431,33.3221 783.5787,32.2289 786.7474,31.1068 789.9497,29.9552 793.1860,28.7736 796.4566,27.5616 799.7619,26.3185 803.1024,25.0441 806.4783,23.7376 809.8902,22.3987 813.3383,21.0269 816.8232,19.6218 820.3451,18.1828 823.9044,16.7095 827.5016,15.2014 831.1371,13.6582 834.8111,12.0795 838.5242,10.4647 842.2767,8.8136 846.0689,7.1258 849.9013,5.4008 853.7742,3.6384 857.6881,1.8382 861.6433,0.0000 889.9898,0.0000 889.9898,141.7322 861.6433,141.7322 857.6881,139.8940 853.7742,138.0938 849.9013,136.3314 846.0689,134.6064 842.2767,132.9186 838.5242,131.2675 834.8111,129.6527 831.1371,128.0740 827.5016,126.5308 823.9044,125.0227 820.3451,123.5494 816.8232,122.1104 813.3383,120.7052 809.8902,119.3335 806.4783,117.9946 803.1024,116.6881 799.7619,115.4136 796.4566,114.1706 793.1860,112.9586 789.9497,111.7770 786.7474,110.6254 783.5787,109.5033 780.4431,108.4101 777.3403,107.3454 774.2699,106.3087 771.2315,105.2993 768.2246,104.3169 765.2490,103.3608 762.3042,102.4306 759.3899,101.5258 756.5055,100.6459 753.6508,99.7903 750.8254,98.9586 748.0288,98.1502 745.2607,97.3646 742.5207,96.6014 739.8083,95.8600 737.1233,95.1400 734.4651,94.4408 731.8335,93.7621 729.2281,93.1032 726.6483,92.4638 724.0940,91.8434 721.5646,91.2414 719.0598,90.6576 716.5792,90.0913 714.1225,89.5422 711.6892,89.0098 709.2790,88.4938 706.8914,87.9936 704.5262,87.5089 702.1829,87.0392 699.8612,86.5841 697.5608,86.1433 695.2811,85.7164 693.0219,85.3029 690.7828,84.9025 688.5635,84.5149 686.3635,84.1396 684.1826,83.7763 682.0203,83.4246 679.8764,83.0843 677.7504,82.7550 675.6420,82.4363 673.5509,82.1280 671.4768,81.8296 669.4193,81.5410 667.3781,81.2618 665.3528,80.9918 663.3431,80.7305 661.3487,80.4779 659.3693,80.2335 657.4046,79.9971 655.4542,79.7685 653.5178,79.5474 651.5953,79.3335 649.6861,79.1267 647.7902,78.9267 645.9071,78.7332 644.0366,78.5460 642.1784,78.3649 640.3322,78.1898 638.4978,78.0203 636.6750,77.8564 634.8633,77.6977 633.0627,77.5442 631.2727,77.3956 629.4933,77.2518 627.7241,77.1125 625.9650,76.9776 624.2157,76.8470 622.4759,76.7205 620.7454,76.5979 619.0241,76.4791 617.3118,76.3639 615.6081,76.2523 613.9130,76.1439 612.2262,76.0389 610.5476,75.9369 608.8769,75.8379 607.2141,75.7418 605.5588,75.6484 603.9110,75.5577 602.2705,75.4695 600.6371,75.3837 599.0106,75.3002 597.3910,75.2190 595.7781,75.1399 594.1717,75.0629 592.5717,74.9878 590.9780,74.9146 589.3905,74.8432 587.8090,74.7735 586.2333,74.7055 584.6635,74.6391 583.0994,74.5742 581.5408,74.5107 579.9877,74.4486 578.4399,74.3879 576.8975,74.3285 575.3602,74.2703 573.8279,74.2133 572.3007,74.1575 570.7784,74.1028 569.2609,74.0491 567.7481,73.9965 566.2400,73.9448 564.7364,73.8942 563.2374,73.8445 561.7427,73.7957 560.2525,73.7478 558.7664,73.7007 557.2846,73.6546 555.8069,73.6093 554.3332,73.5648 552.8636,73.5211 551.3978,73.4783 549.9358,73.4362 548.4776,73.3950 547.0231,73.3546 545.5722,73.3150 544.1248,73.2762 542.6809,73.2383 541.2403,73.2012 539.8031,73.1649 538.3690,73.1295 536.9380,73.0950 535.5101,73.0614 534.0851,73.0286 532.6629,72.9969 531.2435,72.9661 529.8267,72.9362 528.4125,72.9074 527.0007,72.8797 525.5911,72.8530 524.1838,72.8274 522.7785,72.8030 521.3752,72.7798 519.9737,72.7578 518.5738,72.7371 517.1755,72.7177 515.7785,72.6996 514.3827,72.6830 512.9880,72.6678 511.5941,72.6542 510.2010,72.6421 508.8083,72.6316 507.4160,72.6229 506.0238,72.6158 504.6315,72.6106 503.2389,72.6072 501.8457,72.6058 500.4519,72.6064 499.0570,72.6090 497.6610,72.6138 496.2634,72.6209 494.8641,72.6302 493.4628,72.6419 492.0591,72.6561 490.6529,72.6729 489.2438,72.6923 487.8316,72.7144 486.4158,72.7394 484.9963,72.7674 483.5726,72.7983 482.1444,72.8325 480.7114,72.8698 479.2732,72.9106 477.8295,72.9548 476.3799,73.0026 474.9240,73.0542 473.4615,73.1096 471.9919,73.1690 470.5149,73.2326 469.0300,73.3004 467.5369,73.3726 466.0351,73.4494 464.5243,73.5309 463.0039,73.6173 461.4736,73.7632 459.9330,73.9694 458.3821,74.1818 456.8208,74.4004 455.2490,74.6252 453.6667,74.8564 452.0736,75.0939 450.4698,75.3379 448.8552,75.5882 447.2298,75.8451 445.5934,76.1085 443.9462,76.3784 442.2879,76.6549 440.6187,76.9379 438.9384,77.2274 437.2471,77.5235 435.5448,77.8262 433.8313,78.1353 432.1069,78.4509 430.3713,78.7730 428.6247,79.1014 426.8671,79.4362 425.0984,79.7774 423.3188,80.1247 421.5281,80.4782 419.7265,80.8378 417.9139,81.2035 416.0905,81.5750 414.2562,81.9523 412.4111,82.3353 410.5553,82.7239 408.6887,83.1179 406.8114,83.5173 404.9236,83.9218 403.0251,84.3314 401.1162,84.7459 399.1969,85.1650 397.2672,85.5888 395.3271,86.0168 393.3769,86.4491 391.4164,86.8854 389.4459,87.3254 387.4654,87.7691 385.4750,88.2161 383.4746,88.6663 381.4646,89.1194 379.4448,89.5751 377.4154,90.0334 375.3765,90.4938 373.3282,90.9562 371.2706,91.4202 369.2037,91.8857 367.1277,92.3524 365.0426,92.8199 362.9485,93.2880 360.8456,93.7564 358.7340,94.2248 356.6137,94.6929 354.4848,95.1605 352.3475,95.6271 350.2018,96.0926 348.0479,96.5565 345.8859,97.0186 343.7158,97.4785 341.5379,97.9359 339.3521,98.3906 337.1586,98.8421 334.9576,99.2901 332.7491,99.7343 330.5332,100.1744 328.3101,100.6100 326.0799,101.0407 323.8426,101.4664 321.5985,101.8865 319.3476,102.3008 317.0900,102.7089 314.8259,103.1106 312.5554,103.5053 310.2786,103.8929 307.9957,104.2730 305.7067,104.6453 303.4117,105.0094 301.1110,105.3649 298.8046,105.7117 296.4926,106.0493 294.1752,106.3775 291.8525,106.6959 289.5246,107.0043 287.1917,107.3022 284.8538,107.5895 282.5111,107.8659 280.1638,108.1310 277.8120,108.3846 275.4557,108.6264 273.0952,108.8561 270.7305,109.0736 268.3618,109.2785 265.9892,109.4706 263.6128,109.6497 261.2328,109.8155 258.8493,109.9679 256.4625,110.1067 254.0724,110.2316 251.6793,110.3425 249.2831,110.4392 246.8842,110.5215 244.4825,110.5893 242.0783,110.6425 239.6716,110.6809 237.2627,110.7045 234.8516,110.7130 232.4385,110.7065 230.0235,110.6849 227.6067,110.6480 225.1883,110.5959 222.7684,110.5284 220.3472,110.4457 217.9248,110.3476 215.5013,110.2343 213.0769,110.1056 210.6517,109.9616 208.2258,109.8024 205.7994,109.6281 203.3726,109.4386 200.9455,109.2341 198.5184,109.0148 196.0912,108.7806 193.6643,108.5318 191.2376,108.2684 188.8114,107.9907 186.3857,107.6989 183.9608,107.3930 181.5367,107.0733 179.1136,106.7400 176.6917,106.3934 174.2710,106.0336 171.8517,105.6609 169.4340,105.2756 167.0180,104.8780 164.6038,104.4683 162.1916,104.0469 159.7815,103.6140 157.3736,103.1701 154.9681,102.7153 152.5651,102.2500 150.1648,101.7747 147.7673,101.2897 145.3728,100.7952 142.9813,100.2918 140.5930,99.7798 138.2082,99.2596 135.8268,98.7317 133.4490,98.1963 131.0750,97.6540 128.7050,97.1051 126.3390,96.5501 123.9772,95.9894 121.6197,95.4235 119.2667,94.8528 116.9183,94.2777 114.5747,93.6987 112.2360,93.1163 109.9023,92.5308 107.5737,91.9428 105.2505,91.3527 102.9327,90.7609 100.6205,90.1679 98.3141,89.5742 96.0134,88.9801 93.7188,88.3862 91.4304,87.7929 89.1482,87.2006 86.8724,86.6097 84.6031,86.0207 82.3406,85.4341 80.0848,84.8502 77.8361,84.2694 75.5944,83.6922 73.3600,83.1190 71.1329,82.5501 68.9133,81.9859 66.7014,81.4268 64.4973,80.8733 62.3011,80.3255 60.1129,79.7840 57.9329,79.2489 55.7612,78.7208 53.5979,78.1997 51.4433,77.6862 49.2974,77.1804 47.1603,76.6827 45.0322,76.1933 42.9132,75.7125 40.8034,75.2404 38.7031,74.7775 36.6122,74.3238 34.5310,73.8796 32.4595,73.4451 30.3980,73.0204 28.3464,72.6058 0.0000,72.6058 0.0000,69.1264" stroke="black" fill="none"/>
</svg>